<svg width="48" height="48" viewBox="0 0 48 48" fill="none" xmlns="http://www.w3.org/2000/svg">
<rect width="48" height="48" rx="8" fill="#D95541"/>
<path d="M24.1055 26.4258C26.8263 26.4259 29.2096 27.8725 30.5283 30.0381L31.5723 29.7588C32.3011 29.5635 33.0508 29.9957 33.2461 30.7246L33.9531 33.3643C34.1483 34.093 33.7159 34.8417 32.9873 35.0371L31.667 35.3906C31.6023 35.408 31.5373 35.4191 31.4727 35.4268C31.3097 36.2388 31.0162 37.0044 30.6143 37.6992L29.4316 37.0146C29.8117 36.3576 30.0708 35.6233 30.1855 34.8408C30.1395 34.7733 30.1003 34.7007 30.0664 34.624H26.0361C25.7545 35.4196 24.9975 35.9902 24.1055 35.9902C23.2136 35.9901 22.4574 35.4194 22.1758 34.624H18.1445C18.1105 34.701 18.0698 34.773 18.0234 34.8408C18.1381 35.6233 18.3983 36.3576 18.7783 37.0146L17.5957 37.6992C17.1936 37.0041 16.8992 36.2382 16.7363 35.4258C16.6724 35.4181 16.608 35.4078 16.5439 35.3906L15.2236 35.0371C14.4949 34.8417 14.0625 34.0921 14.2578 33.3633L14.9648 30.7236C15.1603 29.9949 15.9098 29.5625 16.6387 29.7578L17.6816 30.0371C19.0005 27.8717 21.3847 26.4258 24.1055 26.4258ZM23.4219 27.8301C21.4611 28.0469 19.7773 29.1851 18.8154 30.8027C18.9673 31.095 19.0168 31.442 18.9248 31.7852L18.5303 33.2578H22.1748C22.3806 32.6761 22.8402 32.2157 23.4219 32.0098V27.8301ZM24.7881 32.0098C25.3703 32.2155 25.8302 32.6757 26.0361 33.2578H29.6807L29.2861 31.7852C29.1944 31.4426 29.2423 31.0956 29.3936 30.8037C28.4318 29.1859 26.749 28.0469 24.7881 27.8301V32.0098ZM30.5703 16.4746C30.7439 16.4747 30.8928 16.5925 30.9238 16.7549V16.7588L30.9248 16.7627L30.9268 16.7754C30.9282 16.785 30.9301 16.7977 30.9316 16.8125C30.9348 16.8422 30.9381 16.8822 30.9385 16.9307C30.9393 17.0278 30.9303 17.1609 30.8936 17.3174C30.8219 17.6223 30.6454 18.0055 30.2529 18.3828V19.207C30.2529 22.6027 27.5001 25.3553 24.1045 25.3555C20.7088 25.3555 17.9561 22.6028 17.9561 19.207V18.3789C17.5664 18.0029 17.3918 17.6212 17.3203 17.3174C17.2835 17.1608 17.2746 17.0279 17.2754 16.9307C17.2758 16.8822 17.2781 16.8422 17.2812 16.8125C17.2828 16.7977 17.2847 16.785 17.2861 16.7754L17.2881 16.7627L17.2891 16.7588V16.7549C17.3201 16.5925 17.4691 16.4747 17.6426 16.4746H30.5703ZM19.3223 19.208C19.3228 21.8487 21.4637 23.9893 24.1045 23.9893C26.7445 23.9891 28.8842 21.8497 28.8857 19.21C27.8617 19.611 26.3464 19.8896 24.1064 19.8896C21.8629 19.8896 20.3464 19.6101 19.3223 19.208ZM24.1055 9.30176C25.6575 9.30182 27.4893 9.61123 28.9414 10.127C29.6664 10.3845 30.3173 10.7004 30.7939 11.0693C31.2644 11.4335 31.62 11.8944 31.6201 12.4414C31.6201 13.5203 31.4548 14.0499 31.2705 14.6396L31.2617 14.666C31.2089 14.8351 31.1565 14.9831 31.1074 15.1084H17.1328C17.0837 14.983 17.0303 14.8352 16.9775 14.666C16.9616 14.6149 16.9457 14.5642 16.9297 14.5137C16.7576 13.9712 16.5898 13.443 16.5898 12.4414C16.59 11.8944 16.9456 11.4335 17.416 11.0693C17.8927 10.7003 18.5444 10.3845 19.2695 10.127C20.7217 9.61128 22.5535 9.30176 24.1055 9.30176ZM22.0557 12.376C21.6784 12.376 21.3721 12.6814 21.3721 13.0586C21.3721 13.4359 21.6784 13.7422 22.0557 13.7422H26.1543C26.5316 13.7422 26.8379 13.4359 26.8379 13.0586C26.8378 12.6814 26.5316 12.376 26.1543 12.376H22.0557Z" fill="white"/>
</svg>
