<svg width="48" height="48" viewBox="0 0 48 48" fill="none" xmlns="http://www.w3.org/2000/svg">
<rect width="48" height="48" rx="8" fill="#379F79"/>
<path d="M15.041 28.2842C16.2738 28.2842 17.3003 29.1797 17.502 30.3516C17.5299 30.4874 17.5391 30.6372 17.5391 30.7871C17.5391 32.1605 16.4238 33.2812 15.041 33.2812C13.6628 33.2812 12.543 32.1605 12.543 30.7871C12.543 30.6372 12.557 30.4874 12.585 30.3516C12.7866 29.1797 13.8129 28.2843 15.041 28.2842ZM32.4326 28.2842C33.6655 28.2842 34.6873 29.1797 34.8936 30.3516C34.9217 30.4874 34.9316 30.6372 34.9316 30.7871C34.9316 32.1605 33.8154 33.2812 32.4326 33.2812C31.0546 33.2811 29.9346 32.1605 29.9346 30.7871C29.9346 30.6373 29.9483 30.4874 29.9717 30.3516C30.1779 29.1798 31.1999 28.2843 32.4326 28.2842ZM20.6484 30.7871H18.7129C18.7129 30.5435 18.6937 30.3325 18.6562 30.1357C18.3514 28.3921 16.8277 27.1123 15.042 27.1123C13.2561 27.1124 11.7372 28.3927 11.4277 30.1504C11.3904 30.3424 11.3721 30.5624 11.3721 30.7871H11.3574H11.3438H9V24.6934L11.3066 18.0801C11.5177 17.5646 12.0186 17.2267 12.5762 17.2266H20.6484V30.7871ZM37.6602 15C38.4006 15.0002 39 15.6003 39 16.3408V29.6953C39 30.2999 38.513 30.787 37.9131 30.7871H36.1035C36.1035 30.5622 36.0844 30.3419 36.0469 30.1357C35.7421 28.3923 34.2193 27.1125 32.4336 27.1123C30.6476 27.1123 29.124 28.3926 28.8193 30.1504C28.7818 30.3424 28.7627 30.5624 28.7627 30.7871H28.749H28.7061H21.7646V16.3408C21.7646 15.6002 22.3648 15 23.1055 15H37.6602ZM24.9375 24.1406H36.1875V22.2656H24.9375V24.1406ZM13.2236 18.9707C12.9846 18.9707 12.7687 19.1156 12.6797 19.3359L11.4277 23.2871C11.2685 23.6714 11.5546 24.0936 11.9717 24.0938H18.3184C18.6466 24.0938 18.9092 23.8359 18.9092 23.5078V19.5566C18.9092 19.2332 18.6466 18.9707 18.3184 18.9707H13.2236ZM24.9375 20.3906H36.1875V18.5156H24.9375V20.3906Z" fill="white"/>
</svg>
