<svg width="48" height="48" viewBox="0 0 48 48" fill="none" xmlns="http://www.w3.org/2000/svg">
<rect width="48" height="48" rx="8" fill="#5D6CB3"/>
<path d="M24.1046 23.2881C17.8376 23.2881 12.7578 28.3691 12.7578 34.6361V35.7169V37.8071V39H35.4526V37.8071V36.4372V34.6367C35.4526 28.3691 30.3716 23.2881 24.1046 23.2881Z" fill="white"/>
<path d="M18.1464 18.9531L19.3098 18.5425C19.624 19.0663 20.0283 19.5395 20.5089 19.9419L19.9469 21.1165L22.4709 22.3231L23.0316 21.1484C23.6343 21.2667 24.2413 21.2861 24.834 21.2079L25.2608 22.4182L27.3704 21.6729L26.9486 20.4813C27.4893 20.164 27.9725 19.7504 28.3868 19.2566L29.5602 19.818L30.7636 17.3021L29.589 16.7402C29.711 16.1231 29.7298 15.4992 29.6453 14.8934L30.8081 14.4834L30.0633 12.3738L28.8999 12.7837C28.5877 12.2618 28.184 11.7905 27.7065 11.3888L28.2685 10.2128L25.7333 9L25.1713 10.1772C24.5448 10.0551 23.9096 10.037 23.2957 10.1277L22.9014 9.01064L20.7905 9.75599L21.1917 10.8919C20.6835 11.2004 20.2229 11.5953 19.8299 12.0634L18.654 11.5014L17.443 14.0335L18.6196 14.5955C18.4988 15.2088 18.4813 15.8296 18.5657 16.4329L17.4023 16.8428L18.1464 18.9531ZM24.1049 13.7124C25.1419 13.7124 25.9824 14.5529 25.9824 15.5899C25.9824 16.6269 25.1419 17.4674 24.1049 17.4674C23.0679 17.4674 22.2274 16.6269 22.2274 15.5899C22.2274 14.5529 23.0679 13.7124 24.1049 13.7124Z" fill="white"/>
</svg>
