<svg width="48" height="48" viewBox="0 0 48 48" fill="none" xmlns="http://www.w3.org/2000/svg">
<rect width="48" height="48" rx="8" fill="#77AD58"/>
<path d="M13.4355 14.6575C13.6757 14.6577 13.8701 14.8529 13.8701 15.0931V38.1546H30.4053C30.6454 38.1547 30.8396 38.3491 30.8398 38.5891C30.8398 38.8294 30.6455 39.0246 30.4053 39.0247H13.4355C13.1952 39.0247 13 38.8295 13 38.5891V15.0931C13 14.8527 13.1952 14.6575 13.4355 14.6575ZM15.1738 12.9173C15.414 12.9173 15.6091 13.1117 15.6094 13.3518V36.4143H32.1436C32.3838 36.4143 32.579 36.6087 32.5791 36.8489C32.5791 37.0892 32.3839 37.2845 32.1436 37.2845H15.1738C14.9336 37.2843 14.7393 37.0891 14.7393 36.8489V13.3518C14.7395 13.1118 14.9338 12.9174 15.1738 12.9173ZM33.4727 11.2141C33.9371 11.214 34.2657 11.2997 34.626 11.6028C34.903 11.9449 34.9829 12.2308 34.9834 12.6682V13.1526C34.9835 13.2421 34.9842 13.3317 34.9844 13.4212C34.9848 13.6679 34.9843 13.9147 34.9844 14.1614C34.9845 14.4273 34.985 14.6934 34.9854 14.9593C34.9861 15.5409 34.987 16.1227 34.9873 16.7044C34.9875 17.0675 34.988 17.4311 34.9883 17.7942C34.989 18.7994 34.9891 19.8047 34.9893 20.8098V21.7893C34.9895 22.8401 34.9908 23.8909 34.9922 24.9417C34.9936 26.0202 34.9941 27.0995 34.9941 28.178C34.9942 28.7834 34.995 29.389 34.9961 29.9944C34.997 30.5101 34.9966 31.0266 34.9961 31.5423C34.9959 31.8053 34.9963 32.0683 34.9971 32.3313C34.9978 32.5722 34.9978 32.8132 34.9971 33.054C34.997 33.1411 34.9975 33.2286 34.998 33.3157C35.0009 33.8407 34.9816 34.2339 34.7061 34.6897C34.307 35.0782 33.9135 35.158 33.3711 35.1526C33.3052 35.1531 33.2388 35.1541 33.1709 35.1546C32.9504 35.1559 32.7293 35.1554 32.5088 35.1546C32.3503 35.1549 32.1916 35.1558 32.0332 35.1565H29.9365C29.8703 35.1566 29.8698 35.1574 29.8018 35.1575C29.7111 35.1576 29.62 35.1574 29.5293 35.1575C28.6792 35.1586 27.8286 35.1578 26.9785 35.1565C26.2499 35.1555 25.5206 35.1557 24.792 35.1575C23.9451 35.1596 23.0979 35.1612 22.251 35.1604H21.8447C21.532 35.1603 21.2189 35.1604 20.9062 35.1614H19.1787C18.9676 35.1625 18.756 35.1611 18.5449 35.1595C18.4842 35.1603 18.4229 35.1615 18.3604 35.1624C17.9286 35.1557 17.6192 35.0411 17.2822 34.7669C17.0048 34.4257 16.9263 34.1372 16.9258 33.7005C16.9256 33.6246 16.925 33.5482 16.9248 33.47V32.9475C16.9243 32.7009 16.9239 32.4539 16.9238 32.2073C16.9237 31.9415 16.9232 31.6753 16.9229 31.4095C16.9221 30.8278 16.9221 30.246 16.9219 29.6643C16.9217 29.3012 16.9212 28.9376 16.9209 28.5745C16.9202 27.5693 16.9201 26.564 16.9199 25.5589C16.9199 25.4946 16.919 25.4298 16.9189 25.3636V24.5794C16.9187 23.5287 16.9183 22.4777 16.917 21.427C16.9156 20.3486 16.9141 19.2701 16.9141 18.1917C16.914 17.586 16.9141 16.9799 16.9131 16.3743C16.9122 15.8587 16.9116 15.343 16.9121 14.8274V13.3147C16.9122 13.2277 16.9116 13.1401 16.9111 13.053C16.9083 12.5282 16.9268 12.1346 17.2021 11.679C17.6348 11.2577 18.0557 11.2123 18.6416 11.2249C18.7506 11.2255 18.7511 11.2252 18.8623 11.2259C19.0542 11.2272 19.2466 11.2304 19.4385 11.2337C19.635 11.2367 19.8318 11.2381 20.0283 11.2395C20.4127 11.2427 20.7973 11.2471 21.1816 11.2532C21.1822 11.2973 21.183 11.3416 21.1836 11.387C21.1868 11.5909 21.1914 11.7955 21.1963 11.9993C21.1971 12.0688 21.1984 12.1387 21.1992 12.2102C21.2144 12.7644 21.2958 13.321 21.6807 13.7483C21.7143 13.7878 21.7475 13.8278 21.7822 13.8684C22.2369 14.2192 22.6964 14.3233 23.2598 14.3186C23.3244 14.3192 23.3895 14.32 23.4561 14.3206C23.6683 14.3222 23.8815 14.3213 24.0938 14.3206C24.2424 14.3209 24.3914 14.3211 24.54 14.3216C24.8508 14.3223 25.1619 14.3217 25.4727 14.3206C25.8305 14.3193 26.1891 14.3203 26.5469 14.3225C26.8931 14.3246 27.2397 14.3252 27.5859 14.3245C27.7323 14.3244 27.8791 14.3245 28.0254 14.3255C29.1686 14.3501 29.1691 14.35 30.1504 13.8274C30.6494 13.3244 30.7039 12.6748 30.7119 11.9993C30.7136 11.9273 30.716 11.8547 30.7178 11.7806C30.7218 11.6048 30.7244 11.4289 30.7266 11.2532C31.1489 11.2451 31.5717 11.2394 31.9941 11.2356C32.1903 11.2338 32.3869 11.2308 32.583 11.2268C32.8092 11.2226 33.0355 11.2206 33.2617 11.219C33.3312 11.2172 33.4011 11.216 33.4727 11.2141ZM19.791 30.7298C19.5748 30.7668 19.4703 30.8866 19.3193 31.0413C19.2255 31.2291 19.2271 31.4203 19.2617 31.6233C19.3627 31.7993 19.4849 31.9385 19.6689 32.0306C19.9668 32.0659 19.9672 32.0661 20.2402 31.97C20.4615 31.7879 20.535 31.6895 20.5635 31.4056C20.5621 31.2106 20.5273 31.1089 20.4033 30.9583C20.1979 30.7578 20.08 30.7277 19.791 30.7298ZM21.9668 30.9036C21.7455 30.9273 21.6037 30.9837 21.415 31.0999C21.3325 31.2651 21.3381 31.3827 21.3564 31.5657C21.4862 31.7312 21.5632 31.7899 21.7637 31.8567C21.8993 31.8625 22.0361 31.8642 22.1719 31.8645C22.2339 31.8648 22.2344 31.8652 22.2979 31.8655C22.438 31.866 22.5786 31.8654 22.7188 31.8655C22.8189 31.8658 22.9194 31.8662 23.0195 31.8665C23.2924 31.8673 23.566 31.8682 23.8389 31.8684C24.009 31.8686 24.1794 31.8682 24.3496 31.8684C24.8829 31.8692 25.4169 31.8702 25.9502 31.8704C26.566 31.8707 27.1821 31.8716 27.7979 31.8733C28.2737 31.8746 28.7498 31.8752 29.2256 31.8753C29.5098 31.8753 29.7949 31.8752 30.0791 31.8763C30.3463 31.8772 30.6137 31.8777 30.8809 31.8772C30.9789 31.8772 31.0777 31.8776 31.1758 31.8782H31.8047C32.026 31.8545 32.1677 31.7981 32.3564 31.6819C32.4391 31.5166 32.4333 31.3991 32.415 31.2161C32.2852 31.0504 32.2076 30.992 32.0068 30.9251C31.8713 30.9194 31.7353 30.9176 31.5996 30.9173C31.5375 30.917 31.537 30.9166 31.4736 30.9163C31.3335 30.9158 31.1928 30.9154 31.0527 30.9153C30.9526 30.915 30.8521 30.9156 30.752 30.9153C30.4791 30.9146 30.2055 30.9136 29.9326 30.9134C29.7622 30.9132 29.5913 30.9126 29.4209 30.9124C28.8878 30.9116 28.3544 30.9116 27.8213 30.9114C27.2056 30.9111 26.5893 30.9102 25.9736 30.9085C25.4979 30.9072 25.0216 30.9066 24.5459 30.9065C24.2617 30.9065 23.9766 30.9056 23.6924 30.9046C23.4252 30.9036 23.1578 30.9041 22.8906 30.9046C22.7926 30.9046 22.6937 30.9042 22.5957 30.9036H21.9668ZM19.791 27.0052C19.5748 27.0422 19.4703 27.162 19.3193 27.3167C19.2255 27.5045 19.2271 27.6957 19.2617 27.8987C19.3627 28.0746 19.4849 28.2139 19.6689 28.3059C19.9667 28.3412 19.9673 28.3415 20.2402 28.2454C20.4614 28.0633 20.535 27.9647 20.5635 27.6809C20.5621 27.4859 20.5273 27.3834 20.4033 27.2327C20.1981 27.0324 20.0799 27.0031 19.791 27.0052ZM21.9668 27.179C21.7455 27.2027 21.6038 27.259 21.415 27.3753C21.3326 27.5403 21.3382 27.6574 21.3564 27.8401C21.4862 28.0057 21.5633 28.0643 21.7637 28.1311C21.8993 28.1369 22.0361 28.1396 22.1719 28.1399C22.2339 28.1402 22.2344 28.1397 22.2979 28.1399C22.438 28.1404 22.5786 28.1408 22.7188 28.1409C22.8189 28.1412 22.9194 28.1416 23.0195 28.1419C23.2924 28.1426 23.566 28.1426 23.8389 28.1429C24.009 28.143 24.1794 28.1436 24.3496 28.1438C24.8829 28.1446 25.4169 28.1456 25.9502 28.1458C26.566 28.146 27.1821 28.147 27.7979 28.1487C28.2737 28.15 28.7498 28.1506 29.2256 28.1507C29.5098 28.1507 29.7949 28.1506 30.0791 28.1516C30.3463 28.1526 30.6137 28.1531 30.8809 28.1526C30.9789 28.1526 31.0777 28.153 31.1758 28.1536C31.3095 28.1543 31.4434 28.1532 31.5771 28.1526C31.652 28.1527 31.7276 28.1535 31.8047 28.1536C32.026 28.1299 32.1678 28.0735 32.3564 27.9573C32.4391 27.7921 32.4333 27.6744 32.415 27.4915C32.2852 27.3258 32.2076 27.2674 32.0068 27.2005C31.8713 27.1947 31.7353 27.192 31.5996 27.1917C31.5375 27.1914 31.537 27.1919 31.4736 27.1917C31.3335 27.1912 31.1928 27.1908 31.0527 27.1907C30.9526 27.1904 30.8521 27.19 30.752 27.1897C30.4791 27.189 30.2055 27.189 29.9326 27.1888C29.7622 27.1886 29.5913 27.188 29.4209 27.1878C28.8878 27.187 28.3544 27.187 27.8213 27.1868C27.2056 27.1865 26.5893 27.1856 25.9736 27.1839C25.4979 27.1826 25.0216 27.182 24.5459 27.1819C24.2617 27.1819 23.9766 27.181 23.6924 27.18C23.4252 27.179 23.1578 27.1795 22.8906 27.18C22.7926 27.18 22.6937 27.1796 22.5957 27.179H21.9668ZM19.791 23.2796C19.5747 23.3166 19.4704 23.4373 19.3193 23.5921C19.2256 23.7798 19.2271 23.9711 19.2617 24.1741C19.3627 24.35 19.485 24.4893 19.6689 24.5813C19.9667 24.6166 19.9673 24.6168 20.2402 24.5208C20.4616 24.3386 20.535 24.2395 20.5635 23.9554C20.562 23.7605 20.5273 23.6587 20.4033 23.5081C20.198 23.3077 20.0799 23.2775 19.791 23.2796ZM22.1934 23.4544C22.1187 23.4543 22.0437 23.4535 21.9668 23.4534C21.7456 23.4771 21.6036 23.5336 21.415 23.6497C21.3325 23.8149 21.3382 23.9326 21.3564 24.1155C21.4863 24.2811 21.5632 24.3397 21.7637 24.4065C21.8993 24.4123 22.0361 24.415 22.1719 24.4153C22.2339 24.4156 22.2344 24.4151 22.2979 24.4153C22.438 24.4158 22.5786 24.4162 22.7188 24.4163C22.8189 24.4166 22.9194 24.417 23.0195 24.4173C23.2924 24.418 23.566 24.418 23.8389 24.4182C24.009 24.4184 24.1794 24.419 24.3496 24.4192C24.8829 24.42 25.4169 24.42 25.9502 24.4202C26.566 24.4205 27.1821 24.4214 27.7979 24.4231C28.2737 24.4244 28.7498 24.425 29.2256 24.4251C29.5098 24.4251 29.7949 24.426 30.0791 24.427C30.3463 24.428 30.6137 24.4275 30.8809 24.427C30.9789 24.427 31.0777 24.4274 31.1758 24.428H31.8047C32.0261 24.4043 32.1677 24.3479 32.3564 24.2317C32.4389 24.0667 32.4333 23.9495 32.415 23.7669C32.2852 23.6012 32.2076 23.5428 32.0068 23.4759C31.8713 23.4701 31.7353 23.4674 31.5996 23.4671C31.5375 23.4668 31.537 23.4673 31.4736 23.4671C31.3335 23.4666 31.1928 23.4662 31.0527 23.4661C30.9526 23.4658 30.8521 23.4654 30.752 23.4651C30.4791 23.4644 30.2055 23.4644 29.9326 23.4641C29.7622 23.464 29.5913 23.4634 29.4209 23.4632C28.8878 23.4624 28.3544 23.4614 27.8213 23.4612C27.2056 23.461 26.5893 23.46 25.9736 23.4583C25.4979 23.457 25.0216 23.4564 24.5459 23.4563C24.2617 23.4563 23.9766 23.4564 23.6924 23.4554C23.4252 23.4544 23.1578 23.4539 22.8906 23.4544C22.7926 23.4544 22.6937 23.454 22.5957 23.4534C22.4617 23.4527 22.3273 23.4538 22.1934 23.4544ZM19.791 19.555C19.5747 19.592 19.4704 19.7127 19.3193 19.8675C19.2257 20.0552 19.2271 20.2466 19.2617 20.4495C19.3627 20.6253 19.4851 20.7647 19.6689 20.8567C19.9667 20.892 19.9671 20.8913 20.2402 20.7952C20.4615 20.613 20.535 20.5149 20.5635 20.2307C20.5621 20.0358 20.5273 19.9341 20.4033 19.7835C20.1979 19.583 20.08 19.5529 19.791 19.555ZM21.9668 19.7288C21.7456 19.7525 21.6037 19.8089 21.415 19.9251C21.3325 20.0903 21.3381 20.2079 21.3564 20.3909C21.4863 20.5565 21.5632 20.615 21.7637 20.6819C21.8993 20.6877 22.0361 20.6894 22.1719 20.6897C22.2339 20.69 22.2344 20.6904 22.2979 20.6907C22.438 20.6912 22.5786 20.6916 22.7188 20.6917C22.8189 20.692 22.9194 20.6914 23.0195 20.6917C23.2924 20.6924 23.566 20.6934 23.8389 20.6936C24.009 20.6938 24.1794 20.6944 24.3496 20.6946C24.8829 20.6954 25.4169 20.6954 25.9502 20.6956C26.566 20.6959 27.1821 20.6968 27.7979 20.6985C28.2737 20.6998 28.7498 20.7004 29.2256 20.7005C29.5098 20.7005 29.7949 20.7014 30.0791 20.7024C30.3463 20.7034 30.6137 20.7029 30.8809 20.7024C30.9789 20.7024 31.0777 20.7028 31.1758 20.7034H31.8047C32.0261 20.6797 32.1677 20.6233 32.3564 20.5071C32.4391 20.3419 32.4333 20.2243 32.415 20.0413C32.2852 19.8756 32.2076 19.8172 32.0068 19.7503C31.8713 19.7445 31.7352 19.7428 31.5996 19.7425C31.5375 19.7422 31.537 19.7418 31.4736 19.7415C31.3335 19.741 31.1928 19.7416 31.0527 19.7415C30.9526 19.7412 30.8521 19.7408 30.752 19.7405C30.4791 19.7397 30.2055 19.7388 29.9326 19.7386C29.7622 19.7384 29.5913 19.7388 29.4209 19.7386C28.8878 19.7378 28.3544 19.7368 27.8213 19.7366C27.2056 19.7363 26.5893 19.7354 25.9736 19.7337C25.4979 19.7324 25.0216 19.7318 24.5459 19.7317C24.2617 19.7317 23.9766 19.7318 23.6924 19.7307C23.4252 19.7298 23.1578 19.7293 22.8906 19.7298C22.7926 19.7298 22.6937 19.7294 22.5957 19.7288H21.9668ZM19.791 15.8304C19.5748 15.8674 19.4703 15.9872 19.3193 16.1419C19.2255 16.3297 19.2271 16.5209 19.2617 16.7239C19.3627 16.8999 19.4849 17.0391 19.6689 17.1311C19.9668 17.1664 19.9672 17.1667 20.2402 17.0706C20.4615 16.8884 20.535 16.7901 20.5635 16.5061C20.5621 16.3112 20.5273 16.2095 20.4033 16.0589C20.1979 15.8584 20.08 15.8282 19.791 15.8304ZM21.9668 16.0042C21.7455 16.0279 21.6037 16.0843 21.415 16.2005C21.3325 16.3657 21.3381 16.4833 21.3564 16.6663C21.4862 16.8318 21.5632 16.8904 21.7637 16.9573C21.8993 16.9631 22.0361 16.9648 22.1719 16.9651C22.2339 16.9654 22.2344 16.9658 22.2979 16.9661C22.438 16.9666 22.5786 16.966 22.7188 16.9661C22.8189 16.9664 22.9194 16.9668 23.0195 16.9671C23.2924 16.9678 23.566 16.9688 23.8389 16.969C24.009 16.9692 24.1794 16.9688 24.3496 16.969C24.8829 16.9698 25.4169 16.9708 25.9502 16.971C26.566 16.9712 27.1821 16.9722 27.7979 16.9739C28.2737 16.9752 28.7498 16.9758 29.2256 16.9759C29.5098 16.9759 29.7949 16.9758 30.0791 16.9768C30.3463 16.9778 30.6137 16.9783 30.8809 16.9778C30.9789 16.9778 31.0777 16.9782 31.1758 16.9788H31.8047C32.026 16.9551 32.1677 16.8987 32.3564 16.7825C32.4391 16.6172 32.4333 16.4997 32.415 16.3167C32.2852 16.151 32.2076 16.0926 32.0068 16.0257C31.8713 16.0199 31.7353 16.0182 31.5996 16.0179C31.5375 16.0176 31.537 16.0171 31.4736 16.0169C31.3335 16.0164 31.1928 16.017 31.0527 16.0169C30.9526 16.0166 30.8521 16.0162 30.752 16.0159C30.4791 16.0151 30.2055 16.0142 29.9326 16.0139C29.7622 16.0138 29.5913 16.0142 29.4209 16.0139C28.8878 16.0132 28.3544 16.0122 27.8213 16.012C27.2056 16.0117 26.5893 16.0108 25.9736 16.0091C25.4979 16.0078 25.0216 16.0072 24.5459 16.0071C24.2617 16.0071 23.9766 16.0062 23.6924 16.0052C23.4252 16.0042 23.1578 16.0046 22.8906 16.0052C22.7926 16.0052 22.6937 16.0048 22.5957 16.0042H21.9668ZM24.5986 9.56961C25.0332 8.89256 26.2276 8.88896 26.877 9.19657C27.1355 9.35526 27.3821 9.54464 27.5459 9.80301C27.6334 9.92499 27.634 9.92514 27.7676 9.94168C27.8145 9.94105 27.8619 9.94038 27.9102 9.93973C27.9622 9.94029 28.0147 9.9411 28.0684 9.94168C28.1769 9.94071 28.286 9.93923 28.3945 9.93778C28.8502 9.94336 29.181 10.0642 29.5137 10.3821C29.5515 10.4369 29.5512 10.4374 29.5898 10.4934C29.6161 10.5299 29.6428 10.5662 29.6699 10.6038C29.903 11.0264 29.8752 11.4539 29.874 11.9231C29.875 11.9988 29.876 12.0746 29.877 12.1526V12.5774C29.8353 12.9404 29.6596 13.1703 29.3896 13.4065C29.2242 13.4616 29.1209 13.4723 28.9492 13.4729C28.8675 13.4734 28.8667 13.4734 28.7832 13.4739C28.7234 13.474 28.6632 13.4748 28.6016 13.4749C28.5073 13.4753 28.5066 13.4744 28.4102 13.4749C28.2011 13.4757 27.9913 13.4765 27.7822 13.4768C27.6372 13.4772 27.4917 13.4775 27.3467 13.4778C27.0812 13.4783 26.8153 13.4786 26.5498 13.4788C26.198 13.479 25.8459 13.4802 25.4941 13.4817C25.1167 13.4833 24.7388 13.4836 24.3613 13.4837C24.2175 13.4839 24.0735 13.4849 23.9297 13.4856C23.7284 13.4866 23.5264 13.486 23.3252 13.4856C23.2657 13.4862 23.2058 13.487 23.1445 13.4876C22.7942 13.4855 22.5757 13.4558 22.3154 13.2034C22.0161 12.8302 22.0443 12.521 22.043 12.0579C22.0424 11.9424 22.0399 11.8267 22.0381 11.7112C22.0361 11.218 22.0502 10.7857 22.3877 10.3948C22.413 10.364 22.4387 10.3328 22.4648 10.3011C22.8443 9.98805 23.1815 9.9496 23.6611 9.95828C24.0604 9.96168 24.0609 9.96188 24.4219 9.81864C24.5209 9.69942 24.5214 9.69885 24.5986 9.56961Z" fill="white"/>
</svg>
