<?xml version="1.0" encoding="utf-8"?>
<!-- Generator: Adobe Illustrator 26.0.2, SVG Export Plug-In . SVG Version: 6.00 Build 0)  -->
<svg version="1.1" id="Layer_1" xmlns="http://www.w3.org/2000/svg" xmlns:xlink="http://www.w3.org/1999/xlink" x="0px" y="0px"
	 viewBox="0 0 216 216" style="enable-background:new 0 0 216 216;" xml:space="preserve">
<style type="text/css">
	.st0{fill-rule:evenodd;clip-rule:evenodd;fill:#FFED00;}
	.st1{fill-rule:evenodd;clip-rule:evenodd;fill:#E31119;}
	.st2{fill-rule:evenodd;clip-rule:evenodd;}
</style>
<rect x="354.7" y="517.2" transform="matrix(-1.836970e-16 1 -1 -1.836970e-16 3201.396 1195.7023)" class="st0" width="1296.3" height="3362.8"/>
<rect x="-603.2" y="1625.7" class="st0" width="3212.1" height="1145.7"/>
<g>
	<rect y="0.1" class="st0" width="216" height="215.7"/>
	<g>
		<g>
			<polygon points="180.4,117.8 208,117.8 206.1,121.4 191.4,121.4 190.4,123.2 205.2,123.2 203.2,127.1 188.3,127.1 187.4,128.9 
				202.3,128.9 200,133.7 172.1,133.7 180.4,117.8 			"/>
			<path d="M160,123.8c0,0,1.3,0.1,1.6-1.3c0.2-1.2-1.2-1.1-1.2-1.1h-8.7l-1.3,2.4H160L160,123.8z M167.4,117.8c1.6,0,6.6-0.3,6.4,4
				c-0.2,4.9-9.2,4.5-9.2,4.5l9.1,7.4h-15.9l-8.6-7.2h-0.4l-3.9,7.2h-12.4l8.4-15.8L167.4,117.8L167.4,117.8z"/>
			<path d="M202.5,151.1v-9.5h0.7h0.7v8.5h2.8v0.5v0.5H202.5L202.5,151.1z M89.1,142.6h-2.2v-0.5v-0.5h5.8v0.5v0.5h-2.2v8.5h-0.7
				h-0.7V142.6L89.1,142.6z M99.8,151.2c-1.1,0-1.8-0.2-2.2-0.7c-0.4-0.5-0.6-1.3-0.6-2.5v-3.5c0-1.1,0.2-1.8,0.6-2.3
				c0.4-0.5,1.1-0.7,2.1-0.7c1,0,1.7,0.2,2.1,0.7c0.4,0.5,0.6,1.3,0.6,2.4v4c0,0.9-0.2,1.6-0.7,2C101.5,151,100.8,151.2,99.8,151.2
				L99.8,151.2z M99.8,150.1c0.5,0,0.9-0.1,1.1-0.4c0.2-0.3,0.3-0.8,0.3-1.4v-4c0-0.7-0.1-1.1-0.3-1.4c-0.2-0.2-0.6-0.4-1.1-0.4
				c-0.5,0-0.9,0.2-1.1,0.5c-0.2,0.3-0.3,0.8-0.3,1.5v3.5c0,0.8,0.1,1.4,0.3,1.7C98.9,149.9,99.2,150.1,99.8,150.1L99.8,150.1z
				 M109.1,142.6h-2.3v-0.5v-0.5h5.8v0.5v0.5h-2.2v8.5h-0.7h-0.7V142.6L109.1,142.6z M118.9,141.5h0.9h0.9l2.2,9.5h-0.7h-0.7
				l-0.5-2.2h-2.6l-0.5,2.2h-0.6h-0.6L118.9,141.5L118.9,141.5z M118.6,147.8h2.2l-1.1-5.1C118.6,147.8,118.6,147.8,118.6,147.8
				L118.6,147.8z M127.2,151.1v-9.5h0.7h0.7v8.5h2.8v0.5v0.5H127.2L127.2,151.1z M147,148v0.3c0,1-0.2,1.8-0.6,2.2
				c-0.4,0.5-1.1,0.7-2,0.7c-0.9,0-1.6-0.2-2-0.6c-0.4-0.4-0.7-1.1-0.7-2v-4.2c0-1,0.2-1.8,0.6-2.2c0.4-0.5,1.1-0.7,2.1-0.7
				c0.9,0,1.6,0.2,2,0.6c0.4,0.4,0.5,0.9,0.5,1.7v0.3v0.3h-1.3V144c0-0.6-0.1-1-0.2-1.2c-0.2-0.2-0.5-0.3-0.9-0.3
				c-0.5,0-0.9,0.1-1.1,0.4c-0.2,0.3-0.3,0.7-0.3,1.2v4.2c0,0.7,0.1,1.1,0.3,1.4c0.2,0.3,0.5,0.4,1,0.4c0.5,0,0.8-0.1,1-0.4
				c0.2-0.3,0.3-0.8,0.3-1.4V148H147L147,148z M154.5,151.2c-1.1,0-1.8-0.2-2.2-0.7c-0.4-0.5-0.6-1.3-0.6-2.5v-3.5
				c0-1.1,0.2-1.8,0.6-2.3c0.4-0.5,1.1-0.7,2.1-0.7c1,0,1.7,0.2,2.1,0.7c0.4,0.5,0.6,1.3,0.6,2.4v4c0,0.9-0.2,1.6-0.6,2
				C156.2,151,155.5,151.2,154.5,151.2L154.5,151.2z M154.5,150.1c0.5,0,0.9-0.1,1.1-0.4c0.2-0.3,0.3-0.8,0.3-1.4v-4
				c0-0.7-0.1-1.1-0.3-1.4c-0.2-0.2-0.6-0.4-1.1-0.4c-0.5,0-0.9,0.2-1.1,0.5c-0.2,0.3-0.3,0.8-0.3,1.5v3.5c0,0.8,0.1,1.4,0.3,1.7
				C153.6,149.9,154,150.1,154.5,150.1L154.5,150.1z M163.2,151.1h-0.6H162v-9.5h1h1.1l2.5,8.2v-8.2h0.6h0.6v9.5h-1h-1l-2.5-8.2
				V151.1L163.2,151.1z M174.3,142.6h-2.2v-0.5v-0.5h5.8v0.5v0.5h-2.2v8.5H175h-0.7V142.6L174.3,142.6z M182.2,141.5h0.7h2.4
				c0.8,0,1.4,0.2,1.8,0.6c0.4,0.4,0.6,0.9,0.6,1.7c0,0.9-0.2,1.5-0.7,1.9c-0.3,0.3-0.7,0.4-1.3,0.5c0.6,0,1,0.2,1.2,0.4
				c0.3,0.3,0.4,0.8,0.4,1.6c0,0.6,0,1,0.1,1.4l0,0.2l0.1,0.6c0,0.2,0.1,0.4,0.1,0.5h-0.7h-0.7l-0.1-0.7l-0.1-0.4l0-0.2
				c0-0.4-0.1-0.8-0.1-1.3c0-0.6-0.1-1.1-0.4-1.3c-0.2-0.3-0.6-0.4-1.1-0.4h-1c0,4.3,0,4.3,0,4.3h-0.7h-0.7V141.5L182.2,141.5z
				 M183.6,145.7h1.1c0.7,0,1.1-0.1,1.4-0.4c0.2-0.2,0.4-0.7,0.4-1.3c0-0.6-0.1-0.9-0.4-1.1c-0.3-0.2-0.7-0.3-1.4-0.3h-1.1V145.7
				L183.6,145.7z M195,151.2c-1.1,0-1.8-0.2-2.2-0.7c-0.4-0.5-0.6-1.3-0.6-2.5v-3.5c0-1.1,0.2-1.8,0.6-2.3c0.4-0.5,1.1-0.7,2.1-0.7
				c1,0,1.7,0.2,2.1,0.7c0.4,0.5,0.6,1.3,0.6,2.4v4c0,0.9-0.2,1.6-0.6,2C196.7,151,196,151.2,195,151.2L195,151.2z M195,150.1
				c0.5,0,0.9-0.1,1.1-0.4c0.2-0.3,0.3-0.8,0.3-1.4v-4c0-0.7-0.1-1.1-0.3-1.4c-0.2-0.2-0.6-0.4-1.1-0.4c-0.5,0-0.9,0.2-1.1,0.5
				c-0.2,0.3-0.3,0.8-0.3,1.5v3.5c0,0.8,0.1,1.4,0.3,1.7C194.1,149.9,194.4,150.1,195,150.1L195,150.1z"/>
			<polygon points="43,110.7 54.7,110.7 51.4,117.9 44.2,121.8 47.4,124.8 42.8,133.7 30.8,133.7 43,110.7 			"/>
			<path d="M28.7,110.7h11.6l-7.9,15c-2.4,4.2-5.4,7.3-11.4,7.9H8.2l3.4-7h5.2c3,0,4.8-2.3,6.7-5.8L28.7,110.7L28.7,110.7z"/>
			<polygon points="85,110.7 72.8,117.8 79.5,117.8 76,125.2 64.9,125.2 74.6,133.7 59.3,133.7 46.1,122 67.3,110.7 85,110.7 			"/>
			<polygon points="81.4,117.8 77.8,125.2 84.5,125.2 80.3,133.6 91.8,133.6 96,125.2 103.1,125.2 107,117.8 81.4,117.8 			"/>
			<polygon points="131.7,117.8 140.5,117.8 124.7,127.7 121.8,133.6 110.3,133.6 113.3,127.2 107.3,117.8 119.7,117.8 122.9,123.4 
				131.7,117.8 			"/>
		</g>
		<g>
			<polygon class="st1" points="89.5,84.4 86.3,88.5 101.3,88.5 120.7,66.5 114.3,66.5 98.4,84.4 89.5,84.4 			"/>
			<polygon class="st2" points="132.8,110.1 111,87 132.8,62.4 137.2,62.4 115.5,87 137.2,110.1 132.8,110.1 			"/>
			<polygon class="st2" points="139.3,110.1 117.6,87 139.3,62.4 143.8,62.4 122.1,87 143.8,110.1 139.3,110.1 			"/>
			<path class="st2" d="M87.8,80.3L76.2,93.4h20.5l15.6,16.7h17.9L108.6,87l21.7-24.6H112L96,80.3H87.8L87.8,80.3z M89.5,84.4
				l-3.2,4.1h15l19.4-22h-6.4l-16,17.9H89.5L89.5,84.4z"/>
		</g>
	</g>
</g>
</svg>
