<svg width="48" height="48" viewBox="0 0 48 48" fill="none" xmlns="http://www.w3.org/2000/svg">
<rect width="48" height="48" rx="8" fill="#3CB085"/>
<path d="M38.25 29.25C38.67 29.25 39 29.58 39 30V31.5C39 33.99 36.99 36 34.5 36C34.5 33.525 32.475 31.5 30 31.5C27.525 31.5 25.5 33.525 25.5 36H22.5C22.5 33.525 20.475 31.5 18 31.5C15.525 31.5 13.5 33.525 13.5 36C11.01 36 9 33.99 9 31.5V28.5C9 27.675 9.675 27 10.5 27H24.75C26.82 27 28.5 25.32 28.5 23.25V15C28.5 14.175 29.175 13.5 30 13.5H31.26C32.34 13.5 33.33 14.085 33.87 15.015L34.83 16.695C34.965 16.935 34.785 17.25 34.5 17.25C32.43 17.25 30.75 18.93 30.75 21V25.5C30.75 27.57 32.43 29.25 34.5 29.25H38.25Z" fill="white"/>
<path d="M18 39C19.6569 39 21 37.6569 21 36C21 34.3431 19.6569 33 18 33C16.3431 33 15 34.3431 15 36C15 37.6569 16.3431 39 18 39Z" fill="white"/>
<path d="M30 39C31.6569 39 33 37.6569 33 36C33 34.3431 31.6569 33 30 33C28.3431 33 27 34.3431 27 36C27 37.6569 28.3431 39 30 39Z" fill="white"/>
<path d="M39 24.795V27H34.5C33.675 27 33 26.325 33 25.5V21C33 20.175 33.675 19.5 34.5 19.5H36.435L38.61 23.31C38.865 23.76 39 24.27 39 24.795Z" fill="white"/>
<path d="M25.62 9H14.535C11.475 9 9 11.475 9 14.535V24.105C9 24.93 9.675 25.605 10.5 25.605H24.225C25.755 25.605 27 24.36 27 22.83V10.38C27 9.615 26.385 9 25.62 9ZM21.105 16.605L17.97 19.635C17.745 19.845 17.46 19.95 17.19 19.95C16.905 19.95 16.62 19.845 16.41 19.635L14.895 18.195C14.445 17.76 14.43 17.04 14.865 16.59C15.285 16.14 16.005 16.14 16.455 16.56L17.19 17.265L19.545 14.985C19.995 14.55 20.7 14.565 21.135 15.015C21.57 15.465 21.555 16.17 21.105 16.605Z" fill="white"/>
</svg>
