<svg width="48" height="48" viewBox="0 0 48 48" fill="none" xmlns="http://www.w3.org/2000/svg">
<path d="M0 8C0 3.58172 3.58172 0 8 0H40C44.4183 0 48 3.58172 48 8V40C48 44.4183 44.4183 48 40 48H8C3.58172 48 0 44.4183 0 40V8Z" fill="#11A4BB"/>
<path d="M26.2275 9.99805C26.3278 9.99805 26.8454 10.1927 27.4941 10.4775C28.1002 10.7411 28.6166 10.9626 28.6436 10.9629C28.6752 10.9629 29.1973 10.7416 29.8037 10.4727C31.0169 9.93992 31.1755 9.91343 31.5078 10.1455C31.8294 10.3775 31.835 10.4094 31.835 12.7031V14.7812L31.3281 14.8184C27.7257 15.0716 24.8146 17.6617 24.1553 21.2061C24.0181 21.934 24.0181 23.2213 24.1553 23.9492C24.8147 27.4935 27.7258 30.0837 31.3281 30.3369L31.835 30.373L31.8242 33.4375L31.8086 36.5029L31.6924 36.666C31.4339 37.03 32.2672 37.0039 21.4229 37.0039C11.7128 37.0039 11.6276 37.0039 11.4219 36.8984C11.2848 36.8299 11.1741 36.719 11.1055 36.582C11 36.3763 11 36.3021 11 23.4902V10.6045L11.1211 10.3984C11.1844 10.2877 11.3217 10.1504 11.4219 10.0977C11.5219 10.0397 11.6853 9.99817 11.7803 9.99805C11.891 9.99805 12.3924 10.1876 13.0781 10.4883L14.2021 10.9785L15.3037 10.4932C15.9578 10.2031 16.4804 10.0029 16.5859 10.0029C16.7021 9.99774 17.1555 10.1668 17.8516 10.4727C18.4506 10.7301 18.9713 10.9456 19.0117 10.9473C19.0539 10.9473 19.5505 10.7415 20.1201 10.4883C21.4702 9.88706 21.3646 9.88702 22.7148 10.4883C23.2845 10.7415 23.7859 10.9473 23.8281 10.9473C23.872 10.9465 24.3884 10.7359 24.9834 10.4727C25.5998 10.204 26.1318 9.99847 26.2275 9.99805ZM25.416 32.2568C23.6332 32.2568 23.6325 32.2562 23.4268 32.3828C22.8994 32.6993 22.9049 33.422 23.4375 33.7227C23.6432 33.8387 23.6803 33.8389 25.4209 33.8389C27.0981 33.8389 27.2091 33.8336 27.4043 33.7334C27.6415 33.6121 27.8261 33.3115 27.8262 33.0479C27.8262 32.7842 27.6415 32.4837 27.4043 32.3623C27.2092 32.2621 27.0982 32.2568 25.416 32.2568ZM19.1914 28.6699C17.4095 28.6699 17.4086 28.6695 17.2031 28.7959C16.6757 29.1124 16.6811 29.8351 17.2139 30.1357C17.4195 30.2517 17.457 30.252 19.1973 30.252C20.8735 30.252 20.9847 30.2466 21.1797 30.1465C21.417 30.0252 21.6015 29.7247 21.6016 29.4609C21.6016 29.1972 21.417 28.8967 21.1797 28.7754C20.9846 28.6753 20.8734 28.6699 19.1914 28.6699ZM14.7979 28.7695C14.5236 28.6219 13.9854 28.6325 13.7217 28.7959C13.1889 29.1176 13.1999 29.8357 13.7432 30.1416C13.9275 30.2469 14.0172 30.2623 14.3438 30.2412C14.6654 30.2254 14.7608 30.1994 14.9189 30.0781C15.1404 29.9094 15.2462 29.6404 15.2041 29.3398C15.1672 29.0814 15.0405 28.8961 14.7979 28.7695ZM30.8193 16.4639C33.8257 15.9945 36.7159 17.7566 37.6865 20.6416C38.8891 24.2336 36.4997 28.1319 32.7441 28.6963C28.6196 29.3184 25.0651 25.7633 25.6875 21.6387C26.0831 19.0225 28.219 16.8647 30.8193 16.4639ZM14.7979 25.6055C14.5236 25.4578 13.9854 25.4683 13.7217 25.6318C13.1892 25.9536 13.2047 26.7077 13.7529 26.9873C14.0747 27.1508 14.6552 27.1188 14.9189 26.9131C15.1405 26.7443 15.2463 26.4754 15.2041 26.1748C15.1672 25.9164 15.0404 25.7321 14.7979 25.6055ZM19.1914 25.5049C17.4087 25.5049 17.4088 25.5052 17.2031 25.6318C16.6759 25.9482 16.6861 26.707 17.2236 26.9814C17.4188 27.0817 17.5301 27.0869 19.2021 27.0869C20.8738 27.0869 20.9846 27.0816 21.1797 26.9814C21.417 26.8601 21.6016 26.5596 21.6016 26.2959C21.6015 26.0322 21.417 25.7316 21.1797 25.6104C20.9847 25.5103 20.8731 25.5049 19.1914 25.5049ZM33.4092 19.9609C33.1349 19.7659 32.6813 19.8138 32.4492 20.0615C32.3332 20.1828 30.1665 23.8889 29.8701 24.4707C29.5853 25.0245 30.028 25.6685 30.6504 25.5947C30.7717 25.5842 30.941 25.5262 31.0254 25.4629C31.1209 25.3931 31.6164 24.5911 32.4648 23.126C33.6938 20.9951 33.7568 20.879 33.7568 20.6152C33.7568 20.3253 33.657 20.135 33.4092 19.9609ZM34.1787 23.7119C33.8307 23.5433 33.5144 23.6065 33.2666 23.8965C33.0505 24.1391 33.008 24.3869 33.124 24.6875C33.2348 24.9934 33.4566 25.1461 33.8047 25.1777C34.0208 25.1936 34.1103 25.1724 34.2578 25.0723C34.7694 24.7294 34.7273 23.9756 34.1787 23.7119ZM14.7979 22.4404C14.5236 22.2927 13.9854 22.3033 13.7217 22.4668C13.1891 22.7885 13.2048 23.5426 13.7529 23.8223C14.0747 23.9858 14.6552 23.9538 14.9189 23.748C15.1404 23.5793 15.2463 23.3104 15.2041 23.0098C15.1671 22.7515 15.0403 22.567 14.7979 22.4404ZM19.1914 22.3398C17.4089 22.3398 17.4087 22.3403 17.2031 22.4668C16.6757 22.7832 16.6858 23.543 17.2236 23.8174C17.4188 23.9176 17.5301 23.9229 19.2021 23.9229C20.873 23.9229 20.9848 23.9174 21.1797 23.8174C21.4169 23.6961 21.6013 23.3955 21.6016 23.1318C21.6016 22.8681 21.417 22.5666 21.1797 22.4453C20.9848 22.3453 20.8728 22.3398 19.1914 22.3398ZM30.3076 20.0879C29.8065 19.7504 29.0889 20.1411 29.0889 20.7529C29.0891 21.2063 29.548 21.5961 29.9961 21.5225C30.2915 21.4697 30.5924 21.1794 30.6504 20.8945C30.6976 20.615 30.5448 20.246 30.3076 20.0879ZM13.9277 17.3818L13.7217 17.5088C13.1943 17.8253 13.1997 18.548 13.7324 18.8486L13.9434 18.9648H18.168C22.3033 18.9648 22.4041 18.9649 22.6045 18.8594C22.8418 18.738 23.0264 18.4366 23.0264 18.1729C23.0262 17.9093 22.8417 17.6086 22.6045 17.4873C22.4041 17.3818 22.3035 17.3818 18.1631 17.3818H13.9277ZM13.7217 14.3438C13.1942 14.6602 13.1997 15.3829 13.7324 15.6836L13.9434 15.7998L19.5078 15.7891C25.0356 15.7732 25.0783 15.7729 25.2207 15.6621C25.484 15.4671 25.579 15.2933 25.5791 15.0088C25.5791 14.724 25.4842 14.5496 25.2207 14.3545C25.0783 14.2437 25.041 14.2434 19.5029 14.2275L13.9277 14.2168L13.7217 14.3438Z" fill="white"/>
</svg>
