<svg width="48" height="48" viewBox="0 0 48 48" fill="none" xmlns="http://www.w3.org/2000/svg">
<rect width="48" height="48" rx="8" fill="#7C4991"/>
<path d="M36.4306 25.6155C36.434 25.612 36.4375 25.6085 36.441 25.6055C36.8015 25.2441 37 24.7644 37 24.2544V23.5667C37 23.327 36.8063 23.1334 36.5667 23.1334H35.3503L27.3614 19.9375C27.1408 19.8487 26.8869 19.9561 26.798 20.1793C26.7092 20.4012 26.8175 20.6534 27.0399 20.7422L33.0164 23.1334H15.1509L22.5995 20.3748C22.9825 20.988 23.6585 21.4001 24.4334 21.4001C25.628 21.4001 26.6001 20.4281 26.6001 19.2334C26.6001 18.1869 25.8543 17.3116 24.8667 17.1105V16.5896C25.8543 16.3881 26.6001 15.5128 26.6001 14.4667V11.4333C26.6001 11.1937 26.4064 11 26.1667 11C25.9271 11 25.7334 11.1937 25.7334 11.4333V12.7446C25.3703 12.4694 24.9231 12.3 24.4334 12.3C23.9437 12.3 23.4966 12.4695 23.1334 12.7446V11.4333C23.1334 11.1937 22.9397 11 22.7001 11C22.4605 11 22.2668 11.1937 22.2668 11.4333V14.4666C22.2668 15.5127 23.0126 16.388 24.0001 16.5895V17.5C24.0001 17.7396 24.1938 17.9333 24.4334 17.9333C25.1501 17.9333 25.7334 18.5166 25.7334 19.2333C25.7334 19.95 25.1501 20.5333 24.4334 20.5333C24.0335 20.5333 23.6794 20.3479 23.4411 20.0627L24.4274 19.6979L24.7073 19.8097C24.7598 19.8309 24.8144 19.8405 24.8681 19.8405C25.0397 19.8405 25.2022 19.7378 25.2706 19.5679C25.3595 19.3461 25.2516 19.0939 25.0288 19.005L24.5942 18.8308C24.5747 18.823 24.5543 18.8248 24.5344 18.82C24.5027 18.8122 24.4724 18.8027 24.4395 18.8022C24.4061 18.8018 24.3753 18.8105 24.3433 18.8174C24.3233 18.8217 24.303 18.8196 24.2826 18.827L23.1351 19.2521C23.1351 19.2456 23.1334 19.2399 23.1334 19.2334C23.1334 18.9938 22.9397 18.8001 22.7001 18.8001C22.4605 18.8001 22.2668 18.9938 22.2668 19.2334C22.2668 19.3456 22.2832 19.4536 22.3001 19.5615L12.6559 23.1334H11.4333C11.1937 23.1334 11 23.3271 11 23.5667V24.2553C11 24.7588 11.2045 25.2515 11.5603 25.6073C11.7579 25.804 11.8667 26.0666 11.8667 26.3457V33.7882C11.8667 34.0586 11.7584 34.3238 11.569 34.5175C11.566 34.521 11.5625 34.5245 11.5591 34.5275C11.1985 34.8888 11 35.3685 11 35.8785V36.5667C11 36.8063 11.1937 37 11.4333 37H36.5666C36.8063 37 36.9999 36.8063 36.9999 36.5667V35.8794C36.9999 35.3776 36.7967 34.8858 36.4384 34.527C36.2447 34.332 36.1333 34.0633 36.1333 33.789V26.3452C36.1333 26.0705 36.2386 25.8118 36.4306 25.6155ZM15.3333 34.4C15.3333 34.6396 15.1396 34.8333 14.9 34.8333C14.6604 34.8333 14.4667 34.6396 14.4667 34.4V25.7333C14.4667 25.4937 14.6604 25.3 14.9 25.3C15.1396 25.3 15.3333 25.4937 15.3333 25.7333V34.4ZM17.9333 34.4C17.9333 34.6396 17.7396 34.8333 17.5 34.8333C17.2604 34.8333 17.0667 34.6396 17.0667 34.4V25.7333C17.0667 25.4937 17.2604 25.3 17.5 25.3C17.7396 25.3 17.9333 25.4937 17.9333 25.7333V34.4ZM20.5333 34.4C20.5333 34.6396 20.3396 34.8333 20.1 34.8333C19.8604 34.8333 19.6667 34.6396 19.6667 34.4V25.7333C19.6667 25.4937 19.8604 25.3 20.1 25.3C20.3396 25.3 20.5333 25.4937 20.5333 25.7333V34.4ZM23.1333 34.4C23.1333 34.6396 22.9396 34.8333 22.7 34.8333C22.4604 34.8333 22.2667 34.6396 22.2667 34.4V25.7333C22.2667 25.4937 22.4604 25.3 22.7 25.3C22.9396 25.3 23.1333 25.4937 23.1333 25.7333V34.4ZM25.7333 34.4C25.7333 34.6396 25.5396 34.8333 25.3 34.8333C25.0604 34.8333 24.8667 34.6396 24.8667 34.4V25.7333C24.8667 25.4937 25.0604 25.3 25.3 25.3C25.5396 25.3 25.7333 25.4937 25.7333 25.7333V34.4ZM28.3333 34.4C28.3333 34.6396 28.1396 34.8333 27.9 34.8333C27.6604 34.8333 27.4667 34.6396 27.4667 34.4V25.7333C27.4667 25.4937 27.6604 25.3 27.9 25.3C28.1396 25.3 28.3333 25.4937 28.3333 25.7333V34.4ZM30.9333 34.4C30.9333 34.6396 30.7396 34.8333 30.5 34.8333C30.2604 34.8333 30.0667 34.6396 30.0667 34.4V25.7333C30.0667 25.4937 30.2604 25.3 30.5 25.3C30.7396 25.3 30.9333 25.4937 30.9333 25.7333V34.4ZM33.5333 34.4C33.5333 34.6396 33.3396 34.8333 33.1 34.8333C32.8604 34.8333 32.6667 34.6396 32.6667 34.4V25.7333C32.6667 25.4937 32.8604 25.3 33.1 25.3C33.3396 25.3 33.5333 25.4937 33.5333 25.7333V34.4Z" fill="white"/>
</svg>
