<svg width="48" height="48" viewBox="0 0 48 48" fill="none" xmlns="http://www.w3.org/2000/svg">
<rect width="48" height="48" rx="8" fill="#E68F40"/>
<path d="M22.7012 11C23.419 11.0002 24.0008 11.582 24.001 12.2998C24.001 13.0177 23.4191 13.6004 22.7012 13.6006H13.6006V34.4014H34.4014V25.3008C34.4015 24.5829 34.9842 24.001 35.7021 24.001C36.4199 24.0011 37.0018 24.583 37.002 25.3008V34.4014C37.0019 35.091 36.7279 35.7526 36.2402 36.2402C35.7526 36.7279 35.091 37.0019 34.4014 37.002H13.6006C12.911 37.0019 12.2493 36.7279 11.7617 36.2402C11.2741 35.7526 11 35.091 11 34.4014V13.6006C11 12.911 11.2741 12.2493 11.7617 11.7617C12.2493 11.2741 12.911 11 13.6006 11H22.7012ZM35.7021 11C35.7455 11 35.7889 11.0015 35.832 11.0059C35.837 11.0064 35.8418 11.0082 35.8467 11.0088C35.8846 11.013 35.9225 11.0178 35.96 11.0254C35.9682 11.0271 35.9762 11.0294 35.9844 11.0312C36.0169 11.0385 36.0491 11.0469 36.0811 11.0566C36.0916 11.0599 36.1019 11.0639 36.1123 11.0674C36.2981 11.1291 36.4732 11.233 36.6211 11.3809C36.6664 11.4262 36.7059 11.4755 36.7432 11.5254C36.7562 11.5429 36.77 11.5599 36.7822 11.5781C36.9321 11.8018 37.005 12.0613 37.001 12.3203V20.0996C37.001 20.8175 36.419 21.4002 35.7012 21.4004C34.9832 21.4004 34.4014 20.8176 34.4014 20.0996V15.4395L23.6201 26.2207C23.1124 26.7283 22.2889 26.7283 21.7812 26.2207C21.2736 25.713 21.2736 24.8896 21.7812 24.3818L32.5635 13.5996H27.9014C27.1834 13.5996 26.6006 13.0178 26.6006 12.2998C26.6007 11.5819 27.1835 11 27.9014 11H35.7021Z" fill="white"/>
</svg>
