<svg width="48" height="48" viewBox="0 0 48 48" fill="none" xmlns="http://www.w3.org/2000/svg">
<rect width="48" height="48" rx="8" fill="#E68F40"/>
<path d="M17.5918 10.2764C22.5375 8.02438 28.6422 8.78873 32.8232 12.2812C32.8585 12.3104 32.8943 12.3392 32.9307 12.3691C33.6204 12.9396 34.2654 13.5401 34.8213 14.2441C34.9082 14.3538 34.9975 14.4624 35.0889 14.5684C35.5171 15.0711 35.5167 15.0712 35.4951 15.4385C35.4134 15.6174 35.3683 15.7143 35.1914 15.8027C34.9912 15.8414 34.897 15.8578 34.7061 15.8027C34.4463 15.5861 34.2507 15.3126 34.0439 15.0469C33.2938 14.0992 32.4135 13.2791 31.4268 12.584C31.3897 12.5573 31.3527 12.5305 31.3145 12.5029C28.5278 10.5029 24.8992 9.7127 21.5225 10.2461C18.9157 10.6969 16.5545 11.7708 14.5752 13.5361C14.4927 13.6094 14.4089 13.6811 14.3252 13.7529C14.0259 14.0113 13.7665 14.2853 13.5127 14.5879C13.4378 14.673 13.4378 14.6739 13.3613 14.7607C11.4323 16.9642 10.1163 19.9631 10.0996 22.9141C10.0992 22.9651 10.0991 23.0167 10.0986 23.0693C10.0833 24.6069 10.0838 24.607 10.2949 26.126C10.3066 26.1836 10.318 26.2414 10.3301 26.3008C11.0709 29.9015 13.1948 32.9746 16.252 34.9961C16.4495 35.1209 16.6499 35.2402 16.8525 35.3564C16.8933 35.3799 16.9346 35.4035 16.9766 35.4277C18.1012 36.0677 19.3041 36.4987 20.5566 36.8135C20.5173 36.7572 20.478 36.7006 20.4375 36.6426C20.3862 36.5668 20.3353 36.4908 20.2842 36.415C20.2452 36.3597 20.2447 36.3599 20.2051 36.3037C20.0311 36.0427 19.9693 35.8616 20.0107 35.5391C20.1577 35.3359 20.2457 35.2498 20.4922 35.1973C20.846 35.2695 21.0633 35.5427 21.2598 35.8311C21.2831 35.8666 21.307 35.9018 21.3311 35.9385C21.3561 35.9761 21.3814 36.014 21.4072 36.0527C21.4596 36.1318 21.5117 36.2116 21.5635 36.291C21.6426 36.4118 21.7238 36.5317 21.8047 36.6514C21.8556 36.7287 21.9063 36.8064 21.957 36.8838C21.9811 36.9191 22.0055 36.9548 22.0303 36.9912C22.1917 37.2435 22.2453 37.4277 22.1963 37.7246C22.0022 37.9775 21.7612 38.1164 21.4795 38.2549C21.4211 38.2843 21.421 38.2844 21.3613 38.3145C21.2794 38.3555 21.1975 38.397 21.1152 38.4375C20.9902 38.4992 20.8655 38.5619 20.7412 38.625L20.3896 38.8008C20.1428 38.9209 19.9204 38.9815 19.6465 39C19.4675 38.9183 19.3707 38.8732 19.2822 38.6963C19.2339 38.2751 19.2334 38.275 19.3545 38.1133C19.5167 37.9735 19.674 37.8706 19.8887 37.8457V37.7246C19.8518 37.7181 19.8144 37.7118 19.7764 37.7051C19.4039 37.6356 19.0536 37.5382 18.6973 37.4102C18.6184 37.382 18.6186 37.3812 18.5381 37.3525C16.7592 36.7083 15.1579 35.7265 13.7666 34.4443C13.6506 34.3383 13.5315 34.2375 13.4102 34.1377C13.2197 33.9756 13.059 33.796 12.8975 33.6055C12.7787 33.467 12.6546 33.3347 12.5303 33.2012C11.6008 32.1646 10.8812 30.968 10.2949 29.709C10.2487 29.6111 10.2484 29.6106 10.2012 29.5107C9.3632 27.651 8.99212 25.6893 9 23.6592C9.00011 23.6002 9.00086 23.5412 9.00098 23.4805C9.00366 22.6295 9.02695 21.8005 9.20117 20.9648C9.21679 20.8847 9.2175 20.8844 9.2334 20.8027C9.64112 18.7284 10.4854 16.7121 11.752 15.0137C11.7927 14.9587 11.7925 14.9582 11.834 14.9023C12.2389 14.3617 12.6805 13.8606 13.1484 13.374C13.1912 13.3293 13.1917 13.3289 13.2354 13.2832C13.6271 12.8751 14.0365 12.5046 14.4844 12.1592C14.5175 12.1336 14.5509 12.1084 14.585 12.082C15.4791 11.3949 16.4352 10.8091 17.46 10.3379C17.5253 10.3078 17.5252 10.3071 17.5918 10.2764ZM30.6504 26.6553C30.9249 26.5447 31.1321 26.503 31.4316 26.5869C31.5729 26.6379 31.7117 26.6937 31.8506 26.751C31.9011 26.7712 31.9519 26.7907 32.0039 26.8115C32.1644 26.8758 32.3243 26.9415 32.4844 27.0068C32.5936 27.0508 32.7032 27.0949 32.8125 27.1387C33.0792 27.2458 33.3461 27.3534 33.6123 27.4619C33.4803 27.609 33.3666 27.6826 33.1826 27.7529C33.1327 27.7723 33.0827 27.7916 33.0312 27.8115C32.9766 27.8321 32.9216 27.8528 32.8652 27.874C32.8076 27.8962 32.7498 27.9185 32.6904 27.9414C32.4993 28.0149 32.3076 28.0873 32.1162 28.1602C31.9827 28.2114 31.8493 28.2632 31.7158 28.3145C31.4369 28.4216 31.158 28.5289 30.8789 28.6357C30.4655 28.7941 30.0523 28.9539 29.6396 29.1143C29.5739 29.1398 29.5081 29.1651 29.4404 29.1914C29.3103 29.242 29.1799 29.2922 29.0498 29.3428C28.5829 29.5243 28.1158 29.7063 27.6484 29.8867C27.5313 29.932 27.414 29.9771 27.2969 30.0225C27.1188 30.0913 26.94 30.16 26.7617 30.2285C26.7074 30.2496 26.6527 30.2703 26.5967 30.292C26.5468 30.3111 26.4967 30.3309 26.4453 30.3506C26.4015 30.3675 26.3576 30.384 26.3125 30.4014C26.2036 30.4375 26.2033 30.4375 26.082 30.4375C26.1121 31.6399 26.1119 31.6405 26.1426 32.8672C26.4832 32.767 26.8239 32.6667 27.1748 32.5635C27.4069 32.6215 27.4655 32.6474 27.6318 32.7979C27.6711 32.8327 27.7106 32.8684 27.751 32.9043C27.7912 32.9408 27.8316 32.977 27.873 33.0146C27.9531 33.0869 28.0338 33.1587 28.1143 33.2305C28.1496 33.2625 28.1853 33.2951 28.2217 33.3281C28.3438 33.4311 28.3437 33.4318 28.5713 33.5352V31.4092C29.1178 31.1359 29.1179 31.1357 29.3906 31.0312C29.4518 31.0077 29.5131 30.9843 29.5762 30.96C29.6414 30.9351 29.7072 30.9104 29.7744 30.8848C29.8439 30.8581 29.9138 30.8312 29.9854 30.8037C30.1724 30.7318 30.3597 30.6605 30.5469 30.5889C30.7418 30.5142 30.937 30.4392 31.1318 30.3643C31.1706 30.3494 31.2091 30.3337 31.249 30.3184C31.3277 30.2881 31.4067 30.2578 31.4854 30.2275C31.6035 30.1821 31.7217 30.1372 31.8398 30.0918C32.535 29.8247 33.2292 29.5551 33.9229 29.2842C33.9724 29.2649 34.0222 29.2455 34.0732 29.2256C34.1687 29.1884 34.264 29.1506 34.3594 29.1133C34.449 29.0783 34.5391 29.0435 34.6289 29.0088C34.8408 28.9264 35.0508 28.8418 35.2588 28.75C35.9893 28.4307 36.3534 28.4942 37.083 28.7734C37.1731 28.8088 37.2636 28.8451 37.3535 28.8809C37.4913 28.9354 37.6301 28.9874 37.7686 29.04C37.8568 29.0746 37.9451 29.1097 38.0332 29.1445C38.0946 29.1676 38.0947 29.1679 38.1572 29.1914C38.4229 29.2994 38.5361 29.3875 38.6523 29.6484C38.6786 29.8367 38.6777 30.0231 38.6768 30.2129C38.6772 30.2692 38.6773 30.3258 38.6777 30.3838C38.6788 30.5699 38.6791 30.7563 38.6787 30.9424C38.679 31.0719 38.6793 31.2015 38.6797 31.3311C38.6802 31.6024 38.6793 31.8741 38.6787 32.1455C38.678 32.4932 38.6799 32.8408 38.6816 33.1885C38.6828 33.4559 38.683 33.7238 38.6826 33.9912C38.6826 34.1193 38.6828 34.2479 38.6836 34.376C38.6845 34.555 38.6837 34.734 38.6826 34.9131C38.6835 34.9924 38.6837 34.9926 38.6846 35.0732C38.6816 35.3153 38.6715 35.447 38.5439 35.6582C38.4184 35.7739 38.3297 35.8384 38.1719 35.8984C38.1256 35.9165 38.0789 35.9345 38.0312 35.9531C37.981 35.9718 37.9307 35.9906 37.8789 36.0098C37.8254 36.0304 37.7719 36.051 37.7168 36.0723C37.5394 36.1406 37.3615 36.2083 37.1836 36.2754C37.0589 36.3231 36.9342 36.371 36.8096 36.4189C36.547 36.5199 36.2834 36.6196 36.0205 36.7197C35.4227 36.9476 34.8268 37.1803 34.2305 37.4121C34.0469 37.4834 33.8633 37.5549 33.6797 37.626C33.6215 37.6485 33.5629 37.6701 33.5029 37.6934C33.3881 37.7378 33.2732 37.783 33.1582 37.8271C32.8566 37.9434 32.5565 38.0621 32.2578 38.1855C32.1948 38.2112 32.1313 38.2372 32.0664 38.2637C31.946 38.3128 31.8258 38.3632 31.7061 38.4141C31.1911 38.6227 30.8567 38.5449 30.3467 38.3428C30.3016 38.3253 30.2564 38.308 30.21 38.29C30.0611 38.2323 29.9123 38.1736 29.7637 38.1152C29.6581 38.0742 29.5518 38.0332 29.4463 37.9922C29.1694 37.8845 28.8928 37.7763 28.6162 37.668C28.3501 37.5638 28.0837 37.4602 27.8174 37.3564C27.5065 37.2353 27.1954 37.1139 26.8848 36.9922C26.3654 36.7888 25.8453 36.5869 25.3242 36.3877C25.1726 36.3295 25.0208 36.2711 24.8691 36.2129C24.7729 36.176 24.6765 36.139 24.5801 36.1025C24.4476 36.0524 24.3148 36.0021 24.1826 35.9512C24.1079 35.9227 24.033 35.8946 23.9561 35.8652C23.792 35.7901 23.699 35.7417 23.5918 35.5996C23.511 35.3571 23.5223 35.1239 23.5225 34.8711C23.5223 34.8152 23.5217 34.7588 23.5215 34.7012C23.5209 34.5163 23.5215 34.3314 23.5215 34.1465C23.5213 34.0181 23.5207 33.8892 23.5205 33.7607C23.5201 33.4913 23.5205 33.2216 23.5205 32.9521C23.5205 32.6066 23.5196 32.2606 23.5186 31.915C23.5179 31.6497 23.5175 31.3844 23.5176 31.1191C23.5175 30.9917 23.5171 30.8638 23.5166 30.7363C23.516 30.5584 23.5162 30.3801 23.5166 30.2021C23.5163 30.1496 23.516 30.0971 23.5156 30.043C23.5159 29.9944 23.5163 29.9455 23.5166 29.8955C23.5166 29.8534 23.5166 29.8109 23.5166 29.7676C23.5351 29.6218 23.5733 29.5287 23.6533 29.4053C23.8195 29.3197 23.9781 29.2485 24.1514 29.1807C24.2025 29.1599 24.2539 29.1395 24.3066 29.1182C24.4728 29.0511 24.6398 28.9853 24.8066 28.9199C24.8604 28.8987 24.9143 28.8774 24.9697 28.8555C25.3725 28.6964 25.7766 28.5404 26.1807 28.3848C26.3089 28.3352 26.4372 28.2849 26.5654 28.2354C26.8329 28.1319 27.1006 28.029 27.3682 27.9258C27.9952 27.6837 28.6223 27.4411 29.249 27.1982C29.4459 27.1219 29.6429 27.0449 29.8398 26.9688C29.9596 26.9224 30.0795 26.8765 30.1992 26.8301C30.2542 26.8088 30.3096 26.7875 30.3662 26.7656C30.4162 26.7462 30.4661 26.726 30.5176 26.7061C30.5612 26.6892 30.6055 26.6727 30.6504 26.6553ZM22.6201 34.6885C21.1399 34.195 20.2086 32.8746 19.5234 31.5312C18.9773 30.376 18.9766 30.3749 18.9766 30.1348H22.6201V34.6885ZM18.3623 30.9365C18.8732 32.1156 19.4382 33.2067 20.333 34.1426C20.437 34.2632 20.4375 34.2636 20.498 34.4453C18.7874 34.0573 17.2049 33.093 15.9443 31.8955C15.8612 31.8243 15.7772 31.753 15.6934 31.6826C15.2002 31.2518 14.7881 30.7392 14.4258 30.1953V30.1348H18.0088C18.2514 30.6805 18.2517 30.6808 18.3623 30.9365ZM17.1562 25.9443C17.2701 26.8237 17.4072 27.6832 17.6074 28.5459C17.6199 28.5996 17.6327 28.6536 17.6455 28.709C17.6567 28.7557 17.6672 28.8025 17.6787 28.8506C17.7027 28.9803 17.7031 28.9807 17.7031 29.2236C17.2029 29.2377 16.7025 29.2483 16.2021 29.2549C15.9698 29.258 15.7371 29.2617 15.5049 29.2686C15.2804 29.2752 15.0556 29.2797 14.8311 29.2812C14.7458 29.2824 14.6604 29.2838 14.5752 29.2871C14.312 29.2968 14.0703 29.2975 13.8164 29.2236C13.6341 29.0433 13.5444 28.853 13.4521 28.6162C13.4095 28.5264 13.3666 28.4362 13.3232 28.3467C13.2846 28.2571 13.2462 28.1673 13.209 28.0771C13.1886 28.0279 13.1684 27.9785 13.1475 27.9277C12.8269 27.1336 12.6033 26.3322 12.458 25.4883C12.4428 25.4005 12.4423 25.4003 12.4268 25.3105C12.3587 24.8807 12.3594 24.5074 12.3594 24.0615H17.0352C17.0953 24.9934 17.0949 24.9937 17.1562 25.9443ZM23.123 26.4111C23.1253 26.6554 23.1276 26.8997 23.1299 27.1514C23.131 27.4507 23.1316 27.4515 23.1318 27.5918C23.1322 27.6893 23.1326 27.7873 23.1338 27.8848C23.1356 28.0328 23.1358 28.181 23.1357 28.3291C23.1366 28.3723 23.1378 28.4155 23.1387 28.46C23.1362 28.7532 23.0651 28.891 22.8652 29.1016C22.8452 29.1416 22.8253 29.1823 22.8047 29.2236H18.6758C18.5177 28.7099 18.3749 28.2214 18.2764 27.6973C18.2637 27.6303 18.2513 27.5632 18.2383 27.4941C18.1485 27.001 18.0765 26.5066 18.0186 26.0088C18.011 25.9464 18.0038 25.8836 17.9961 25.8193C17.9326 25.2258 17.9463 24.669 17.9463 24.0615H23.1084C23.1134 24.8368 23.1179 25.6124 23.123 26.4111ZM29.2422 24.0615C29.2422 25.4195 29.2416 25.4199 29.2227 25.7471C29.2224 25.8227 29.223 25.8229 29.2227 25.9004C29.2119 26.059 29.1927 26.167 29.1201 26.3086C28.9194 26.4615 28.6888 26.53 28.4521 26.6123C28.3635 26.6462 28.2749 26.6802 28.1865 26.7148C27.8728 26.8373 27.5574 26.9566 27.2422 27.0752C27.0144 27.1612 26.7863 27.2477 26.5586 27.334C26.5025 27.3552 26.4464 27.3766 26.3887 27.3984C26.0459 27.5286 25.7041 27.6607 25.3633 27.7959C25.3234 27.8117 25.2833 27.8274 25.2422 27.8438C25.059 27.9165 24.8752 27.9898 24.6924 28.0635C24.5983 28.101 24.5982 28.1013 24.502 28.1396C24.4479 28.1614 24.3936 28.1836 24.3379 28.2061C24.2018 28.2519 24.2016 28.252 24.0195 28.252V24.0615H29.2422ZM34.8281 24.0615C34.8281 24.4773 34.8166 24.8515 34.7529 25.2568C34.745 25.3087 34.7367 25.3607 34.7285 25.4141C34.6531 25.884 34.5394 26.338 34.4033 26.7939C34.0963 26.7495 33.8206 26.6316 33.5342 26.5176C33.48 26.4963 33.4259 26.4741 33.3701 26.4521C33.1973 26.3842 33.0242 26.3164 32.8516 26.248C32.6786 26.1797 32.5051 26.1111 32.332 26.043C32.2245 26.0006 32.1172 25.9577 32.0098 25.915C31.9365 25.8862 31.936 25.8869 31.8613 25.8574C31.8186 25.8405 31.7755 25.8231 31.7314 25.8057C31.2113 25.6186 30.7952 25.6859 30.291 25.8965C30.2453 25.912 30.1994 25.9283 30.1523 25.9443C30.1123 25.9243 30.0725 25.9034 30.0312 25.8828C30.0713 25.2818 30.1111 24.6808 30.1523 24.0615H34.8281ZM37.1758 17.4521C37.3661 17.1917 37.4391 17.172 37.7412 17.2607C37.8379 17.3385 37.838 17.3386 37.9268 17.4463C37.9628 17.49 37.999 17.5341 38.0361 17.5791C38.2638 17.8724 38.4864 18.1692 38.707 18.4678C38.8268 18.6292 38.9492 18.7875 39.0762 18.9434C39.1185 18.9959 39.1189 18.9962 39.1621 19.0498C39.239 19.1447 39.3168 19.2389 39.3945 19.333C39.5172 19.5323 39.5299 19.6422 39.502 19.8721C39.4414 19.9327 39.441 19.9326 39.2227 19.9385C39.1323 19.9381 39.0415 19.9375 38.9512 19.9365C38.8825 19.9361 38.8819 19.936 38.8115 19.9355C38.6976 19.9348 38.5837 19.9338 38.4697 19.9326C38.4701 19.9921 38.4703 20.052 38.4707 20.1133C38.4744 20.6742 38.4767 21.235 38.4785 21.7959C38.4795 22.0844 38.4813 22.3736 38.4834 22.6621C38.4854 22.9404 38.4868 23.2188 38.4873 23.4971C38.4876 23.6032 38.4883 23.7093 38.4893 23.8154C38.4906 23.9641 38.4903 24.113 38.4902 24.2617C38.4909 24.3057 38.4915 24.3502 38.4922 24.3955C38.491 24.5841 38.4794 24.7126 38.3867 24.8789C38.2457 25.0125 38.1491 25.0033 37.957 25.0029C37.8927 25.003 37.828 25.0029 37.7617 25.0029C37.6947 25.0017 37.6276 25.0003 37.5586 24.999C37.4916 24.9995 37.4245 25.0005 37.3555 25.001C36.8679 24.9971 36.8673 24.9967 36.7305 24.9092C36.6031 24.7267 36.6238 24.5386 36.627 24.3242C36.6269 24.2533 36.627 24.2528 36.627 24.1807C36.6271 24.0239 36.6285 23.8667 36.6299 23.71C36.6302 23.6013 36.6307 23.4924 36.6309 23.3838C36.6316 23.098 36.6337 22.8122 36.6357 22.5264C36.6376 22.2345 36.6378 21.9422 36.6387 21.6504C36.6406 21.0778 36.6436 20.5052 36.6475 19.9326C36.5788 19.9347 36.5101 19.9363 36.4395 19.9385C36.3496 19.9402 36.2598 19.9427 36.1699 19.9443C36.1246 19.9459 36.0789 19.9467 36.0322 19.9482C35.9006 19.95 35.9002 19.9504 35.6758 19.9326C35.5544 19.7505 35.5545 19.7498 35.5684 19.6299C35.6174 19.5013 35.6735 19.4101 35.7568 19.3008C35.7861 19.2621 35.8156 19.2235 35.8457 19.1836C35.8773 19.1427 35.9089 19.1017 35.9414 19.0596C35.9738 19.017 36.0067 18.9745 36.04 18.9307C36.2848 18.6099 36.5337 18.2911 36.7852 17.9756C36.921 17.8046 37.051 17.6314 37.1758 17.4521ZM17.7031 18.0498C17.6351 18.5938 17.6348 18.5941 17.5762 18.8398C17.2432 20.2752 17.1341 21.666 17.0352 23.1504H12.3594C12.3595 21.3012 12.9377 19.6861 13.7559 18.0498H17.7031ZM23.1074 23.1504H17.9453C17.9453 21.7935 17.9454 21.7932 18.0137 21.2148C18.0253 21.1136 18.0253 21.1132 18.0371 21.0098C18.1607 20.0079 18.3546 19.0075 18.6738 18.0498H23.1074V23.1504ZM28.5137 18.0498C28.6713 18.562 28.8134 19.0487 28.9121 19.5713C28.9248 19.6382 28.9371 19.7055 28.9502 19.7744C29.0426 20.2816 29.1131 20.7904 29.1699 21.3027C29.1774 21.3688 29.1847 21.4349 29.1924 21.5029C29.249 22.0594 29.2422 22.5829 29.2422 23.1504H24.0195V18.0498H28.5137ZM32.6191 17.998C33.2888 17.9783 33.2893 17.9789 33.4883 18.1514C33.5687 18.2769 33.6239 18.3953 33.6748 18.5352C33.7008 18.5856 33.7262 18.6365 33.7529 18.6885C33.8172 18.8346 33.882 18.981 33.9443 19.1279C33.9677 19.183 33.9906 19.2382 34.0146 19.2949C34.3858 20.1895 34.63 21.1 34.7676 22.0576C34.7755 22.1124 34.7838 22.1672 34.792 22.2236C34.8321 22.5373 34.8281 22.83 34.8281 23.1504H30.1523C30.1123 22.5694 30.0725 21.9883 30.0312 21.3896C29.9044 20.3839 29.7457 19.4061 29.5088 18.4219C29.4848 18.2931 29.4844 18.2927 29.4844 18.0498C29.9858 18.0385 30.4877 18.0297 30.9893 18.0244C31.222 18.0219 31.4548 18.0182 31.6875 18.0127C31.9123 18.0074 32.1374 18.0052 32.3623 18.0039C32.4479 18.003 32.5336 18.0007 32.6191 17.998ZM15.0068 16.2891C15.9597 15.2179 18.9198 12.3006 20.498 12.8877C20.4606 12.9267 20.4233 12.9657 20.3848 13.0059C19.4108 14.0451 18.8055 15.2488 18.2588 16.5527C18.1764 16.7485 18.0924 16.9435 18.0088 17.1387H14.4258C14.5626 16.7967 14.5627 16.7966 14.7041 16.6338C14.7352 16.5978 14.7668 16.5615 14.7988 16.5244C14.8489 16.468 14.8491 16.4679 14.9004 16.4102C14.9355 16.3703 14.9707 16.3301 15.0068 16.2891ZM23.1055 17.1387H18.9766C19.1819 16.4544 19.1821 16.4541 19.29 16.2236C19.314 16.1724 19.3386 16.1211 19.3633 16.0684C19.3886 16.016 19.4134 15.9632 19.4395 15.9092C19.4661 15.8537 19.493 15.7983 19.5205 15.7412C20.2142 14.327 21.215 13.0045 22.7412 12.4629C22.8707 12.4261 22.9712 12.4024 23.1055 12.4023V17.1387ZM24.0195 12.4023C24.8158 12.5616 25.3605 12.8373 25.9629 13.374C26.0031 13.4092 26.0435 13.4442 26.085 13.4805C27.0809 14.4118 27.7576 15.7485 28.21 17.0176V17.1387H24.0195V12.4023ZM26.6914 12.8281C27.0472 12.8629 27.3476 12.9622 27.6777 13.0967C27.7306 13.1182 27.7844 13.14 27.8389 13.1621C29.7612 13.9615 31.4887 15.2541 32.7031 16.957L32.7637 17.1387H29.1807C29.0805 16.8984 28.9811 16.6577 28.8779 16.4102C28.3346 15.133 27.7024 14.0033 26.7627 12.9727C26.6915 12.8887 26.6914 12.8883 26.6914 12.8281Z" fill="white"/>
</svg>
