<svg width="48" height="48" viewBox="0 0 48 48" fill="none" xmlns="http://www.w3.org/2000/svg">
<rect width="48" height="48" rx="8" fill="#E3424A"/>
<path d="M18.7012 11C19.419 11.0002 20.0008 11.583 20.001 12.3008C20.0007 13.0185 19.4189 13.6014 18.7012 13.6016H9.60059V34.4023H30.4014V25.3018C30.4015 24.5839 30.9842 24.002 31.7021 24.002C32.4199 24.0021 33.0018 24.584 33.002 25.3018V34.4023C33.0018 35.0918 32.7278 35.7537 32.2402 36.2412C31.7526 36.7287 31.0909 37.0029 30.4014 37.0029H9.60059C8.91109 37.0029 8.24933 36.7287 7.76172 36.2412C7.2742 35.7537 7.00013 35.0918 7 34.4023V13.6016C7 12.9121 7.27424 12.2503 7.76172 11.7627C8.24935 11.2751 8.91098 11 9.60059 11H18.7012ZM37.4775 11.3701C37.7892 11.3597 38.0853 11.5006 38.2715 11.749L38.4639 12.0059C39.1229 12.8851 39.5317 13.4237 39.8223 14.0273C40.0718 14.5457 40.2535 15.0952 40.3623 15.6611C40.4889 16.32 40.4823 16.9985 40.4785 18.1016L40.4248 33.917C40.4193 35.4951 39.1457 36.7831 37.5723 36.8115L37.5342 36.8125C35.9438 36.8205 34.6589 35.5377 34.6641 33.9473L34.7188 17.8418C34.7221 16.8406 34.7209 16.2243 34.8301 15.6211C34.9239 15.1029 35.0786 14.5966 35.29 14.1133C35.5361 13.551 35.8811 13.0384 36.4375 12.2021L36.7031 11.8027C36.8765 11.542 37.1658 11.3807 37.4775 11.3701ZM36.5898 32.3027L36.584 33.9365L36.585 33.9619C36.5965 34.4805 37.0192 34.8942 37.541 34.8916C38.0713 34.8888 38.5031 34.4571 38.5049 33.9268L38.5098 32.292L36.5898 32.3027ZM37.543 14.001C37.292 14.3896 37.1549 14.6263 37.0479 14.8711C36.8969 15.2161 36.7867 15.5773 36.7197 15.9473C36.6477 16.3451 36.6423 16.7641 36.6387 17.8311L36.5967 30.3818L38.5166 30.3721L38.5586 18.1113C38.5626 16.9353 38.5601 16.4737 38.4766 16.0391C38.4013 15.6475 38.2772 15.2664 38.1074 14.9062L38.0908 14.8721C37.9698 14.6206 37.8164 14.38 37.543 14.001ZM31.832 11.0068C31.837 11.0073 31.8418 11.0092 31.8467 11.0098C31.8846 11.014 31.9225 11.0188 31.96 11.0264C31.9681 11.028 31.9763 11.0304 31.9844 11.0322C32.0168 11.0394 32.0491 11.0479 32.0811 11.0576C32.0916 11.0608 32.1019 11.0649 32.1123 11.0684C32.2981 11.1301 32.4732 11.234 32.6211 11.3818C32.6663 11.4271 32.706 11.4765 32.7432 11.5264C32.7562 11.5438 32.7701 11.561 32.7822 11.5791C32.9319 11.8027 33.005 12.0624 33.001 12.3213V20.1006C33.0007 20.8182 32.4189 21.4012 31.7012 21.4014C30.9834 21.4014 30.4016 20.8183 30.4014 20.1006V15.4404L19.6201 26.2217C19.1125 26.7289 18.2889 26.729 17.7812 26.2217C17.2737 25.7141 17.2739 24.8906 17.7812 24.3828L28.5635 13.6006H23.9014C23.1836 13.6006 22.6009 13.0185 22.6006 12.3008C22.6007 11.5829 23.1835 11 23.9014 11H31.7021C31.7455 11 31.7889 11.0025 31.832 11.0068Z" fill="white"/>
</svg>
