<svg width="48" height="48" viewBox="0 0 48 48" fill="none" xmlns="http://www.w3.org/2000/svg">
<rect width="48" height="48" rx="8" fill="#2D95CD"/>
<path d="M23.7607 23.6694C24.1273 23.4569 24.4478 23.4674 24.8184 23.6675C25.2634 23.9663 25.6089 24.352 25.8496 24.8335C25.8852 25.1287 25.8815 25.301 25.7031 25.5435C25.6337 25.6265 25.5632 25.7087 25.4912 25.7896C25.4494 25.8384 25.4073 25.8876 25.3643 25.938C25.0884 26.254 24.7976 26.5369 24.4756 26.8052C24.5268 26.8638 24.5781 26.9225 24.6309 26.9829C24.8327 27.2185 25.0214 27.463 25.207 27.7114C25.2386 27.7531 25.2702 27.7954 25.3027 27.8384C25.333 27.8787 25.3634 27.9189 25.3945 27.9604C25.4215 27.9964 25.4487 28.0328 25.4766 28.0698C25.6465 28.3195 25.6893 28.5134 25.71 28.8169C25.7142 28.8757 25.7144 28.8759 25.7188 28.936C25.728 29.0661 25.7366 29.1965 25.7451 29.3267C25.7514 29.4172 25.7572 29.5085 25.7637 29.5991C25.7805 29.8371 25.7974 30.075 25.8135 30.313C25.8393 30.6948 25.8657 31.0768 25.8926 31.4585C25.9019 31.5919 25.9101 31.7254 25.9189 31.8589C25.9246 31.9402 25.9309 32.0217 25.9365 32.103C25.9413 32.1742 25.9462 32.2455 25.9512 32.3188C25.9515 32.4736 25.9513 32.4739 26.0283 32.5386C26.0537 32.4651 26.0793 32.3916 26.1055 32.3159C27.0733 29.5155 28.0624 26.7228 29.0742 23.938C29.8266 24.0675 30.5699 24.2056 31.3066 24.4077C31.3443 24.4179 31.3821 24.4285 31.4209 24.439C33.7662 25.0757 33.7672 25.0758 34.3643 26.0454C34.6581 26.5983 34.7345 27.2129 34.7891 27.8276C34.7969 27.9087 34.8046 27.9898 34.8125 28.0708C34.8337 28.2889 34.854 28.5079 34.874 28.7261C34.8953 28.9559 34.9173 29.1858 34.9395 29.4155C34.9671 29.7032 34.9952 29.9911 35.0225 30.2788C35.0876 30.9665 35.1551 31.6541 35.2246 32.3413C35.2343 32.437 35.2442 32.5327 35.2539 32.6284C35.2866 32.9523 35.3197 33.2762 35.3525 33.6001C35.3787 33.8589 35.4047 34.1177 35.4307 34.3765C35.4422 34.4909 35.4532 34.6058 35.4648 34.7202C35.5334 35.4058 35.5947 36.0936 35.6074 36.7827C35.6097 36.8306 35.612 36.8789 35.6143 36.9282C35.6179 37.1707 35.609 37.2834 35.4639 37.4849C34.176 38.4329 32.1414 38.4397 30.6016 38.5825C30.5521 38.5872 30.5021 38.5913 30.4512 38.5962C28.4169 38.7864 26.3788 38.8302 24.3369 38.8257C24.0261 38.825 23.7151 38.825 23.4043 38.8257C17.0283 38.8376 17.0282 38.838 14.1426 38.0337C14.0941 38.0203 14.0451 38.0065 13.9951 37.9927C13.6073 37.8751 13.2135 37.6931 12.9482 37.3765C12.926 37.2572 12.9252 37.2571 12.9258 37.1196C12.9257 37.0679 12.9258 37.0157 12.9258 36.9624C12.9268 36.9065 12.9286 36.8501 12.9297 36.7925C12.9303 36.734 12.93 36.675 12.9307 36.6147C12.9419 35.9769 13.001 35.3455 13.0674 34.7114C13.0804 34.5822 13.0935 34.4529 13.1064 34.3237C13.1865 33.5397 13.2754 32.7567 13.3682 31.9741C13.3734 31.9297 13.3794 31.8851 13.3848 31.8394C13.437 31.3986 13.4897 30.9576 13.5439 30.5171C13.5692 30.3115 13.5944 30.1056 13.6191 29.8999C13.6239 29.8601 13.6279 29.8198 13.6328 29.7788C13.7099 29.1323 13.7655 28.4854 13.8027 27.8354C13.8599 26.8898 14.0363 26.2442 14.7393 25.5737C15.8605 24.6867 18.055 23.9823 19.458 23.9976C19.9729 25.4084 20.4735 26.8242 20.9697 28.2417C21.357 29.3477 21.7468 30.4528 22.1387 31.5571C22.1589 31.6142 22.1793 31.6712 22.2002 31.73C22.2378 31.836 22.2758 31.9423 22.3135 32.0483C22.33 32.0949 22.3463 32.142 22.3633 32.1899C22.3776 32.2302 22.3925 32.2706 22.4072 32.312C22.4406 32.4071 22.473 32.5025 22.5049 32.5981C22.5379 32.1649 22.5707 31.7316 22.6035 31.2983C22.6147 31.1514 22.6255 31.0039 22.6367 30.8569C22.6529 30.6442 22.6694 30.431 22.6855 30.2183C22.6934 30.1154 22.6932 30.1152 22.7012 30.0103C22.7233 29.7156 22.745 29.4205 22.7617 29.1255C22.7642 29.0811 22.7669 29.0364 22.7695 28.9907C22.7756 28.8781 22.7806 28.7655 22.7861 28.6528C22.8388 28.1004 23.2601 27.7217 23.6113 27.3228C23.7614 27.1516 23.9097 26.9783 24.0576 26.8052C24.0029 26.7525 23.948 26.6993 23.8916 26.645C22.7343 25.5193 22.7343 25.519 22.6914 25.0649C22.8219 24.4877 23.2928 24.011 23.7607 23.6694ZM17.6465 12.6929C17.6138 12.8573 17.5826 13.0222 17.5518 13.187C17.5342 13.2788 17.5345 13.279 17.5166 13.3726C17.4464 13.7682 17.4264 14.1357 17.4395 14.5366C17.4568 15.2677 17.4565 15.2681 17.2871 15.5171C17.0683 15.7343 16.8098 15.8837 16.543 16.0347C16.3327 16.1621 16.1524 16.3203 15.9688 16.4829C15.9343 16.5129 15.8998 16.5428 15.8643 16.5737C15.3576 17.0175 14.9189 17.4962 14.502 18.0249C14.4533 18.0852 14.4046 18.1454 14.3545 18.2075C12.4011 20.6535 11.5042 23.9441 11.8145 27.0435C11.8477 27.3051 11.886 27.5661 11.9326 27.8257C12.0515 28.5065 11.9724 29.1739 11.8926 29.855C11.8822 29.9458 11.8717 30.0366 11.8613 30.1274C11.8396 30.3168 11.8181 30.5065 11.7959 30.6958C11.7675 30.9384 11.7394 31.1816 11.7119 31.4243C11.6907 31.6115 11.6693 31.7987 11.6475 31.9858C11.6371 32.0753 11.6263 32.1649 11.6162 32.2544C11.6021 32.3791 11.5881 32.5038 11.5732 32.6284C11.565 32.6993 11.5563 32.7703 11.5479 32.8433C11.5154 33.0166 11.5157 33.0169 11.3965 33.1958C9.41038 29.5724 8.90556 25.5394 10.0293 21.5493C10.7012 19.2818 11.9215 17.2813 13.5459 15.5757C13.58 15.5399 13.6143 15.5041 13.6494 15.4673C14.1306 14.9657 14.6259 14.5072 15.1846 14.0933C15.27 14.0299 15.3542 13.9647 15.4385 13.8999C16.0258 13.4567 16.6656 13.0825 17.3047 12.7192C17.3703 12.682 17.3707 12.682 17.4375 12.644C17.5481 12.5899 17.5485 12.5894 17.668 12.5894C17.661 12.6234 17.6536 12.6578 17.6465 12.6929ZM30.8672 12.6489C31.9444 13.0478 32.932 13.8162 33.7939 14.5601C33.8398 14.5993 33.8863 14.6387 33.9336 14.6792C34.6984 15.3503 35.4022 16.0693 36.0039 16.8901C36.0292 16.9241 36.055 16.9577 36.0811 16.9927C37.8889 19.4179 38.8879 22.3517 38.9902 25.3716C38.9927 25.4392 38.9955 25.5069 38.998 25.5767C39.0396 27.9062 38.5015 30.1907 37.5049 32.2886C37.4764 32.3485 37.4482 32.4085 37.4189 32.4702C37.2147 32.8893 37.2141 32.889 37.0791 32.9565C36.9808 32.4132 36.9137 31.8689 36.8564 31.3198C36.8473 31.2329 36.8383 31.146 36.8291 31.0591C36.81 30.878 36.7913 30.6963 36.7725 30.5151C36.7485 30.2853 36.7238 30.0555 36.6992 29.8257C36.6801 29.6465 36.6613 29.4668 36.6426 29.2876C36.6337 29.203 36.6243 29.1183 36.6152 29.0337C36.5458 28.3868 36.5046 27.7577 36.5869 27.1108C36.6112 26.8947 36.613 26.6787 36.6152 26.4614C36.6158 26.4132 36.6166 26.3646 36.6172 26.3149C36.6391 24.036 36.2421 21.9589 35.168 19.936C35.1475 19.8967 35.1266 19.8574 35.1055 19.8169C34.4325 18.5318 33.4692 17.3156 32.3496 16.3901C32.2953 16.345 32.2405 16.2999 32.1846 16.2534C32.049 16.1499 31.922 16.0641 31.7764 15.978C31.2177 15.6301 31.2175 15.6296 31.126 15.3237C31.082 15.0061 31.0977 14.6892 31.1074 14.3696C31.1064 14.0919 31.062 13.8228 31.0166 13.5493C31.0087 13.5002 31.0013 13.4505 30.9932 13.3999C30.9719 13.269 30.9491 13.1381 30.9268 13.0073C30.9151 12.9371 30.9036 12.8668 30.8916 12.7944C30.8836 12.7465 30.8754 12.6983 30.8672 12.6489ZM29.373 30.9858H32.4795V29.9702H29.373V30.9858ZM22.2285 9.95557C24.0069 9.32234 26.1266 9.55252 27.6182 10.7417C28.6776 11.6548 29.2195 12.8219 29.375 14.2017C29.4791 16.2034 29.0041 18.2644 27.7627 19.8765C27.7373 19.9094 27.7117 19.9421 27.6855 19.9761C27.0045 20.8478 26.068 21.7033 24.9326 21.894C23.7203 21.9936 22.7135 21.7629 21.7617 20.9663C20.9186 20.2182 20.3401 19.407 19.8779 18.3833C19.8454 18.3122 19.8129 18.2408 19.7793 18.1675C19.0243 16.4077 18.8571 14.2491 19.5615 12.4517C20.1037 11.2746 21.0192 10.4153 22.2285 9.95557Z" fill="white"/>
</svg>
