<svg width="48" height="48" viewBox="0 0 48 48" fill="none" xmlns="http://www.w3.org/2000/svg">
<rect width="48" height="48" rx="8" fill="#5562A3"/>
<path d="M34.6895 37.6924L31.6543 34.2188L28.2578 37.374L24.9473 34.2188L21.4805 36.9277L18.1211 34.2188L14 37.6924V10H34.6895V37.6924ZM18.7207 30.25H29.9707V29.3848H18.7207V30.25ZM18.7207 28.6924H29.9707V27.8271H18.7207V28.6924ZM18.7207 27.0283H29.9707V26.1631H18.7207V27.0283ZM20.877 14.5869H23.3398C23.883 14.7471 24.3252 15.0684 24.5693 15.4766H21.542L20.877 16.6025H24.7197C24.4918 17.3711 23.6097 17.9434 22.5566 17.9434H21.2441V18.958L24.9707 22.1152H26.5938V21.7227L23.1875 18.9023C24.6166 18.8457 25.7841 17.8681 25.998 16.6025H27.29L27.9551 15.4766H25.9316C25.8366 15.152 25.6776 14.8516 25.4678 14.5869H27.29L27.9551 13.4609H21.542L20.877 14.5869Z" fill="white"/>
</svg>
