<svg width="48" height="48" viewBox="0 0 48 48" fill="none" xmlns="http://www.w3.org/2000/svg">
<rect width="48" height="48" rx="8" fill="#E3424A"/>
<path d="M19.547 25.5175C19.0799 25.5175 18.7009 24.8512 18.7009 24.0313C18.7009 23.2099 19.0799 22.5457 19.547 22.5457C20.0147 22.5457 20.3937 23.2099 20.3937 24.0313C20.3937 24.8512 20.0147 25.5175 19.547 25.5175ZM9.99128 10.0084C9.42946 10.0579 9 10.5269 9 11.0903V35.9543C9 36.483 9.37652 36.9314 9.89651 37.0244L21.2449 39.0458C21.562 39.1027 21.8869 39.0168 22.1331 38.8091C22.3802 38.6022 22.5219 38.2983 22.5219 37.9768V10.0869C22.5219 9.78025 22.3957 9.49253 22.1702 9.28576C21.9436 9.07868 21.6454 8.97747 21.3396 9.00454L9.99128 10.0084Z" fill="white"/>
<path d="M38.9996 23.4492L30.1296 16.8632V20.2798H23.2383V26.5775H30.1296V29.9932L38.9996 23.4492Z" fill="white"/>
<path d="M29.3573 19.3115V10.8111C29.3573 10.5881 29.2676 10.3698 29.1096 10.2122C28.9531 10.0546 28.7347 9.96389 28.5122 9.96389H23.2383V11.657H27.6652V19.3115H29.3573Z" fill="white"/>
<path d="M23.2383 36.406V38.0991H28.5122C28.7347 38.0991 28.9531 38.0091 29.1096 37.8507C29.2676 37.6935 29.3573 37.4748 29.3573 37.2521V27.4945H27.6652V36.406H23.2383Z" fill="white"/>
</svg>
