<svg width="48" height="48" viewBox="0 0 48 48" fill="none" xmlns="http://www.w3.org/2000/svg">
<rect width="48" height="48" rx="8" fill="#379F79"/>
<path d="M11.2969 27.5693C11.2969 29.4064 11.309 29.4652 11.627 29.5889C11.8153 29.6593 12.0394 29.5652 12.6162 29.1768C12.8568 29.0124 13.0739 28.8768 13.1045 28.876C13.128 28.876 13.3931 29.0411 13.6992 29.2412C14.3294 29.6593 14.5301 29.6946 14.7539 29.4414C14.8892 29.2826 14.8896 29.2819 14.8896 27.5752V25.873L16.0254 25.8848L17.1562 25.9023L17.1738 29.9482L17.1855 34H9V29.9775C9 27.7672 9.01752 25.9382 9.04102 25.9141C9.05868 25.8905 9.57705 25.873 10.1895 25.873H11.2969V27.5693ZM28.4463 18.2344C28.4816 18.2462 32.8224 21.627 35.4961 23.7295L36.4736 24.4951L36.4912 29.2471L36.5029 34H34.0293V27.875H22.4277V34H19.9541V24.7715L20.0898 24.707C20.1633 24.6695 22.0646 23.198 24.3125 21.4326C26.5613 19.6724 28.4214 18.2295 28.4463 18.2344ZM11.5146 31.5439C10.5078 31.5263 10.366 31.5556 10.2129 31.7734C10.0716 31.9737 10.0957 32.1621 10.29 32.3564L10.4609 32.5273H11.415C12.6039 32.5273 12.7694 32.4628 12.7695 32.0039C12.7695 31.9038 12.7104 31.7856 12.6162 31.6973C12.469 31.5618 12.4334 31.5557 11.5146 31.5439ZM13.8887 25.873V27.0215C13.8887 27.6494 13.8711 28.1665 13.8535 28.1699C13.8358 28.1699 13.7058 28.0874 13.5586 27.9873C13.2171 27.7577 13.0232 27.7519 12.6641 27.9814C12.5054 28.0872 12.358 28.1696 12.3398 28.1699C12.3163 28.1699 12.2988 27.6515 12.2988 27.0215V25.873H13.8887ZM22.4277 26.9326H34.0293V24.8125H22.4277V26.9326ZM28.4756 14C28.5142 14.0202 29.7078 14.9384 31.125 16.0439C32.5443 17.157 34.7417 18.871 36.002 19.8604C38.868 22.0967 38.8404 22.0743 38.9756 22.3447C39.2347 22.8453 39.0579 23.558 38.6104 23.8584C38.3454 24.0291 37.7691 24.1058 37.498 24C37.3449 23.9411 37.0738 23.7289 31.5439 19.4062L28.4404 16.9805L24.7705 19.8486C22.7514 21.4204 20.7735 22.9742 20.3662 23.293C19.4417 24.0114 19.3353 24.0646 18.8643 24.0352C18.2048 23.9939 17.8216 23.5998 17.7861 22.9346C17.7744 22.6166 17.7924 22.5039 17.9043 22.3096C18.0115 22.1321 19.2665 21.1183 23.2217 18.0283C26.0721 15.7963 28.4344 13.9882 28.4756 14ZM14.7363 17.9814C14.9954 17.8696 15.1543 17.9874 16.1436 18.9766C17.4451 20.2781 17.4389 20.1011 16.2021 21.3555C15.6901 21.8734 15.1904 22.3275 15.084 22.375C14.8603 22.4751 14.654 22.4159 14.5127 22.21C14.3301 21.9509 14.3888 21.8212 14.96 21.2441L15.502 20.6904H12.4805C9.30261 20.6904 9.19478 20.6844 9.09473 20.4258C9.04761 20.3021 9.04761 20.0778 9.09473 19.9541C9.19482 19.6952 9.30134 19.6895 12.4805 19.6895H15.502L14.96 19.1357C14.3887 18.5527 14.3301 18.429 14.5127 18.1699C14.5657 18.0934 14.6657 18.0109 14.7363 17.9814Z" fill="white"/>
</svg>
