<svg width="48" height="48" viewBox="0 0 48 48" fill="none" xmlns="http://www.w3.org/2000/svg">
<rect width="48" height="48" rx="8" fill="#E68F40"/>
<path d="M30.4092 8.99072C30.4734 8.99073 30.5384 8.99072 30.6045 8.99072C30.8848 9.03652 31.0721 9.17091 31.2402 9.39697C31.3786 9.69559 31.3769 9.99179 31.376 10.3159V11.2964C31.3763 11.6174 31.377 11.9383 31.377 12.2593C31.3769 12.6055 31.3767 12.9521 31.377 13.2983C31.3774 13.9767 31.3779 14.6551 31.3779 15.3335C31.378 15.8848 31.3777 16.4365 31.3779 16.9878C31.378 17.1464 31.3789 17.3057 31.3789 17.4644V22.0581C31.3789 23.3833 31.3791 24.7085 31.3799 26.0337C31.3808 27.5222 31.3819 29.011 31.3818 30.4995V32.8647C31.3824 33.5359 31.3832 34.2073 31.3828 34.8784V37.6489C31.3831 37.6931 31.3835 37.7373 31.3838 37.7827C31.3814 38.1407 31.3471 38.4389 31.1084 38.7144C30.8664 38.9209 30.7463 38.9737 30.4316 38.9741C30.3576 38.9745 30.2833 38.9747 30.207 38.9751C30.1244 38.9749 30.0416 38.9753 29.959 38.9751C29.8715 38.9753 29.7837 38.9758 29.6963 38.9761C29.4554 38.9768 29.2145 38.9762 28.9736 38.9761C28.7142 38.9761 28.4548 38.9765 28.1953 38.9771C27.6864 38.978 27.1768 38.9789 26.668 38.979C26.2546 38.9791 25.8411 38.9786 25.4277 38.979C24.2559 38.98 23.0839 38.981 21.9121 38.981H21.5293C20.5035 38.9809 19.477 38.9822 18.4512 38.9839C17.3988 38.9856 16.3464 38.9859 15.2939 38.9858C14.7027 38.9858 14.1108 38.9865 13.5195 38.9878C13.0163 38.9889 12.513 38.9886 12.0098 38.9878C11.7529 38.9874 11.4961 38.9878 11.2393 38.9888H9.73633C9.45449 38.9429 9.27925 38.8127 9.09863 38.5952C9.00873 38.3785 9.00679 38.1775 9.00879 37.9468C9.00838 37.8733 9.00823 37.8733 9.00781 37.7983C9.00711 37.6334 9.00825 37.4682 9.00879 37.3032C9.00855 37.1842 9.0082 37.0649 9.00781 36.9458C9.00697 36.618 9.00641 36.2902 9.00684 35.9624C9.00711 35.609 9.00646 35.2552 9.00586 34.9019C9.00491 34.2491 9.00459 33.5956 9.00488 32.9429V25.9585C9.00547 24.6054 9.00526 23.252 9.00391 21.8989C9.00238 20.3792 9.00154 18.8591 9.00195 17.3394V16.7319C9.00209 16.1294 9.00174 15.5268 9.00098 14.9243V10.5122C9.00021 10.3551 9.00092 10.1977 9.00195 10.0405C9.00139 9.99523 9.00058 9.9495 9 9.90283C9.0041 9.59993 9.06774 9.42544 9.26465 9.1958C9.48415 9.02349 9.6481 8.99879 9.92383 8.99854C10.035 8.9978 10.0352 8.99733 10.1484 8.99658C10.2306 8.99692 10.3133 8.99719 10.3955 8.99756C10.483 8.99731 10.5708 8.99697 10.6582 8.99658C10.8989 8.99574 11.1402 8.99615 11.3809 8.99658C11.6403 8.99686 11.8997 8.9962 12.1592 8.99561C12.6676 8.9946 13.1761 8.99432 13.6846 8.99463H18.8203C19.8453 8.99521 20.8705 8.99407 21.8955 8.99268C22.9476 8.99125 23.9997 8.99131 25.0518 8.9917C25.6426 8.9919 26.2334 8.99174 26.8242 8.99072C27.3271 8.98986 27.8301 8.9897 28.333 8.99072C28.5897 8.99122 28.8468 8.99064 29.1035 8.98975C29.3382 8.98894 29.5729 8.98959 29.8076 8.99072C29.8925 8.99094 29.9776 8.99035 30.0625 8.98975C30.1779 8.98898 30.2938 8.98983 30.4092 8.99072ZM34.042 31.7017C34.113 31.7016 34.1132 31.7017 34.1855 31.7017C34.3427 31.7017 34.5 31.7022 34.6572 31.7026C34.7659 31.7027 34.8747 31.7026 34.9834 31.7026C35.2701 31.7029 35.557 31.7039 35.8438 31.7046C36.136 31.7052 36.4284 31.7053 36.7207 31.7056C37.2948 31.7062 37.8693 31.7073 38.4434 31.7085C38.5328 31.9381 38.6204 32.1683 38.707 32.3989C38.7321 32.4632 38.7564 32.528 38.7822 32.5942C38.9643 33.0841 39.0813 33.5558 38.8877 34.0601C38.8481 34.144 38.8065 34.2272 38.7646 34.3101C38.7163 34.4115 38.6684 34.5133 38.6201 34.6147C38.5925 34.6719 38.5646 34.7297 38.5361 34.7886C38.3682 35.1405 38.2082 35.4961 38.0469 35.8511C37.946 36.0726 37.8447 36.2939 37.7432 36.5151C37.6113 36.8026 37.4797 37.0907 37.3506 37.3794C37.3027 37.4864 37.2543 37.5938 37.2061 37.7007C37.1481 37.8293 37.0911 37.9583 37.0342 38.0874C36.8556 38.4813 36.7013 38.7172 36.3379 38.9595C36.1801 38.9791 36.1795 38.9787 35.998 38.981C35.9388 38.9826 35.8794 38.9841 35.8184 38.9858C35.5837 38.951 35.4719 38.8727 35.2861 38.7251C35.1972 38.5828 35.1262 38.4544 35.0576 38.3032C35.0282 38.2415 35.028 38.2412 34.998 38.1782C34.937 38.0492 34.8778 37.9193 34.8184 37.7896C34.7815 37.7105 34.744 37.6312 34.707 37.5522C34.5951 37.3118 34.4854 37.0703 34.376 36.8286C34.2949 36.6497 34.2139 36.4704 34.1328 36.2915C34.1124 36.2464 34.0914 36.2013 34.0703 36.1548C33.9458 35.8806 33.8194 35.6075 33.6904 35.3354C33.6079 35.1613 33.526 34.9866 33.4443 34.812C33.4056 34.7296 33.3667 34.6469 33.3271 34.5649C33.0255 33.9394 32.8992 33.526 33.1182 32.854C33.166 32.724 33.2149 32.5937 33.2646 32.4644C33.2892 32.3979 33.3145 32.3317 33.3398 32.2632C33.5493 31.7019 33.5488 31.7014 33.9053 31.7007C33.973 31.701 33.9731 31.7013 34.042 31.7017ZM21.2129 31.854C20.799 31.8573 20.572 31.958 20.2949 32.2788C20.1609 32.5468 20.1453 32.7688 20.2363 33.0493C20.3796 33.3476 20.596 33.4722 20.9014 33.5796C21.0948 33.6104 21.284 33.611 21.4795 33.6089C21.5352 33.6092 21.591 33.6095 21.6484 33.6099C21.8319 33.6106 22.0158 33.6099 22.1992 33.6089C22.3271 33.6089 22.4551 33.6087 22.583 33.6089C22.851 33.609 23.1197 33.6083 23.3877 33.6069C23.7305 33.6053 24.0732 33.6052 24.416 33.606C24.6804 33.6064 24.9455 33.6057 25.21 33.605C25.3363 33.6047 25.4626 33.6048 25.5889 33.605C25.7658 33.6052 25.9432 33.6043 26.1201 33.603C26.1719 33.6033 26.224 33.6037 26.2773 33.604C26.6812 33.5992 26.9606 33.5307 27.2676 33.2505C27.4215 33.0059 27.4677 32.8143 27.4502 32.5269C27.3435 32.2128 27.1606 32.0319 26.8652 31.8843C26.7847 31.8785 26.7038 31.8759 26.623 31.8755C26.5722 31.8751 26.5211 31.874 26.4688 31.8735C26.413 31.8734 26.3572 31.8737 26.2998 31.8735C26.2412 31.8732 26.1825 31.873 26.1221 31.8726C25.927 31.8714 25.7312 31.8702 25.5361 31.8696C25.4697 31.8694 25.4034 31.8699 25.335 31.8696C24.9829 31.8684 24.6304 31.8672 24.2783 31.8667C23.9143 31.8661 23.5496 31.8641 23.1855 31.8618C22.9059 31.8603 22.6263 31.8591 22.3467 31.8589C22.2126 31.8586 22.0784 31.858 21.9443 31.8569C21.7566 31.8555 21.5686 31.8556 21.3809 31.856C21.3255 31.8552 21.2699 31.8548 21.2129 31.854ZM38.9805 20.9312C38.9809 21.2452 38.9819 21.5595 38.9824 21.8735C38.9825 21.9128 38.9824 21.9522 38.9824 21.9927C38.9834 22.6281 38.9852 23.2635 38.9873 23.8989C38.9895 24.5511 38.9907 25.2038 38.9912 25.856C38.9915 26.2221 38.9924 26.5884 38.9941 26.9546C38.9957 27.2992 38.9964 27.6441 38.9961 27.9888C38.9962 28.1153 38.9962 28.2422 38.9971 28.3687C38.9982 28.5412 38.9977 28.7137 38.9971 28.8862C38.9978 28.9364 38.9993 28.9869 39 29.0386C38.9968 29.3519 38.9438 29.5303 38.7354 29.7788C38.4267 30.0026 38.1535 30.0214 37.7812 30.022C37.7385 30.0223 37.6954 30.0226 37.6514 30.0229C37.5105 30.0238 37.3694 30.0246 37.2285 30.0249C37.1302 30.0252 37.0319 30.0255 36.9336 30.0259C36.7275 30.0265 36.5215 30.0267 36.3154 30.0269C36.0521 30.0272 35.7887 30.0281 35.5254 30.0298C35.3224 30.0309 35.119 30.0316 34.916 30.0317C34.8189 30.0319 34.7211 30.0319 34.624 30.0327C34.488 30.0337 34.3519 30.0341 34.2158 30.0337C34.1762 30.0342 34.1365 30.0351 34.0957 30.0356C33.7274 30.0325 33.4665 29.9335 33.1875 29.6909C32.9673 29.4316 32.997 29.1748 32.998 28.8511V27.7603C32.998 27.4092 32.9986 27.0576 32.999 26.7065C32.9994 26.34 32.9999 25.9735 33 25.6069C33.0002 24.9914 33.0005 24.3758 33.001 23.7603C33.0015 23.1262 33.0017 22.492 33.002 21.8579V20.7085C33.0025 19.2296 33.0038 17.7499 33.0049 16.271H38.9697C38.9792 19.5562 38.9785 19.5567 38.9805 20.9312ZM18.0869 24.812C17.3795 24.5507 16.9828 24.967 16.5146 25.4419C16.4492 25.5076 16.4486 25.5077 16.3818 25.5747C16.2435 25.7137 16.1057 25.8533 15.9678 25.9927C15.8736 26.0874 15.7788 26.1822 15.6846 26.2769C15.4545 26.5082 15.2246 26.7402 14.9951 26.9722C14.7633 26.8659 14.6101 26.7127 14.4365 26.5298C14.2011 26.2817 14.0428 26.1468 13.6904 26.1353C13.4205 26.1388 13.2714 26.2057 13.0654 26.3872C12.8918 26.6088 12.8368 26.8084 12.832 27.0894C12.9973 27.546 13.3274 27.852 13.667 28.1851C13.7641 28.2805 13.8601 28.3774 13.9561 28.4741C14.0178 28.5355 14.0798 28.5965 14.1416 28.6577C14.1699 28.6862 14.1983 28.7153 14.2275 28.7446C14.4559 28.9668 14.6413 29.0616 14.9551 29.103C15.5051 29.0378 15.883 28.5657 16.2539 28.1909C16.3118 28.133 16.3698 28.0749 16.4277 28.0171C16.5482 27.8966 16.6682 27.7758 16.7881 27.6548C16.9416 27.4999 17.0966 27.3459 17.251 27.1919C17.3703 27.0727 17.4894 26.953 17.6084 26.8335C17.6651 26.7766 17.7215 26.7194 17.7783 26.6626C17.8578 26.5832 17.9366 26.5032 18.0156 26.4233C18.0606 26.3781 18.106 26.3332 18.1523 26.2866C18.389 26.0193 18.4787 25.8205 18.4658 25.4683C18.4232 25.1914 18.2944 25.0012 18.0869 24.812ZM21.4238 26.2983C21.371 26.2979 21.3181 26.2978 21.2637 26.2974C20.8442 26.3029 20.5807 26.4008 20.291 26.7202C20.173 26.9706 20.1513 27.1677 20.1992 27.4399C20.3396 27.7261 20.505 27.8754 20.7842 28.0249C20.98 28.058 21.1728 28.0563 21.3711 28.0542C21.4293 28.0545 21.4879 28.0548 21.5479 28.0552C21.7398 28.0559 21.9321 28.0543 22.124 28.0532C22.2575 28.0532 22.391 28.054 22.5244 28.0542C22.8044 28.0543 23.0853 28.0536 23.3652 28.0522C23.7236 28.0506 24.082 28.0505 24.4404 28.0513C24.7164 28.0517 24.9926 28.051 25.2686 28.0503C25.4007 28.05 25.5329 28.0501 25.665 28.0503C25.8498 28.0505 26.0349 28.0496 26.2197 28.0483C26.2741 28.0486 26.3288 28.049 26.3848 28.0493C26.7569 28.0451 27.0105 27.9845 27.293 27.7251C27.4494 27.4586 27.494 27.2033 27.418 26.9009C27.2988 26.617 27.159 26.5118 26.8857 26.3794C26.6464 26.2914 26.4127 26.2961 26.1602 26.2983C26.1032 26.2979 26.046 26.2978 25.9873 26.2974H25.0332C24.7598 26.297 24.4863 26.2972 24.2129 26.2983C23.8628 26.2997 23.5122 26.2988 23.1621 26.2974C22.8923 26.2965 22.6223 26.2968 22.3525 26.2974C22.2236 26.2975 22.0947 26.2969 21.9658 26.2964C21.7853 26.2958 21.6044 26.297 21.4238 26.2983ZM18.0869 19.4907C17.3796 19.2295 16.9828 19.6457 16.5146 20.1206C16.4492 20.1863 16.4486 20.1864 16.3818 20.2534C16.2435 20.3924 16.1057 20.532 15.9678 20.6714C15.8736 20.7661 15.7788 20.8609 15.6846 20.9556C15.4545 21.187 15.2246 21.4189 14.9951 21.6509C14.7633 21.5446 14.6101 21.3915 14.4365 21.2085C14.2011 20.9604 14.0428 20.8255 13.6904 20.814C13.4205 20.8175 13.2714 20.8844 13.0654 21.0659C12.8918 21.2875 12.8368 21.4871 12.832 21.7681C12.9973 22.2247 13.3274 22.5307 13.667 22.8638C13.7641 22.9592 13.8601 23.0562 13.9561 23.1528C14.0179 23.2143 14.0796 23.2761 14.1416 23.3374C14.1699 23.3658 14.1984 23.394 14.2275 23.4233C14.4559 23.6455 14.6413 23.7403 14.9551 23.7817C15.5051 23.7165 15.883 23.2444 16.2539 22.8696C16.3117 22.8118 16.3698 22.7536 16.4277 22.6958C16.5482 22.5754 16.6682 22.4545 16.7881 22.3335C16.9416 22.1787 17.0966 22.0246 17.251 21.8706C17.3703 21.7515 17.4894 21.6317 17.6084 21.5122C17.6651 21.4553 17.7215 21.398 17.7783 21.3413C17.8578 21.2619 17.9366 21.1819 18.0156 21.1021C18.0606 21.0568 18.106 21.0119 18.1523 20.9653C18.389 20.698 18.4787 20.4993 18.4658 20.147C18.4232 19.8701 18.2944 19.6799 18.0869 19.4907ZM21.4238 20.9771C21.371 20.9766 21.3181 20.9766 21.2637 20.9761C20.8442 20.9817 20.5807 21.0796 20.291 21.3989C20.1729 21.6494 20.1513 21.8464 20.1992 22.1187C20.3396 22.4048 20.505 22.5541 20.7842 22.7036C20.98 22.7367 21.1728 22.735 21.3711 22.7329C21.4293 22.7332 21.4879 22.7336 21.5479 22.7339C21.7398 22.7346 21.9321 22.733 22.124 22.7319C22.2575 22.7319 22.391 22.7327 22.5244 22.7329C22.8044 22.733 23.0853 22.7323 23.3652 22.731C23.7236 22.7293 24.082 22.7292 24.4404 22.73C24.7164 22.7304 24.9926 22.7297 25.2686 22.729C25.4007 22.7287 25.5329 22.7288 25.665 22.729C25.8498 22.7292 26.0349 22.7283 26.2197 22.7271C26.2741 22.7273 26.3288 22.7278 26.3848 22.728C26.7569 22.7238 27.0105 22.6633 27.293 22.4038C27.4494 22.1373 27.4941 21.8821 27.418 21.5796C27.2988 21.2957 27.1591 21.1906 26.8857 21.0581C26.6464 20.9701 26.4127 20.9748 26.1602 20.9771C26.1032 20.9766 26.046 20.9765 25.9873 20.9761H25.0332C24.7598 20.9757 24.4863 20.976 24.2129 20.9771C23.8628 20.9784 23.5122 20.9775 23.1621 20.9761H21.9658C21.7853 20.9755 21.6044 20.9758 21.4238 20.9771ZM18.0869 14.1694C17.3809 13.9087 16.9849 14.3222 16.5186 14.7974C16.4752 14.841 16.4314 14.8842 16.3867 14.9292C16.2491 15.0679 16.1118 15.207 15.9746 15.3462C15.8365 15.4859 15.698 15.6256 15.5596 15.7651C15.4737 15.8518 15.3883 15.9389 15.3027 16.0259C15.2641 16.0649 15.2254 16.1038 15.1855 16.144C15.1516 16.1784 15.1179 16.2131 15.083 16.2485C14.9958 16.3295 14.9949 16.3297 14.8779 16.3882C14.8586 16.3303 14.8402 16.272 14.8203 16.2124H14.7031V16.0962C14.4141 15.7985 14.1108 15.5087 13.6836 15.4858C13.4196 15.4955 13.2665 15.5675 13.0654 15.7446C12.8917 15.9662 12.8368 16.1657 12.832 16.4468C12.9972 16.9035 13.3274 17.2094 13.667 17.5425C13.7641 17.6379 13.8601 17.7349 13.9561 17.8315C14.0179 17.893 14.0796 17.9548 14.1416 18.0161C14.17 18.0447 14.1982 18.0736 14.2275 18.103C14.4543 18.3236 14.6411 18.4166 14.9512 18.4644C15.5109 18.3897 15.926 17.8791 16.3047 17.4966C16.3612 17.4401 16.4181 17.3841 16.4746 17.3276C16.5921 17.2101 16.7092 17.0922 16.8262 16.9741C16.9757 16.8233 17.126 16.6729 17.2764 16.5229C17.3927 16.4068 17.5091 16.2908 17.625 16.1743C17.707 16.092 17.7889 16.0093 17.8711 15.9272C17.9209 15.8769 17.9712 15.8268 18.0225 15.7749C18.0662 15.7309 18.1093 15.6864 18.1543 15.6411C18.3896 15.3747 18.4787 15.1763 18.4658 14.8257C18.4231 14.5488 18.2944 14.3586 18.0869 14.1694ZM21.4238 15.6558C21.371 15.6553 21.3181 15.6553 21.2637 15.6548C20.8442 15.6604 20.5807 15.7583 20.291 16.0776C20.1729 16.3281 20.1513 16.5251 20.1992 16.7974C20.3396 17.0835 20.5051 17.2328 20.7842 17.3823C20.98 17.4154 21.1728 17.4137 21.3711 17.4116C21.4293 17.4119 21.4879 17.4123 21.5479 17.4126C21.7398 17.4133 21.9321 17.4127 22.124 17.4116C22.2575 17.4116 22.391 17.4115 22.5244 17.4116C22.8044 17.4117 23.0853 17.411 23.3652 17.4097C23.7236 17.408 24.082 17.4079 24.4404 17.4087C24.7164 17.4091 24.9926 17.4084 25.2686 17.4077C25.4007 17.4075 25.5329 17.4075 25.665 17.4077C25.8498 17.4079 26.0349 17.407 26.2197 17.4058C26.2741 17.406 26.3288 17.4065 26.3848 17.4067C26.7569 17.4025 27.0105 17.342 27.293 17.0825C27.4494 16.8159 27.4941 16.5608 27.418 16.2583C27.2988 15.9744 27.1591 15.8693 26.8857 15.7368C26.6464 15.6488 26.4127 15.6535 26.1602 15.6558C26.1032 15.6554 26.046 15.6552 25.9873 15.6548C25.8002 15.6538 25.6129 15.655 25.4258 15.6558C25.295 15.6556 25.164 15.6551 25.0332 15.6548C24.7598 15.6544 24.4863 15.6547 24.2129 15.6558C23.8628 15.6571 23.5122 15.6562 23.1621 15.6548H21.9658C21.7853 15.6542 21.6044 15.6545 21.4238 15.6558ZM36.1357 9.00342C36.8927 9.01744 37.6086 9.29566 38.1523 9.83936C38.7555 10.5876 38.9911 11.1956 38.9824 12.1548C38.9823 12.2163 38.9825 12.2779 38.9824 12.3413C38.9818 12.5695 38.98 12.7977 38.9785 13.0259C38.9761 13.5372 38.9742 14.0488 38.9717 14.5757H33.0068C33.002 14.08 32.9972 13.5844 32.9922 13.0737C32.989 12.8414 32.9896 12.841 32.9863 12.604C32.9856 12.479 32.9849 12.354 32.9844 12.229C32.9832 12.166 32.9817 12.1025 32.9805 12.0376C32.9801 11.1811 33.278 10.4563 33.8545 9.82861C34.4349 9.27106 35.1797 8.99718 35.9785 9.00244C36.0304 9.00277 36.0823 9.00308 36.1357 9.00342Z" fill="white"/>
</svg>
