<svg width="48" height="48" viewBox="0 0 48 48" fill="none" xmlns="http://www.w3.org/2000/svg">
<rect width="48" height="48" rx="8" fill="#D94775"/>
<path d="M32.5559 11.4801C33.0761 11.48 33.4444 11.5763 33.8479 11.9157C34.1583 12.299 34.2478 12.6199 34.2483 13.11C34.2486 13.1951 34.249 13.2802 34.2493 13.3678C34.2492 13.4625 34.2484 13.5573 34.2483 13.652C34.2485 13.7525 34.2491 13.8533 34.2493 13.9538C34.2498 14.2301 34.2502 14.5065 34.2503 14.7829C34.2504 15.0809 34.2508 15.3794 34.2512 15.6774C34.2521 16.3291 34.2519 16.9808 34.2522 17.6325C34.2524 18.0394 34.2529 18.4463 34.2532 18.8532C34.254 19.9795 34.2549 21.1058 34.2552 22.2321V23.3297C34.2554 24.507 34.2566 25.6847 34.2581 26.862C34.2596 28.0703 34.2609 29.2786 34.261 30.487C34.2611 31.1656 34.2608 31.8445 34.262 32.5231C34.263 33.1009 34.2635 33.6787 34.263 34.2565C34.2627 34.5513 34.263 34.8464 34.2639 35.1413V36.2438C34.2671 36.8322 34.2466 37.273 33.9378 37.7838C33.4906 38.2191 33.0495 38.3085 32.4417 38.3024C32.3676 38.3029 32.2934 38.3038 32.2171 38.3043C31.97 38.3058 31.7229 38.3042 31.4759 38.3034C31.2982 38.3037 31.1203 38.3045 30.9427 38.3053C30.511 38.307 30.0794 38.307 29.6477 38.3063C29.2966 38.3057 28.9451 38.3058 28.594 38.3063C28.5192 38.3064 28.5191 38.3072 28.4427 38.3073C28.3411 38.3074 28.2395 38.3071 28.138 38.3073C27.1854 38.3085 26.2322 38.3078 25.2796 38.3063C24.4632 38.3051 23.6468 38.3062 22.8303 38.3083C21.8812 38.3107 20.9318 38.3111 19.9827 38.3102H19.5276C19.1772 38.31 18.8263 38.3111 18.4759 38.3122C18.0486 38.3135 17.6209 38.313 17.1936 38.3112C16.9759 38.3103 16.7581 38.31 16.5403 38.3112C16.3037 38.3124 16.0669 38.312 15.8303 38.3102C15.7624 38.3111 15.6943 38.3112 15.6243 38.3122C15.1403 38.3048 14.794 38.1762 14.4163 37.8688C14.1055 37.4865 14.0165 37.1647 14.0159 36.6754C14.0156 36.5904 14.0152 36.5052 14.0149 36.4176C14.015 36.3231 14.0158 36.228 14.0159 36.1334C14.0157 36.033 14.0151 35.9321 14.0149 35.8317C14.0144 35.5553 14.014 35.2789 14.0139 35.0026C14.0138 34.7046 14.0134 34.4061 14.013 34.1081C14.0121 33.4564 14.0123 32.8047 14.012 32.153C14.0118 31.7462 14.0113 31.3391 14.011 30.9323C14.0102 29.8059 14.0093 28.6788 14.0091 27.5524V26.4557C14.0088 25.2784 14.0076 24.1008 14.0061 22.9235C14.0046 21.7152 14.0033 20.5068 14.0032 19.2985C14.0031 18.6199 14.0034 17.941 14.0022 17.2624C14.0012 16.6846 14.0007 16.1067 14.0012 15.529C14.0015 15.2341 14.0012 14.939 14.0003 14.6442V13.5417C13.9971 12.9533 14.0176 12.5124 14.3264 12.0016C14.8113 11.5296 15.2822 11.4787 15.9387 11.4928C16.0609 11.4935 16.061 11.4931 16.1858 11.4938C16.401 11.4953 16.6162 11.499 16.8313 11.5026C17.0516 11.5059 17.2721 11.5068 17.4925 11.5084C17.9232 11.512 18.3538 11.5182 18.7845 11.5251C18.7851 11.5744 18.7858 11.6237 18.7864 11.6745C18.7899 11.9029 18.7956 12.1317 18.8011 12.36C18.802 12.4379 18.803 12.5161 18.804 12.5963C18.8209 13.2174 18.9117 13.8421 19.343 14.3209C19.3807 14.3651 19.4185 14.4092 19.4573 14.4547C19.9669 14.8478 20.482 14.9639 21.1136 14.9586C21.1861 14.9593 21.2586 14.9599 21.3333 14.9606C21.5712 14.9624 21.8092 14.9624 22.0471 14.9616C22.2138 14.962 22.3805 14.962 22.5471 14.9626C22.8957 14.9633 23.2445 14.9629 23.593 14.9616C23.994 14.9601 24.3952 14.9611 24.7962 14.9635C25.1842 14.9658 25.5722 14.9663 25.9602 14.9655C26.1243 14.9654 26.2884 14.9653 26.4524 14.9665C27.7334 14.9941 27.7336 14.9945 28.8333 14.4088C29.3925 13.8451 29.4542 13.117 29.4632 12.36C29.4651 12.2794 29.467 12.1989 29.469 12.1159C29.4736 11.919 29.4764 11.7219 29.4788 11.5251C29.9521 11.5159 30.4263 11.5088 30.8997 11.5045C31.1194 11.5025 31.3391 11.4992 31.5589 11.4948C31.8124 11.49 32.0661 11.4887 32.3196 11.487C32.3975 11.4849 32.4757 11.4822 32.5559 11.4801ZM17.2268 33.3463C16.9842 33.3878 16.8678 33.5225 16.6985 33.6959C16.5932 33.9065 16.5942 34.1207 16.6331 34.3483C16.7462 34.5453 16.8831 34.7012 17.0891 34.8043C17.4232 34.8439 17.4235 34.8438 17.7298 34.736C17.9778 34.5318 18.0602 34.4216 18.0921 34.1032C18.0904 33.8848 18.0513 33.7709 17.9124 33.6022C17.6823 33.3776 17.5506 33.344 17.2268 33.3463ZM19.6634 33.5417C19.4156 33.5682 19.2575 33.6312 19.0462 33.7614C18.9536 33.9466 18.9602 34.0778 18.9807 34.2829C19.1262 34.4684 19.212 34.5341 19.4368 34.609C19.5889 34.6155 19.7416 34.6175 19.8938 34.6178C19.9637 34.6181 19.964 34.6185 20.0354 34.6188C20.1923 34.6194 20.3492 34.6197 20.5061 34.6198C20.6186 34.6201 20.7316 34.6204 20.844 34.6208C21.1497 34.6216 21.4553 34.6214 21.761 34.6217C21.9519 34.6219 22.1433 34.6224 22.3343 34.6227C22.9318 34.6236 23.5297 34.6244 24.1272 34.6247C24.8173 34.625 25.5075 34.6257 26.1975 34.6276C26.7307 34.629 27.2639 34.6295 27.7971 34.6295C28.1157 34.6296 28.4346 34.6303 28.7532 34.6315C29.0527 34.6326 29.3522 34.633 29.6516 34.6325C29.7615 34.6324 29.8718 34.6328 29.9817 34.6334C30.1318 34.6343 30.2819 34.6332 30.4319 34.6325C30.5159 34.6326 30.6003 34.6334 30.6868 34.6334C30.9349 34.6069 31.0933 34.5431 31.305 34.4127C31.3974 34.2276 31.3909 34.0963 31.3704 33.8913C31.2249 33.7056 31.1383 33.6401 30.9134 33.5651C30.7614 33.5587 30.6093 33.5567 30.4573 33.5563C30.3872 33.556 30.3871 33.5556 30.3157 33.5553C30.1586 33.5548 30.0011 33.5554 29.844 33.5553C29.7317 33.555 29.6194 33.5547 29.5071 33.5543C29.2013 33.5535 28.895 33.5527 28.5891 33.5524C28.3982 33.5522 28.2069 33.5517 28.0159 33.5514C27.4186 33.5505 26.8212 33.5497 26.2239 33.5495C25.534 33.5492 24.8435 33.5484 24.1536 33.5465C23.6205 33.5451 23.0871 33.5447 22.554 33.5446C22.2355 33.5445 21.9165 33.5438 21.5979 33.5426C21.2982 33.5416 20.9982 33.5411 20.6985 33.5417H19.6634ZM17.2268 29.1725C16.9843 29.2139 16.8677 29.3488 16.6985 29.5221C16.5933 29.7326 16.5942 29.9469 16.6331 30.1745C16.7463 30.3717 16.8828 30.5283 17.0891 30.6315C17.4231 30.6711 17.4237 30.6709 17.7298 30.5631C17.9777 30.359 18.0602 30.2486 18.0921 29.9303C18.0905 29.7118 18.0513 29.5972 17.9124 29.4284C17.6824 29.204 17.5504 29.1702 17.2268 29.1725ZM19.6634 29.3678C19.4156 29.3944 19.2575 29.4575 19.0462 29.5876C18.9536 29.7727 18.9603 29.9041 18.9807 30.109C19.1262 30.2947 19.212 30.3602 19.4368 30.4352C19.5889 30.4417 19.7416 30.4446 19.8938 30.445C19.9637 30.4453 19.964 30.4447 20.0354 30.445C20.1923 30.4455 20.3492 30.4459 20.5061 30.4459C20.6186 30.4463 20.7316 30.4466 20.844 30.4469C21.1497 30.4478 21.4553 30.4486 21.761 30.4489C21.9519 30.4491 22.1433 30.4486 22.3343 30.4489C22.9318 30.4498 23.5297 30.4506 24.1272 30.4508C24.8173 30.4511 25.5075 30.4528 26.1975 30.4547C26.7307 30.4561 27.2639 30.4566 27.7971 30.4567C28.1157 30.4568 28.4346 30.4565 28.7532 30.4577C29.0527 30.4587 29.3522 30.4592 29.6516 30.4586C29.7615 30.4586 29.8718 30.459 29.9817 30.4596H30.6868C30.9349 30.4331 31.0934 30.3702 31.305 30.2399C31.3975 30.0547 31.3909 29.9233 31.3704 29.7184C31.2248 29.5327 31.1383 29.4672 30.9134 29.3922C30.7614 29.3858 30.6094 29.3828 30.4573 29.3825C30.3872 29.3822 30.3871 29.3828 30.3157 29.3825C30.1586 29.3819 30.0011 29.3816 29.844 29.3815C29.7317 29.3812 29.6194 29.3809 29.5071 29.3805C29.2013 29.3797 28.895 29.3789 28.5891 29.3786C28.3982 29.3784 28.2069 29.3789 28.0159 29.3786C27.4186 29.3777 26.8212 29.3769 26.2239 29.3766C25.534 29.3763 24.8435 29.3746 24.1536 29.3727C23.6205 29.3713 23.0871 29.3708 22.554 29.3708C22.2355 29.3707 21.9165 29.3709 21.5979 29.3698C21.2982 29.3687 20.9982 29.3682 20.6985 29.3688C20.5888 29.3689 20.4791 29.3685 20.3694 29.3678H19.6634ZM17.2268 24.9997C16.9842 25.0411 16.8678 25.1758 16.6985 25.3493C16.5933 25.5598 16.5942 25.774 16.6331 26.0016C16.7462 26.1986 16.8831 26.3546 17.0891 26.4577C17.4232 26.4973 17.4235 26.4971 17.7298 26.3893C17.9778 26.1851 18.0602 26.075 18.0921 25.7565C18.0905 25.5381 18.0513 25.4243 17.9124 25.2555C17.6823 25.0309 17.5506 24.9973 17.2268 24.9997ZM19.9182 25.195C19.8343 25.1949 19.7499 25.1941 19.6634 25.194C19.4155 25.2206 19.2576 25.2845 19.0462 25.4147C18.9536 25.5999 18.9602 25.7311 18.9807 25.9362C19.1262 26.1217 19.212 26.1874 19.4368 26.2624C19.5889 26.2688 19.7416 26.2708 19.8938 26.2711C19.9637 26.2714 19.964 26.2718 20.0354 26.2721C20.1923 26.2727 20.3492 26.272 20.5061 26.2721C20.6186 26.2724 20.7316 26.2727 20.844 26.2731C21.1497 26.274 21.4553 26.2748 21.761 26.2751C21.9519 26.2752 22.1433 26.2757 22.3343 26.276C22.9318 26.2769 23.5297 26.2777 24.1272 26.278C24.8173 26.2783 25.5075 26.279 26.1975 26.2809C26.7307 26.2823 27.2639 26.2828 27.7971 26.2829C28.1157 26.2829 28.4346 26.2837 28.7532 26.2848C29.0527 26.2859 29.3522 26.2864 29.6516 26.2858H30.6868C30.9349 26.2593 31.0933 26.1964 31.305 26.0661C31.3975 25.8809 31.3909 25.7496 31.3704 25.5446C31.2248 25.3589 31.1383 25.2934 30.9134 25.2184C30.7614 25.212 30.6093 25.21 30.4573 25.2096C30.3872 25.2093 30.3871 25.2089 30.3157 25.2086C30.1586 25.2081 30.0011 25.2078 29.844 25.2077C29.7317 25.2074 29.6194 25.207 29.5071 25.2067C29.2013 25.2058 28.895 25.206 28.5891 25.2057C28.3982 25.2055 28.2069 25.205 28.0159 25.2047C27.4186 25.2038 26.8212 25.203 26.2239 25.2028C25.534 25.2025 24.8435 25.2017 24.1536 25.1999C23.6205 25.1984 23.0871 25.198 22.554 25.1979C22.2355 25.1978 21.9165 25.1971 21.5979 25.1959C21.2982 25.1949 20.9982 25.1944 20.6985 25.195C20.5888 25.195 20.4791 25.1946 20.3694 25.194C20.2192 25.1932 20.0685 25.1943 19.9182 25.195ZM17.2268 20.8258C16.9843 20.8672 16.8677 21.0021 16.6985 21.1754C16.5932 21.386 16.5942 21.6002 16.6331 21.8278C16.7462 22.0249 16.8831 22.1807 17.0891 22.2838C17.4232 22.3234 17.4234 22.3233 17.7298 22.2155C17.9776 22.0114 18.0602 21.9018 18.0921 21.5836C18.0905 21.3652 18.0513 21.2505 17.9124 21.0817C17.6824 20.8573 17.5505 20.8235 17.2268 20.8258ZM19.6634 21.0211C19.4156 21.0477 19.2575 21.1108 19.0462 21.2409C18.9536 21.4261 18.9602 21.5574 18.9807 21.7624C19.1262 21.948 19.212 22.0136 19.4368 22.0885C19.5889 22.095 19.7416 22.097 19.8938 22.0973C19.9637 22.0976 19.964 22.098 20.0354 22.0983C20.1923 22.0989 20.3492 22.0992 20.5061 22.0993C20.6186 22.0996 20.7316 22.0999 20.844 22.1002C21.1497 22.1011 21.4553 22.1009 21.761 22.1012C21.9519 22.1014 22.1433 22.1019 22.3343 22.1022C22.9318 22.1031 23.5297 22.1039 24.1272 22.1042C24.8173 22.1044 25.5075 22.1052 26.1975 22.1071C26.7307 22.1085 27.2639 22.1099 27.7971 22.11C28.1157 22.1101 28.4346 22.1098 28.7532 22.111C29.0527 22.1121 29.3522 22.1125 29.6516 22.112C29.7615 22.1119 29.8718 22.1123 29.9817 22.1129H30.6868C30.9349 22.0864 31.0934 22.0235 31.305 21.8932C31.3975 21.7081 31.3909 21.5766 31.3704 21.3717C31.2248 21.186 31.1383 21.1206 30.9134 21.0456C30.7614 21.0391 30.6094 21.0361 30.4573 21.0358C30.3872 21.0355 30.3871 21.0361 30.3157 21.0358C30.1586 21.0352 30.0011 21.0349 29.844 21.0348C29.7317 21.0345 29.6194 21.0342 29.5071 21.0338C29.2013 21.033 28.895 21.0322 28.5891 21.0319C28.3982 21.0317 28.2069 21.0322 28.0159 21.0319C27.4186 21.031 26.8212 21.0302 26.2239 21.0299C25.534 21.0296 24.8435 21.0279 24.1536 21.026C23.6205 21.0246 23.0871 21.0242 22.554 21.0241C22.2355 21.024 21.9165 21.0233 21.5979 21.0221C21.2982 21.021 20.9982 21.0215 20.6985 21.0221C20.5888 21.0222 20.4791 21.0218 20.3694 21.0211H19.6634ZM17.2268 16.653C16.9842 16.6944 16.8679 16.8291 16.6985 17.0026C16.5934 17.213 16.5943 17.4266 16.6331 17.654C16.7463 17.8512 16.8829 18.0078 17.0891 18.111C17.4231 18.1506 17.4236 18.1504 17.7298 18.0426C17.9778 17.8385 18.0602 17.7283 18.0921 17.4098C18.0905 17.1913 18.0513 17.0776 17.9124 16.9088C17.6822 16.6842 17.5506 16.6506 17.2268 16.653ZM19.9182 16.8483C19.8343 16.8482 19.7499 16.8474 19.6634 16.8473C19.4157 16.8739 19.2574 16.937 19.0462 17.067C18.9535 17.2523 18.9602 17.3844 18.9807 17.5895C19.1261 17.775 19.212 17.8407 19.4368 17.9157C19.5889 17.9221 19.7416 17.9241 19.8938 17.9245C19.9637 17.9248 19.964 17.9251 20.0354 17.9254C20.1923 17.926 20.3492 17.9253 20.5061 17.9254C20.6186 17.9257 20.7316 17.9261 20.844 17.9264C21.1497 17.9273 21.4553 17.9281 21.761 17.9284C21.9519 17.9286 22.1433 17.9291 22.3343 17.9293C22.9318 17.9302 23.5297 17.9301 24.1272 17.9303C24.8173 17.9306 25.5075 17.9323 26.1975 17.9342C26.7307 17.9356 27.2639 17.9361 27.7971 17.9362C28.1157 17.9363 28.4346 17.937 28.7532 17.9381C29.0527 17.9392 29.3522 17.9387 29.6516 17.9381C29.7615 17.9381 29.8718 17.9385 29.9817 17.9391H30.6868C30.9349 17.9126 31.0933 17.8497 31.305 17.7194C31.3975 17.5342 31.3909 17.403 31.3704 17.1979C31.2248 17.0122 31.1383 16.9467 30.9134 16.8717C30.7614 16.8653 30.6093 16.8633 30.4573 16.8629C30.3872 16.8627 30.3871 16.8623 30.3157 16.862C30.1586 16.8614 30.0011 16.8611 29.844 16.861C29.7317 16.8607 29.6194 16.8604 29.5071 16.86C29.2013 16.8592 28.895 16.8593 28.5891 16.859C28.3982 16.8588 28.2069 16.8584 28.0159 16.8581C27.4186 16.8572 26.8212 16.8564 26.2239 16.8561C25.534 16.8558 24.8435 16.8551 24.1536 16.8532C23.6205 16.8518 23.0871 16.8513 22.554 16.8512C22.2355 16.8512 21.9165 16.8504 21.5979 16.8493C21.2982 16.8482 20.9982 16.8477 20.6985 16.8483C20.5888 16.8483 20.4791 16.848 20.3694 16.8473C20.2192 16.8465 20.0685 16.8476 19.9182 16.8483ZM22.6096 9.63833C23.0965 8.87948 24.4348 8.8756 25.1624 9.22036C25.4522 9.39823 25.7289 9.6104 25.9124 9.90005C26.0103 10.0365 26.0105 10.0368 26.1604 10.0553C26.213 10.0546 26.2655 10.0531 26.3196 10.0524C26.3781 10.053 26.4371 10.0537 26.4973 10.0543C26.619 10.0533 26.7409 10.0521 26.8626 10.0504C27.3733 10.0567 27.7437 10.1922 28.1165 10.5485C28.1588 10.6098 28.1591 10.6097 28.2024 10.6725C28.2319 10.7134 28.261 10.7545 28.2913 10.7965C28.5524 11.2699 28.5211 11.7485 28.5198 12.2741C28.5209 12.3591 28.5226 12.4443 28.5237 12.5319V13.0084C28.477 13.415 28.2802 13.6725 27.9778 13.9372C27.7921 13.999 27.6763 14.0107 27.4837 14.0114C27.392 14.0119 27.3918 14.0118 27.2981 14.0124C27.2311 14.0124 27.1641 14.0133 27.095 14.0133C26.9891 14.0138 26.9889 14.0138 26.8811 14.0143C26.6466 14.0153 26.4115 14.0149 26.177 14.0153C26.0144 14.0157 25.8514 14.0159 25.6887 14.0163C25.3912 14.0169 25.0937 14.018 24.7962 14.0182C24.402 14.0185 24.0078 14.0194 23.6136 14.0211C23.1905 14.0229 22.7671 14.023 22.344 14.0231C22.1827 14.0233 22.021 14.0242 21.8596 14.0251C21.6344 14.0262 21.4091 14.0265 21.1839 14.026C21.1171 14.0266 21.0496 14.0264 20.9807 14.027C20.588 14.0247 20.3437 13.9915 20.052 13.7086C19.7167 13.2905 19.7479 12.9444 19.7464 12.4254C19.7457 12.2962 19.7435 12.167 19.7415 12.0377C19.7392 11.4851 19.7547 11.0001 20.1331 10.5622C20.1614 10.5277 20.1898 10.4932 20.219 10.4577C20.6442 10.1068 21.0214 10.0641 21.5589 10.0739C22.0066 10.0777 22.0069 10.0772 22.4114 9.91665C22.5224 9.78309 22.5232 9.78311 22.6096 9.63833Z" fill="white"/>
</svg>
