<svg width="48" height="48" viewBox="0 0 48 48" fill="none" xmlns="http://www.w3.org/2000/svg">
<rect width="48" height="48" rx="8" fill="#379F79"/>
<path d="M32.4861 10C32.4861 10.5124 32.0692 10.9292 31.5569 10.9292C31.0446 10.9292 30.6277 10.5124 30.6277 10H28.7888C28.7888 10.5124 28.372 10.9292 27.8597 10.9292C27.3474 10.9292 26.9305 10.5124 26.9305 10H25.0917C25.0917 10.5124 24.6748 10.9292 24.1625 10.9292C23.6501 10.9292 23.2333 10.5124 23.2333 10H21.3944C21.3944 10.5124 20.9775 10.9292 20.4652 10.9292C19.9529 10.9292 19.5361 10.5124 19.5361 10H17.6972C17.6972 10.5124 17.2804 10.9292 16.768 10.9292C16.2557 10.9292 15.8388 10.5124 15.8388 10H14V38.1958H15.8388C15.8388 37.6835 16.2557 37.2666 16.768 37.2666C17.2804 37.2666 17.6972 37.6835 17.6972 38.1958H19.5361C19.5361 37.6835 19.9529 37.2666 20.4652 37.2666C20.9775 37.2666 21.3944 37.6835 21.3944 38.1958H23.2333C23.2333 37.6835 23.6501 37.2666 24.1625 37.2666C24.6748 37.2666 25.0917 37.6835 25.0917 38.1958H26.9305C26.9305 37.6835 27.3474 37.2666 27.8597 37.2666C28.372 37.2666 28.7888 37.6835 28.7888 38.1958H30.6277C30.6277 37.6835 31.0446 37.2666 31.5569 37.2666C32.0692 37.2666 32.4861 37.6835 32.4861 38.1958H34.3249V10H32.4861ZM18.3194 15.6377H25.7138V17.4766H18.3194V15.6377ZM18.3194 19.7359H25.7138V21.5748H18.3194V19.7359ZM18.3194 25.6731V23.8342H25.7138V25.6731H18.3194ZM30.0055 32.3241H22.3139V30.4852H30.0055V32.3241ZM30.0055 25.6731H27.5624V23.8342H30.0055V25.6731ZM30.0055 21.5748H27.5624V19.736H30.0055V21.5748ZM30.0055 17.4766H27.5624V15.6378H30.0055V17.4766Z" fill="white"/>
</svg>
