<svg width="48" height="48" viewBox="0 0 48 48" fill="none" xmlns="http://www.w3.org/2000/svg">
<rect width="48" height="48" rx="8" fill="#D95541"/>
<path d="M24.5 10C18.7014 10 14 14.7014 14 20.5C14 22.7833 14.7486 24.8785 15.9928 26.5944C16.0151 26.6355 16.0186 26.6814 16.044 26.7208L23.044 37.2208C23.3686 37.7078 23.9155 38 24.5 38C25.0845 38 25.6314 37.7078 25.956 37.2208L32.956 26.7208C32.9818 26.6814 32.9849 26.6355 33.0072 26.5944C34.2514 24.8785 35 22.7833 35 20.5C35 14.7014 30.2986 10 24.5 10ZM24.5 24C22.5671 24 21 22.4329 21 20.5C21 18.5671 22.5671 17 24.5 17C26.4329 17 28 18.5671 28 20.5C28 22.4329 26.4329 24 24.5 24Z" fill="white"/>
</svg>
