<svg width="48" height="48" viewBox="0 0 48 48" fill="none" xmlns="http://www.w3.org/2000/svg">
<rect width="48" height="48" rx="8" fill="#7C4991"/>
<path d="M37.5908 36.9668H8V35.7676H37.5908V36.9668ZM39.9512 36.9668H38.3516V35.7676H39.9512V36.9668ZM37.5908 33.9668H8V32.7676H37.5908V33.9668ZM39.9512 33.9668H38.3516V32.7676H39.9512V33.9668ZM37.5908 30.9678H8V29.7686H37.5908V30.9678ZM39.9512 30.9678H38.3516V29.7686H39.9512V30.9678ZM14.9326 14.666C15.2266 14.6664 15.4648 14.9051 15.4648 15.1992V20.5303C15.4648 20.8244 15.7039 21.0633 15.998 21.0635H22.3965C22.6906 21.0636 22.9295 21.3025 22.9297 21.5967V24.7959C22.9297 25.0901 22.6907 25.329 22.3965 25.3291H20.7969C20.7969 26.5053 19.8401 27.4618 18.6641 27.4619C17.488 27.4618 16.5312 26.5052 16.5312 25.3291H14.3984C14.3984 26.5051 13.4426 27.4616 12.2666 27.4619C11.4807 27.4619 10.7997 27.03 10.4297 26.3955H8.53418C8.23989 26.3955 8.00098 26.1566 8.00098 25.8623V20.5303C8.01374 20.4638 8.02636 20.399 8.03906 20.332L10.1719 15.001C10.253 14.7986 10.449 14.666 10.667 14.666H14.9326ZM39.457 21.0635C39.751 21.0637 39.9901 21.3027 39.9902 21.5967V24.7959C39.9902 25.09 39.7511 25.3288 39.457 25.3291H37.8574C37.8574 26.5051 36.9007 27.4617 35.7246 27.4619C34.5485 27.4619 33.5918 26.5053 33.5918 25.3291H30.3926C30.3926 26.5052 29.4359 27.4618 28.2598 27.4619C27.0854 27.4618 26.1308 26.5082 26.1279 25.335L24.5264 25.3359C24.358 25.3359 24.1989 25.2564 24.0986 25.1221C24.0391 25.0424 24.0033 24.949 23.9941 24.8525V21.5967C23.9943 21.3027 24.2333 21.0637 24.5273 21.0635H39.457ZM12.2666 24.2627C11.6785 24.2627 11.2003 24.7411 11.2002 25.3291C11.2002 25.9172 11.6785 26.3955 12.2666 26.3955C12.8544 26.3952 13.3329 25.917 13.333 25.3291C13.3329 24.7412 12.8544 24.263 12.2666 24.2627ZM18.6641 24.2627C18.0761 24.2629 17.5977 24.7412 17.5977 25.3291C17.5977 25.9171 18.0761 26.3953 18.6641 26.3955C19.2521 26.3954 19.7304 25.9171 19.7305 25.3291C19.7304 24.7411 19.252 24.2628 18.6641 24.2627ZM28.2598 24.2627C27.6718 24.2628 27.1935 24.7412 27.1934 25.3291C27.1934 25.9172 27.6718 26.3954 28.2598 26.3955C28.8478 26.3954 29.3261 25.9171 29.3262 25.3291C29.3261 24.7411 28.8477 24.2628 28.2598 24.2627ZM35.7246 24.2627C35.1365 24.2627 34.6583 24.7411 34.6582 25.3291C34.6582 25.9172 35.1365 26.3955 35.7246 26.3955C36.3126 26.3953 36.791 25.9171 36.791 25.3291C36.7909 24.7412 36.3125 24.2629 35.7246 24.2627ZM39.4561 12C39.7508 12.0001 39.9892 12.2757 39.9893 12.6152V19.4648C39.989 19.7589 39.7501 19.998 39.4561 19.998H17.0625C16.7685 19.9979 16.5295 19.7588 16.5293 19.4648V12.6152C16.5293 12.2758 16.7678 12.0002 17.0625 12H39.4561ZM10.8438 16.7988C10.7366 16.7988 10.6397 16.8633 10.5986 16.9619L9.47754 19.6279C9.40372 19.8037 9.53206 19.9968 9.72266 19.9971H12.5332C12.6802 19.9968 12.7998 19.8774 12.7998 19.7305V17.0654C12.7998 16.9184 12.6801 16.7991 12.5332 16.7988H10.8438Z" fill="white"/>
</svg>
