<svg width="48" height="48" viewBox="0 0 48 48" fill="none" xmlns="http://www.w3.org/2000/svg">
<rect width="48" height="48" rx="8" fill="#77AD58"/>
<path d="M10.6318 35.4331C13.726 35.4239 13.7264 35.4234 16.8203 35.4116C17.4203 35.4106 17.4208 35.4108 17.7021 35.4106C17.8975 35.4104 18.0928 35.409 18.2881 35.4077C18.5382 35.4061 18.7889 35.4064 19.0391 35.4067C19.1302 35.4067 19.2214 35.4057 19.3125 35.4048C20.6031 35.3925 21.4332 35.8755 22.334 36.7515C22.5611 36.9746 22.7855 37.2003 23.0098 37.4263C23.0767 37.4935 23.144 37.5612 23.2109 37.6284C23.3725 37.7906 23.5341 37.9533 23.6953 38.1157C23.8641 38.0395 23.9827 37.9585 24.1113 37.8257C24.1453 37.7909 24.1798 37.756 24.2148 37.7202C24.269 37.6641 24.2687 37.6635 24.3242 37.606C24.4029 37.5258 24.4818 37.4458 24.5605 37.3657C24.6835 37.2399 24.8063 37.1141 24.9287 36.9878C25.4841 36.4157 25.9952 35.9146 26.75 35.6147C26.8057 35.5921 26.8616 35.5697 26.9189 35.5464C27.2049 35.4473 27.4634 35.426 27.7656 35.4263C27.8046 35.4262 27.8437 35.4253 27.8838 35.4253C28.0143 35.4252 28.1449 35.426 28.2754 35.4263C28.3704 35.4263 28.4655 35.4263 28.5605 35.4263C28.8153 35.4263 29.0704 35.4268 29.3252 35.4272C29.5644 35.4276 29.8038 35.4272 30.043 35.4272C30.7422 35.4276 31.4414 35.4284 32.1406 35.4292C34.4843 35.431 34.4849 35.4313 36.876 35.4331V19.5698H38.6836V37.1821C34.2262 37.204 34.2257 37.2044 32.8232 37.2104C32.4049 37.2128 32.4046 37.2129 31.9863 37.2153C31.8014 37.2164 31.6165 37.2167 31.4316 37.2173C31.1945 37.2181 30.9569 37.2195 30.7197 37.2212C30.6335 37.2217 30.5472 37.222 30.4609 37.2222C30.0103 37.2229 29.5661 37.241 29.1182 37.2915C29.0783 37.2959 29.0381 37.3007 28.9971 37.3052C27.9782 37.4313 27.0901 37.9267 26.3203 38.5825C26.2793 38.6422 26.2376 38.7017 26.1953 38.7632C25.9183 39.0389 25.4953 38.985 25.1299 38.9849C25.0826 38.9847 25.035 38.985 24.9863 38.9849C24.889 38.9855 24.7917 38.986 24.6943 38.9868C24.4902 38.9881 24.2861 38.9877 24.082 38.9868C23.8217 38.9858 23.5611 38.9896 23.3008 38.9937C23.0996 38.9962 22.8985 38.9961 22.6973 38.9956C22.6014 38.9957 22.505 38.9968 22.4092 38.9985C21.9359 39.0062 21.5669 39.0088 21.1953 38.6743C21.1142 38.586 21.0334 38.4967 20.9541 38.4067C20.3297 37.9174 19.5577 37.6138 18.7969 37.4155C18.7621 37.4057 18.7272 37.3963 18.6914 37.3862C18.1492 37.2543 17.5895 37.2793 17.0352 37.2769C16.9168 37.2759 16.7981 37.275 16.6797 37.2739C16.3659 37.2713 16.0521 37.2689 15.7383 37.2671C13.4333 37.253 11.129 37.2187 8.82422 37.1821V19.5698H10.6318V35.4331ZM14.3076 18.4038C14.7253 20.4014 15.4942 22.124 16.9316 23.5942C16.9745 23.64 17.0174 23.6858 17.0615 23.7329C18.6305 25.3733 20.7061 26.0336 22.8799 26.4517V34.9663C22.7008 34.8767 22.5431 34.7819 22.3779 34.6704C19.5829 32.7967 15.1637 33.7055 12.3828 33.6831V17.8208H14.1904C14.2289 18.0132 14.268 18.2056 14.3076 18.4038ZM35.126 33.6831C32.7397 33.7024 30.3531 33.7219 27.8945 33.7417C26.7184 33.8887 25.7633 34.1157 24.8447 34.8911C24.7453 34.966 24.7455 34.9663 24.6289 34.9663V26.4517C25.1293 26.3554 25.63 26.2598 26.1455 26.1606C27.7101 25.6957 29.083 24.9995 30.2861 23.8862C30.3159 23.8587 30.3453 23.8306 30.376 23.8022C32.1211 22.167 32.8611 20.1069 33.3184 17.8208H35.126V33.6831ZM21.9512 9.21338C23.0716 8.91445 24.5651 8.93357 25.6787 9.24756C25.7253 9.26041 25.7723 9.27338 25.8203 9.28662C27.7787 9.84442 29.4643 11.0493 30.5195 12.8052C30.543 12.844 30.5666 12.8833 30.5908 12.9233C30.9838 13.5854 31.2456 14.2807 31.4521 15.021C31.4634 15.0608 31.4747 15.1011 31.4863 15.1421C31.7854 16.2627 31.7662 17.7568 31.4521 18.8706C31.4393 18.917 31.4263 18.9634 31.4131 19.0112C31.0284 20.3621 30.3734 21.4661 29.4111 22.4858C29.3719 22.5288 29.3324 22.5724 29.292 22.6167C28.3186 23.6446 27.0278 24.2716 25.6787 24.644C25.6194 24.6608 25.6193 24.6611 25.5586 24.6782C24.4379 24.9774 22.9441 24.9582 21.8301 24.644C21.7835 24.6312 21.7365 24.6182 21.6885 24.605C19.7301 24.0472 18.0445 22.8422 16.9893 21.0864C16.9658 21.0477 16.9421 21.0091 16.918 20.9692C16.6351 20.4927 16.4167 20.0036 16.2383 19.479C16.2144 19.4091 16.2149 19.4088 16.1904 19.3374C15.9388 18.5529 15.8481 17.78 15.8555 16.9604C15.8557 16.9173 15.8562 16.874 15.8564 16.8296C15.871 14.635 16.7638 12.6905 18.3193 11.1528C18.7167 10.7743 19.1445 10.4635 19.6143 10.1812C19.653 10.1577 19.6915 10.134 19.7314 10.1099C20.3938 9.71671 21.0895 9.45421 21.8301 9.24756C21.8897 9.23069 21.8902 9.23063 21.9512 9.21338ZM22.8799 21.3198H24.6289V16.0708H22.8799V21.3198ZM22.8799 14.3218H24.6289V12.5718H22.8799V14.3218Z" fill="white"/>
</svg>
