<svg width="48" height="48" viewBox="0 0 48 48" fill="none" xmlns="http://www.w3.org/2000/svg">
<rect width="48" height="48" rx="8" fill="#11A4BB"/>
<path d="M21.6279 9C21.8556 8.99545 35.4915 12.4671 35.5957 12.5576C35.6543 12.6103 35.7011 12.7158 35.7012 12.792C35.7012 12.8682 34.9339 15.9869 34.002 19.7266C33.0739 23.4506 32.3081 26.5119 32.3018 26.5547C32.3018 26.5723 32.4072 26.584 32.5361 26.584C32.8702 26.584 33.2041 26.7665 33.3213 27.0186C33.4032 27.2005 33.415 27.7478 33.415 32.751C33.415 37.9909 33.4092 38.29 33.3096 38.4775C33.2509 38.5889 33.1103 38.7295 32.999 38.7881C32.8114 38.8877 32.3995 38.8936 23.6855 38.8936C14.7526 38.8936 14.5645 38.8936 14.3828 38.7764C14.2774 38.7177 14.1485 38.5947 14.0898 38.501C13.9902 38.3486 13.9844 38.0081 13.9844 31.8008C13.9844 25.4783 13.9903 25.2598 14.0957 25.1016C14.3126 24.785 14.3243 24.7793 16.9561 24.7383L19.3945 24.6914L19.6465 24.8203C19.8223 24.9141 20.0976 25.1777 20.5195 25.6699C20.8595 26.0685 21.206 26.4375 21.2939 26.4902C21.4288 26.5723 21.9625 26.584 26.7568 26.584H32.0674V20.4004C32.0674 14.8125 32.0555 14.1939 31.9736 14.0234C31.8388 13.7597 31.7158 13.6358 31.4697 13.5068C31.2587 13.4013 31.0351 13.3955 25.7656 13.3955C20.7485 13.3955 20.2852 13.3897 20.2852 13.3018C20.2872 13.1943 21.1066 9.91361 21.2588 9.39844C21.3057 9.24604 21.3877 9.09376 21.4463 9.06445C21.499 9.0293 21.5811 9 21.6279 9ZM19.2598 33.9873C17.8125 33.9814 16.5994 33.999 16.499 34.0342C16.3936 34.0635 16.2178 34.1924 16.1064 34.3154C15.8544 34.5968 15.8076 34.8376 15.8428 35.6875C15.8662 36.3438 15.954 36.5781 16.2588 36.8066C16.4229 36.9297 16.4873 36.9297 19.1367 36.9473L21.8447 36.9648L22.0439 36.8301C22.4483 36.5547 22.4834 36.4551 22.501 35.5352C22.5127 34.7614 22.5069 34.6846 22.3838 34.4736C22.3075 34.3447 22.1552 34.1865 22.0439 34.1221C21.8447 34.0049 21.7446 33.999 19.2598 33.9873ZM21.5137 35.9629H16.8242V35.5059C16.8242 35.2545 16.8419 35.0264 16.8652 35.0078C16.8828 34.9844 17.938 34.9668 19.21 34.9668H21.5137V35.9629ZM31.0674 14.2168L31.1553 14.3516C31.2315 14.4747 31.2432 15.1486 31.2314 20.1133L31.2139 25.7344L26.4844 25.752L21.7598 25.7637L21.3613 25.3125C20.6111 24.4567 20.1534 24.0342 19.8955 23.958C19.731 23.9112 19.1509 23.8877 18.1201 23.8877H16.5898V19.1465C16.5898 14.9114 16.6017 14.3931 16.6836 14.3105C16.7657 14.2285 17.5045 14.2168 23.917 14.2168H31.0674ZM19.915 10.9404C19.9678 10.9346 19.5811 12.6228 19.3701 13.291C19.3406 13.3903 19.2214 13.3965 17.9629 13.3965C16.9433 13.3965 16.5391 13.4141 16.3984 13.4785C16.1464 13.5782 15.8535 13.9237 15.7773 14.1992C15.7363 14.3458 15.7129 16.0341 15.7129 19.1582V23.8936L15.2607 23.876L14.8037 23.8584L13.2393 18.8477C12.3789 16.097 11.676 13.7842 11.668 13.7129C11.668 13.6427 11.7091 13.5548 11.7559 13.5137C11.8028 13.4785 13.6437 12.8801 15.8418 12.1943C18.0439 11.5091 19.8713 10.9413 19.915 10.9404ZM18.5889 21.9541L18.4717 22.1064C18.3076 22.3116 18.3193 22.5576 18.4893 22.7568L18.6299 22.9209L23.7412 22.9385C27.2638 22.9502 28.9228 22.9326 29.0811 22.8916C29.2684 22.8389 29.3389 22.7861 29.4033 22.6279C29.497 22.3995 29.4266 22.1067 29.251 22.0127C29.1806 21.9775 27.1934 21.9541 23.8643 21.9541H18.5889ZM18.5186 19.3105C18.3017 19.5333 18.29 19.791 18.4951 19.9902L18.6357 20.1367H29.1748L29.3037 19.9961C29.4794 19.8086 29.4851 19.4689 29.3154 19.293L29.1865 19.1699L23.9404 19.1523L18.6943 19.1406L18.5186 19.3105ZM25.7158 16.3848C22.1173 16.3906 22.1993 16.3857 22.0527 16.6611C21.9416 16.8661 21.9707 17.0303 22.1523 17.2119L22.3223 17.3818H29.1279L29.2803 17.2471C29.5028 17.0596 29.5026 16.7081 29.2803 16.5205L29.1279 16.3848H25.7158Z" fill="white"/>
</svg>
