<svg width="48" height="48" viewBox="0 0 48 48" fill="none" xmlns="http://www.w3.org/2000/svg">
<rect width="48" height="48" rx="8" fill="#467EBB"/>
<path d="M24.6582 27.2041C25.2192 27.0171 25.8403 27.1367 26.4316 27.1367V39C24.8636 39 24.8631 39.0002 24.4541 38.7275C24.3577 38.5348 24.3768 38.3728 24.376 38.1572C24.3757 38.1124 24.3753 38.0676 24.375 38.0215C24.3742 37.8702 24.3743 37.7186 24.374 37.5674C24.3736 37.4591 24.3725 37.3504 24.3721 37.2422C24.3709 36.9475 24.3707 36.6521 24.3701 36.3574C24.3698 36.1735 24.3696 35.9895 24.3691 35.8057C24.3678 35.2301 24.3668 34.6546 24.3662 34.0791C24.3655 33.4142 24.3631 32.7488 24.3604 32.084C24.3583 31.5706 24.3576 31.0573 24.3574 30.5439C24.3573 30.2371 24.3572 29.9299 24.3555 29.623C24.3539 29.3344 24.3528 29.0455 24.3535 28.7568C24.3535 28.6509 24.3535 28.5444 24.3525 28.4385V27.7598C24.3934 27.5007 24.4736 27.3874 24.6582 27.2041ZM29.3662 27.834C29.3696 28.5934 29.3738 29.3529 29.3789 30.1123C29.382 30.573 29.3849 31.0345 29.3867 31.4951C29.3885 31.9391 29.3911 32.3831 29.3945 32.8271C29.3957 32.9969 29.397 33.1671 29.3975 33.3369C29.3981 33.5741 29.4001 33.8116 29.4023 34.0488C29.4022 34.1194 29.4015 34.19 29.4014 34.2627C29.4022 34.3272 29.4034 34.3916 29.4043 34.458C29.4046 34.514 29.405 34.5702 29.4053 34.6279C29.4376 34.8062 29.4924 34.8697 29.6357 34.9775C29.8464 34.9597 29.9908 34.8664 30.1621 34.748C30.2088 34.717 30.2557 34.6863 30.3037 34.6543C30.4012 34.5884 30.4981 34.5213 30.5947 34.4541C30.9509 34.2194 30.9515 34.2195 31.1719 34.2549C31.2552 34.3087 31.2558 34.3084 31.3408 34.3633C31.3989 34.3984 31.3988 34.3987 31.458 34.4346C31.6381 34.5437 31.8156 34.6567 31.9922 34.7715C32.2324 34.9333 32.2327 34.9333 32.5098 34.959C32.649 34.9194 32.6494 34.9196 32.7041 34.7725C32.7112 34.6708 32.714 34.5687 32.7148 34.4668C32.7155 34.4025 32.7161 34.3378 32.7168 34.2715C32.7172 34.2007 32.7174 34.1296 32.7178 34.0566C32.7184 33.9821 32.719 33.9068 32.7197 33.8301C32.7219 33.583 32.7239 33.3359 32.7256 33.0889C32.727 32.918 32.729 32.7471 32.7305 32.5762C32.7339 32.1715 32.7363 31.766 32.7393 31.3613C32.743 30.8556 32.7468 30.3495 32.751 29.8438C32.7583 28.9414 32.7658 28.0391 32.7725 27.1367H35.0908V39H27.1133V27.1367H29.3633C29.3643 27.3668 29.3652 27.5969 29.3662 27.834ZM35.7031 27.1367C37.3395 27.1367 37.3398 27.1365 37.6807 27.4092C37.8116 27.6965 37.8344 27.9493 37.835 28.2627C37.8354 28.3509 37.8354 28.4394 37.8359 28.5303C37.8358 28.627 37.8361 28.7236 37.8359 28.8203C37.8362 28.923 37.8365 29.0262 37.8369 29.1289C37.8378 29.4072 37.8371 29.6856 37.8369 29.9639C37.8368 30.1965 37.8376 30.4295 37.8379 30.6621C37.8386 31.2109 37.8383 31.7598 37.8379 32.3086C37.8375 32.8743 37.8384 33.4402 37.8398 34.0059C37.841 34.4921 37.842 34.9786 37.8418 35.4648C37.8417 35.755 37.8418 36.0457 37.8428 36.3359V37.4541C37.8479 38.431 37.848 38.4314 37.6123 38.7949C37.2714 38.9995 37.2713 39 35.7031 39V27.1367ZM30.0459 26.4541C27.5232 26.4754 27.5225 26.4753 26.7285 26.4805C26.4922 26.483 26.492 26.4836 26.2559 26.4863C26.1512 26.4874 26.0461 26.4879 25.9414 26.4883C25.782 26.489 25.6223 26.491 25.4629 26.4932C25.3733 26.4939 25.2837 26.4943 25.1914 26.4951C24.8531 26.5305 24.5252 26.6043 24.2656 26.835C24.0536 26.9704 23.8569 26.9602 23.6133 26.958C23.5627 26.9584 23.512 26.9586 23.46 26.959C23.2907 26.9599 23.1214 26.9595 22.9521 26.959C22.8308 26.9594 22.7093 26.9604 22.5879 26.9609C22.3265 26.962 22.0651 26.962 21.8037 26.9619C21.3907 26.9618 20.9775 26.9633 20.5645 26.9648C19.7625 26.9676 18.9601 26.9686 18.1582 26.9697C17.137 26.9713 16.1159 26.974 15.0947 26.9775C14.6838 26.9789 14.2723 26.9794 13.8613 26.9795C13.6064 26.9797 13.3516 26.9806 13.0967 26.9814C12.978 26.9817 12.8589 26.9816 12.7402 26.9814C12.5788 26.9812 12.4173 26.9816 12.2559 26.9824C12.2085 26.9822 12.1611 26.9817 12.1123 26.9814C11.8444 26.9773 11.8445 26.9778 11.6367 27.1367C11.6479 27.3118 11.6472 27.3124 11.7041 27.4775C11.9046 27.5778 12.0837 27.5555 12.3076 27.5566C12.3562 27.557 12.405 27.5573 12.4551 27.5576C12.6185 27.5587 12.7819 27.559 12.9453 27.5596C13.0621 27.5602 13.1791 27.5608 13.2959 27.5615C13.6139 27.5634 13.932 27.565 14.25 27.5664C14.5821 27.5679 14.9149 27.5695 15.2471 27.5713C15.8762 27.5747 16.5056 27.5781 17.1348 27.5811C17.8509 27.5844 18.5671 27.588 19.2832 27.5918C20.7568 27.5996 22.2305 27.6063 23.7041 27.6133V28.9092C23.5562 28.9097 23.4083 28.9106 23.2559 28.9111C21.8622 28.9164 20.4678 28.922 19.0742 28.9287C18.3578 28.9321 17.6412 28.9349 16.9248 28.9375C16.3005 28.9397 15.6761 28.943 15.0518 28.9463C14.7211 28.948 14.3903 28.9493 14.0596 28.9502C13.7485 28.9511 13.437 28.9521 13.126 28.9541C13.0117 28.9547 12.8974 28.9559 12.7832 28.9561C12.6274 28.9563 12.4712 28.9567 12.3154 28.958C12.2284 28.9584 12.1414 28.9586 12.0518 28.959C11.8299 28.9608 11.8294 28.9611 11.6367 29.1133C11.6626 29.3376 11.6621 29.338 11.7725 29.5225C11.926 29.5299 12.0806 29.5324 12.2344 29.5332C12.3071 29.5337 12.3073 29.5337 12.3818 29.5342C12.5465 29.5352 12.7113 29.5365 12.876 29.5371C12.9935 29.5378 13.111 29.5384 13.2285 29.5391C13.5487 29.5409 13.8693 29.5416 14.1895 29.543C14.5234 29.5445 14.8574 29.547 15.1914 29.5488C15.8248 29.5522 16.4584 29.5547 17.0918 29.5576C17.8127 29.561 18.534 29.5646 19.2549 29.5684C20.738 29.5761 22.221 29.5838 23.7041 29.5908V30.9541C17.7645 30.9878 17.764 30.988 11.7041 31.0225C11.6315 31.3277 11.6323 31.328 11.6367 31.5C17.61 31.5337 17.6102 31.5339 23.7041 31.5684V32.9316C19.7219 32.9541 15.7396 32.9768 11.6367 33V33.4092C11.7663 33.5384 11.9962 33.4875 12.168 33.4883C12.217 33.4886 12.2668 33.4889 12.3174 33.4893C12.4827 33.4903 12.6481 33.4906 12.8135 33.4912C12.9317 33.4919 13.0507 33.4925 13.1689 33.4932C13.4908 33.495 13.8129 33.4967 14.1348 33.498C14.4707 33.4995 14.8066 33.5011 15.1426 33.5029C15.7795 33.5063 16.4168 33.5098 17.0537 33.5127C17.7787 33.5161 18.5045 33.5197 19.2295 33.5234C20.721 33.5312 22.2126 33.5379 23.7041 33.5449V34.9092C23.4809 34.91 23.4806 34.9103 23.2529 34.9111C21.8504 34.9164 20.4474 34.922 19.0449 34.9287C18.3237 34.9321 17.6021 34.9349 16.8809 34.9375C16.2526 34.9397 15.6243 34.943 14.9961 34.9463C14.6632 34.948 14.3299 34.9493 13.9971 34.9502C13.684 34.9511 13.3707 34.9521 13.0576 34.9541C12.9425 34.9547 12.8271 34.9559 12.7119 34.9561C12.5553 34.9563 12.3988 34.9567 12.2422 34.958C12.1543 34.9584 12.0661 34.9586 11.9756 34.959C11.7649 34.9556 11.7648 34.9561 11.6367 35.1133C11.648 35.2887 11.6473 35.2892 11.7041 35.4541C11.9046 35.5544 12.0837 35.5321 12.3076 35.5332C12.3805 35.5337 12.3808 35.5337 12.4551 35.5342C12.6185 35.5352 12.7819 35.5365 12.9453 35.5371C13.0621 35.5378 13.1791 35.5384 13.2959 35.5391C13.6139 35.5409 13.932 35.5416 14.25 35.543C14.5821 35.5445 14.9149 35.547 15.2471 35.5488C15.8762 35.5522 16.5056 35.5547 17.1348 35.5576C17.8509 35.561 18.5671 35.5646 19.2832 35.5684C20.7568 35.5761 22.2305 35.5838 23.7041 35.5908V37.5H10V17.5908H30.0459V26.4541ZM32.0928 34.0908C31.4792 33.75 31.4789 33.7496 31.2744 33.6133C30.8693 33.6133 30.637 33.768 30.3145 34.0039C30.1837 34.091 30.1832 34.0908 30.0469 34.0908V27.1367H32.0928V34.0908ZM12.0566 24.9287C11.9814 24.9286 11.981 24.9288 11.9043 24.9287C11.7338 24.9618 11.6712 25.0213 11.5684 25.1592C11.5848 25.3852 11.5843 25.3856 11.7041 25.5684C11.9183 25.5755 12.1315 25.5783 12.3457 25.5781C12.4139 25.5783 12.4825 25.5779 12.5527 25.5781C12.7829 25.5787 13.013 25.579 13.2432 25.5791C13.4074 25.5794 13.5721 25.5797 13.7363 25.5801C14.1841 25.581 14.6323 25.5817 15.0801 25.582C15.3594 25.5822 15.6387 25.5827 15.918 25.583C16.6909 25.5838 17.4644 25.5838 18.2373 25.584H18.8389C18.8887 25.584 18.9389 25.5849 18.9902 25.585C19.799 25.5852 20.6083 25.5863 21.417 25.5879C22.2463 25.5895 23.0759 25.5898 23.9053 25.5898C24.3711 25.5899 24.8369 25.5906 25.3027 25.5918C25.7408 25.593 26.1792 25.5934 26.6172 25.5928C26.7784 25.5927 26.9403 25.5931 27.1016 25.5938C27.3207 25.5946 27.5397 25.5935 27.7588 25.5928C27.8556 25.5936 27.8563 25.5939 27.9551 25.5947C28.0422 25.5941 28.0426 25.5944 28.1318 25.5938C28.2076 25.5938 28.2077 25.5937 28.2852 25.5938C28.4375 25.5776 28.438 25.5771 28.5459 25.3633C28.5352 25.1849 28.535 25.1847 28.4775 25.0225C28.3227 24.9451 28.2381 24.9456 28.0664 24.9453C28.0085 24.9451 27.9502 24.9446 27.8906 24.9443C27.8268 24.9444 27.763 24.9453 27.6973 24.9453C27.6297 24.9451 27.5618 24.9445 27.4922 24.9443C27.2641 24.9437 27.0357 24.9435 26.8076 24.9434C26.6449 24.943 26.4821 24.9427 26.3193 24.9424C25.8758 24.9415 25.4319 24.9407 24.9883 24.9404C24.7116 24.9402 24.4349 24.9407 24.1582 24.9404C23.3922 24.9396 22.6254 24.9387 21.8594 24.9385H21.1133C20.3122 24.9382 19.5111 24.9362 18.71 24.9346C17.8881 24.933 17.066 24.9327 16.2441 24.9326C15.7824 24.9326 15.3202 24.9319 14.8584 24.9307C14.4245 24.9295 13.9906 24.9291 13.5566 24.9297C13.397 24.9297 13.2368 24.9294 13.0771 24.9287C12.86 24.9279 12.6429 24.929 12.4258 24.9297C12.3621 24.9291 12.298 24.9283 12.2324 24.9277C12.1455 24.9284 12.1451 24.928 12.0566 24.9287ZM11.9824 22.96C11.9318 22.9599 11.8803 22.96 11.8281 22.96C11.6875 22.9666 11.6873 22.9669 11.5684 23.1133C11.5796 23.3226 11.5798 23.3228 11.6367 23.5225C11.7915 23.5998 11.8759 23.5993 12.0479 23.5996C12.1055 23.5999 12.1632 23.6003 12.2227 23.6006H12.6221C12.8499 23.6012 13.0778 23.6015 13.3057 23.6016C13.4686 23.6019 13.632 23.6022 13.7949 23.6025C14.2383 23.6034 14.6816 23.6042 15.125 23.6045C15.4018 23.6047 15.6792 23.6052 15.9561 23.6055C16.722 23.6063 17.488 23.6072 18.2539 23.6074H19C19.801 23.6077 20.6023 23.6088 21.4033 23.6104C22.2253 23.612 23.0481 23.6132 23.8701 23.6133C24.3317 23.6133 24.7933 23.613 25.2549 23.6143C25.689 23.6154 26.1235 23.6158 26.5576 23.6152C26.7171 23.6152 26.8766 23.6155 27.0361 23.6162C27.2534 23.6171 27.4712 23.6169 27.6885 23.6162C27.7522 23.6168 27.8162 23.6166 27.8818 23.6172C27.9686 23.6165 27.9689 23.6169 28.0576 23.6162C28.1325 23.6163 28.1327 23.6161 28.209 23.6162C28.3794 23.5832 28.443 23.5245 28.5459 23.3867C28.5294 23.1606 28.5288 23.1601 28.4092 22.9775C28.1949 22.9705 27.9819 22.9674 27.7676 22.9678C27.6996 22.9676 27.6316 22.9679 27.5615 22.9678C27.3312 22.9673 27.1004 22.9667 26.8701 22.9668C26.7058 22.9666 26.5413 22.9671 26.377 22.9668C25.9757 22.9663 25.5741 22.9659 25.1729 22.9658C24.847 22.9658 24.5211 22.966 24.1953 22.9658C23.2721 22.9652 22.349 22.9648 21.4258 22.9648H21.123C20.3145 22.9649 19.5059 22.9639 18.6973 22.9629C17.8679 22.9619 17.0384 22.9619 16.209 22.9619C15.7429 22.9619 15.2766 22.9617 14.8105 22.9609C14.3724 22.9603 13.9342 22.9604 13.4961 22.9609C13.335 22.961 13.1738 22.9604 13.0127 22.96C12.7934 22.9594 12.5737 22.9594 12.3545 22.96C12.29 22.9596 12.2256 22.9593 12.1592 22.959C12.1009 22.9593 12.0425 22.9596 11.9824 22.96ZM12.3057 20.9043C11.8961 20.9038 11.8959 20.9046 11.5684 21.1367C11.6074 21.4041 11.6074 21.4044 11.7725 21.6133C11.8998 21.6339 11.9002 21.6342 12.0479 21.6309C12.1055 21.6313 12.1632 21.6314 12.2227 21.6318C12.2866 21.6316 12.3511 21.6311 12.417 21.6309C12.5182 21.6312 12.5187 21.6314 12.6221 21.6318C12.8499 21.6325 13.0778 21.6321 13.3057 21.6318C13.4686 21.6321 13.632 21.6334 13.7949 21.6338C14.1923 21.6346 14.5899 21.6339 14.9873 21.6338C15.3102 21.6337 15.6332 21.6345 15.9561 21.6348H19C19.801 21.6344 20.6023 21.6354 21.4033 21.6367C22.2253 21.638 23.0481 21.6389 23.8701 21.6387C24.3317 21.6385 24.7933 21.6387 25.2549 21.6396H27.0361C27.2534 21.6404 27.4712 21.6395 27.6885 21.6387C27.7839 21.6394 27.7843 21.6399 27.8818 21.6406C27.9398 21.6401 27.9979 21.6392 28.0576 21.6387C28.1076 21.6387 28.1575 21.6387 28.209 21.6387C28.3793 21.6056 28.4425 21.5465 28.5459 21.4092C28.5458 21.2326 28.5455 21.2323 28.4775 21.0684C28.2684 20.929 28.2265 20.9143 27.9912 20.9141C27.9055 20.9135 27.9052 20.9137 27.8174 20.9131C27.7543 20.9133 27.691 20.9138 27.626 20.9141C27.559 20.9138 27.4919 20.9134 27.4229 20.9131C27.197 20.9124 26.9709 20.9128 26.7451 20.9131C26.5837 20.9128 26.4221 20.9125 26.2607 20.9121C25.8672 20.9113 25.4736 20.911 25.0801 20.9111H23.9824C23.89 20.911 23.7975 20.9102 23.7051 20.9102C22.8379 20.9094 21.9707 20.9097 21.1035 20.9102C20.3099 20.9105 19.5163 20.9095 18.7227 20.9082C17.9082 20.9069 17.0937 20.907 16.2793 20.9072C15.8218 20.9074 15.3637 20.9072 14.9062 20.9062C14.4763 20.9054 14.0462 20.9054 13.6162 20.9062C13.4582 20.9064 13.2996 20.9058 13.1416 20.9053C12.9264 20.9046 12.7113 20.9054 12.4961 20.9062C12.4332 20.9057 12.3704 20.9048 12.3057 20.9043ZM12.0566 18.9287C12.0065 18.9287 11.956 18.9287 11.9043 18.9287C11.734 18.9618 11.6717 19.0219 11.5684 19.1592C11.5685 19.3357 11.5687 19.3358 11.6367 19.5C11.8456 19.6392 11.8868 19.653 12.1221 19.6533C12.2081 19.6539 12.2082 19.6547 12.2959 19.6553C12.359 19.655 12.4223 19.6546 12.4873 19.6543C12.5543 19.6546 12.6214 19.655 12.6904 19.6553C12.9162 19.656 13.1424 19.6555 13.3682 19.6553C13.5296 19.6556 13.6911 19.6558 13.8525 19.6562C14.2462 19.6571 14.6405 19.6574 15.0342 19.6572H16.4082C17.2752 19.658 18.1427 19.6586 19.0098 19.6582C19.8033 19.6579 20.5971 19.6579 21.3906 19.6592C22.2052 19.6605 23.0204 19.6614 23.835 19.6611C24.2923 19.661 24.7497 19.6611 25.207 19.6621H27.6172C27.7117 19.6629 27.7122 19.6623 27.8086 19.6631C28.1452 19.6623 28.1454 19.6624 28.4502 19.5322C28.4816 19.4991 28.5135 19.4658 28.5459 19.4316C28.5067 19.1637 28.5062 19.1634 28.3408 18.9541C28.2137 18.9335 28.2135 18.9342 28.0664 18.9375C28.0085 18.9371 27.9502 18.936 27.8906 18.9355C27.7949 18.9359 27.7947 18.9361 27.6973 18.9365C27.6297 18.9363 27.5618 18.9358 27.4922 18.9355C27.2641 18.9348 27.0357 18.9353 26.8076 18.9355C26.6449 18.9353 26.4821 18.935 26.3193 18.9346C25.922 18.9338 25.5243 18.9334 25.127 18.9336H23.7393C22.8641 18.9329 21.9884 18.9322 21.1133 18.9326C20.3122 18.933 19.5111 18.9329 18.71 18.9316C17.8881 18.9303 17.066 18.9294 16.2441 18.9297C15.7824 18.9298 15.3202 18.9297 14.8584 18.9287H12.4258C12.3302 18.928 12.3297 18.9285 12.2324 18.9277C12.1745 18.9282 12.1163 18.9282 12.0566 18.9287ZM30.0459 16.9775H10V9H30.0459V16.9775ZM24.1514 10.9502C24.1055 10.9502 24.059 10.9502 24.0117 10.9502C23.9186 10.9501 23.8255 10.9493 23.7324 10.9492C22.8577 10.9486 21.9831 10.9501 21.1084 10.9512C20.3575 10.9521 19.6064 10.9511 18.8555 10.9502H15.8242C15.5018 10.9504 15.1789 10.9497 14.8564 10.9492C14.4226 10.9486 13.9885 10.949 13.5547 10.9502C13.3952 10.9505 13.2356 10.9506 13.0762 10.9502C12.8591 10.9496 12.6419 10.9501 12.4248 10.9512C12.3611 10.9507 12.2971 10.9507 12.2314 10.9502C12.1736 10.9507 12.1153 10.9506 12.0557 10.9512C12.0057 10.9512 11.9558 10.9511 11.9043 10.9512C11.7339 10.9844 11.673 11.0455 11.5684 11.1816C11.5372 11.3714 11.5373 11.3716 11.542 11.5898C11.5413 11.6738 11.5407 11.7582 11.54 11.8447C11.5404 11.9362 11.5405 12.0277 11.541 12.1191C11.5409 12.2131 11.5403 12.3074 11.54 12.4014C11.5397 12.5983 11.541 12.7953 11.542 12.9922C11.5432 13.2445 11.5422 13.4967 11.541 13.749C11.5403 13.9431 11.5405 14.138 11.541 14.332C11.5412 14.425 11.5405 14.5184 11.54 14.6113C11.5395 14.7412 11.541 14.8711 11.542 15.001C11.5422 15.075 11.5418 15.1493 11.542 15.2256C11.5721 15.4383 11.6066 15.4838 11.7725 15.6133C11.9063 15.6437 11.9067 15.6444 12.0557 15.6396C12.1425 15.6404 12.1431 15.6398 12.2314 15.6406C12.2951 15.6402 12.3592 15.6401 12.4248 15.6396C12.4924 15.64 12.5602 15.6403 12.6299 15.6406C12.8577 15.6414 13.0857 15.6403 13.3135 15.6396C13.4764 15.6399 13.6398 15.6412 13.8027 15.6416C14.1998 15.6424 14.597 15.6422 14.9941 15.6416C15.3167 15.6411 15.6393 15.6404 15.9619 15.6406C16.0078 15.6407 16.0543 15.6406 16.1016 15.6406C16.1947 15.6407 16.2878 15.6415 16.3809 15.6416C17.2554 15.6422 18.1303 15.6407 19.0049 15.6396C19.7557 15.6387 20.507 15.6397 21.2578 15.6406C22.1293 15.6417 23.0015 15.6422 23.873 15.6416C23.9658 15.6415 24.0586 15.6407 24.1514 15.6406C24.197 15.6406 24.243 15.6407 24.29 15.6406C24.6123 15.6404 24.9346 15.6411 25.2568 15.6416C25.6906 15.6422 26.1248 15.6418 26.5586 15.6406C26.7181 15.6404 26.8776 15.6402 27.0371 15.6406C27.2542 15.6412 27.4714 15.6407 27.6885 15.6396C27.7522 15.6401 27.8162 15.6402 27.8818 15.6406C27.9398 15.6401 27.9979 15.6402 28.0576 15.6396C28.1077 15.6396 28.1583 15.6397 28.21 15.6396C28.3801 15.6064 28.4412 15.5454 28.5459 15.4092C28.577 15.2194 28.5769 15.2192 28.5723 15.001C28.5732 14.8753 28.5732 14.8751 28.5742 14.7471C28.5739 14.6554 28.5727 14.5633 28.5723 14.4717C28.5724 14.3777 28.573 14.2834 28.5732 14.1895C28.5735 13.9926 28.5732 13.7955 28.5723 13.5986C28.5711 13.3463 28.572 13.0941 28.5732 12.8418V11.9805C28.5738 11.8504 28.5733 11.7199 28.5723 11.5898C28.572 11.4788 28.5715 11.4785 28.5713 11.3652C28.5412 11.1525 28.5068 11.1071 28.3408 10.9775C28.2069 10.9471 28.2069 10.9464 28.0576 10.9512C27.9706 10.9504 27.9706 10.951 27.8818 10.9502C27.8181 10.9507 27.7541 10.9507 27.6885 10.9512C27.5872 10.9507 27.5869 10.9507 27.4834 10.9502C27.2556 10.9494 27.0276 10.9505 26.7998 10.9512C26.637 10.9509 26.4743 10.9506 26.3115 10.9502C25.9143 10.9494 25.5164 10.9486 25.1191 10.9492C24.7965 10.9497 24.474 10.9504 24.1514 10.9502ZM27.8613 15H12.1797V11.6592H27.8613V15Z" fill="white"/>
</svg>
