<svg width="48" height="48" viewBox="0 0 48 48" fill="none" xmlns="http://www.w3.org/2000/svg">
<path d="M0 8C0 3.58172 3.58172 0 8 0H40C44.4183 0 48 3.58172 48 8V40C48 44.4183 44.4183 48 40 48H8C3.58172 48 0 44.4183 0 40V8Z" fill="#11A4BB"/>
<path d="M14.5168 10V11.034H15.8214V11.8383H16.8424V11.034H18.1471V10H14.5168ZM14.0517 12.8723L12.3829 24.7064H17.6366V16.9798H15.396V14.1649H17.6366V12.8723H14.0517ZM20.4727 16.5489V19.1915H24.8971V16.5489H20.4727ZM25.9181 16.5489V19.1915H30.3424V16.5489H25.9181ZM31.3634 16.5489V19.1915H35.7878V16.5489H31.3634ZM20.4727 20.2255V22.8681H24.8971V20.2255H20.4727ZM25.9181 20.2255V22.8681H30.3424V20.2255H25.9181ZM31.3634 20.2255V22.8681H35.7878V20.2255H31.3634ZM20.4727 23.9021V26.5447H24.8971V23.9021H20.4727ZM25.9181 23.9021V26.5447H27.0128L28.8279 24.7064H30.3424V23.9021H25.9181ZM31.3634 23.9021V24.7064H35.7878V23.9021H31.3634ZM11.523 25.7404L12.8906 31.9734C14.3325 31.5483 15.9746 31.1404 17.2395 31.1404C18.6122 31.1404 19.8601 31.6345 21.0513 32.094C22.2424 32.5536 23.3769 32.9787 24.5 32.9787C25.6231 32.9787 26.7576 32.5536 27.9487 32.094C29.0265 31.6804 30.1553 31.2323 31.3805 31.1519L28.879 30.3074L29.1966 29.3309L31.25 30.0202V28.4979H30.2857V27.4638H31.25V25.7404H29.2477L27.4326 27.5787H18.737L17.8294 25.7404H11.523ZM32.271 25.7404V27.4638H33.2353V28.4979H32.271V30.0202L34.3244 29.3309L34.642 30.3074L32.1462 31.1519C32.8326 31.1921 33.604 31.33 34.3811 31.5081C34.6874 31.1002 34.9937 30.6291 35.2943 30.1294C36.1395 28.6989 36.8939 27.033 37.3817 25.7404H32.271ZM17.2395 32.0596C15.8668 32.0596 14.0483 32.5364 12.5264 33.0017C11.958 33.174 11.4339 33.3464 11 33.5015V34.593C11.4742 34.4206 12.1101 34.2081 12.8214 33.9898C14.3058 33.536 16.1164 33.0936 17.2395 33.0936C18.3626 33.0936 19.4971 33.5187 20.6882 33.9783C21.8794 34.4379 23.1273 34.9319 24.5 34.9319C25.8727 34.9319 27.1206 34.4379 28.3118 33.9783C29.5029 33.5187 30.6374 33.0936 31.7605 33.0936C32.8836 33.0936 34.6931 33.536 36.1792 33.9898C36.8882 34.2081 37.5235 34.4206 38 34.593V33.5015C37.5632 33.3521 37.0414 33.174 36.4742 33.0017C34.954 32.5364 33.1332 32.0596 31.7605 32.0596C30.3878 32.0596 29.1399 32.5536 27.9487 33.0132C26.7576 33.4728 25.6231 33.8979 24.5 33.8979C23.3769 33.8979 22.2424 33.4728 21.0513 33.0132C19.8601 32.5536 18.6122 32.0596 17.2395 32.0596ZM17.2395 34.1277C15.8668 34.1277 14.0483 34.6045 12.5264 35.0698C11.958 35.2421 11.4339 35.4145 11 35.5696V36.6611C11.4742 36.4887 12.1101 36.2762 12.8214 36.0579C14.3058 35.604 16.1164 35.1617 17.2395 35.1617C18.3626 35.1617 19.4971 35.5868 20.6882 36.0464C21.8794 36.506 23.1273 37 24.5 37C25.8727 37 27.1206 36.506 28.3118 36.0464C29.5029 35.5868 30.6374 35.1617 31.7605 35.1617C32.8836 35.1617 34.6931 35.604 36.1792 36.0579C36.8882 36.2762 37.5235 36.4887 38 36.6611V35.5696C37.5632 35.4202 37.0414 35.2421 36.4742 35.0698C34.954 34.6045 33.1332 34.1277 31.7605 34.1277C30.3878 34.1277 29.1399 34.6217 27.9487 35.0813C26.7576 35.5409 25.6231 35.966 24.5 35.966C23.3769 35.966 22.2424 35.5409 21.0513 35.0813C19.8601 34.6217 18.6122 34.1277 17.2395 34.1277Z" fill="white"/>
</svg>
