<svg width="48" height="48" viewBox="0 0 48 48" fill="none" xmlns="http://www.w3.org/2000/svg">
<path d="M0 8C0 3.58172 3.58172 0 8 0H40C44.4183 0 48 3.58172 48 8V40C48 44.4183 44.4183 48 40 48H8C3.58172 48 0 44.4183 0 40V8Z" fill="#92766E"/>
<path d="M38 22.57H34.292L33.7306 21.1378H33.9C34.4522 21.1378 34.9 20.678 34.9 20.1108V15.027C34.9 14.4599 34.4522 14 33.9 14H14.1C13.5478 14 13.1 14.4599 13.1 15.027V20.1108C13.1 20.678 13.5478 21.1378 14.1 21.1378H14.2694L13.708 22.57H10C9.44778 22.57 9 23.0298 9 23.597V26.7922C9 27.3593 9.44778 27.8192 10 27.8192H11.6503L10.1723 31.5894C10.0482 31.9059 10.0854 32.265 10.2712 32.5478C10.4572 32.8306 10.7677 33 11.0999 33H14.3999C14.808 33 15.1751 32.7453 15.3276 32.3565L17.1062 27.8192H30.8936L32.6722 32.3565C32.8246 32.7453 33.1917 33 33.5999 33H36.8999C37.2321 33 37.5426 32.8306 37.7286 32.5478C37.9145 32.2651 37.9516 31.9059 37.8275 31.5894L36.3495 27.8192H38C38.5522 27.8192 39 27.3593 39 26.7922V23.597C39 23.0298 38.5522 22.57 38 22.57ZM28.8361 22.57H19.164L19.7255 21.1378H28.2746L28.8361 22.57Z" fill="white"/>
</svg>
