<svg width="48" height="48" viewBox="0 0 48 48" fill="none" xmlns="http://www.w3.org/2000/svg">
<rect width="48" height="48" rx="8" fill="#5562A3"/>
<path d="M9 10.2443C13.8414 9.55131 19.0035 10.3413 23.8721 12.505V38.0001C19.0035 35.8363 13.8413 35.0464 9 35.7394C9.00007 27.2411 9.00007 18.7426 9 10.2443ZM25.166 12.505C30.0345 10.3413 35.1969 9.55138 40.0381 10.2443V35.7394C35.1969 35.0464 30.0346 35.8364 25.166 38.0001V12.505ZM22.2324 32.3146C18.7174 30.6555 14.9956 30.045 11.4707 30.5499L11.6543 31.8292C14.9286 31.3617 18.3953 31.9337 21.6807 33.4845L22.2324 32.3146ZM37.5664 30.5499C34.0399 30.0462 30.3196 30.6553 26.8057 32.3146L27.3574 33.4845C30.6426 31.9337 34.1088 31.362 37.3838 31.8292L37.5664 30.5499ZM22.2324 27.13C18.7174 25.4709 14.9964 24.8618 11.4707 25.3654L11.6543 26.6456C14.9287 26.178 18.3953 26.7491 21.6807 28.2999L22.2324 27.13ZM37.5664 25.3654C34.0418 24.8619 30.3202 25.4719 26.8057 27.131L27.3574 28.2999C30.6429 26.7494 34.1088 26.179 37.3838 26.6456L37.5664 25.3654ZM22.2324 21.9464C18.7173 20.287 14.9956 19.6775 11.4707 20.1818L11.6543 21.4611C14.9286 20.9935 18.3953 21.5658 21.6807 23.1163L22.2324 21.9464ZM37.5664 20.1818C34.0399 19.677 30.3196 20.2873 26.8057 21.9464L27.3574 23.1163C30.6426 21.5651 34.1088 20.9938 37.3838 21.4611L37.5664 20.1818ZM22.2324 16.7628C18.7173 15.1034 14.9956 14.4926 11.4707 14.9972L11.6543 16.2775C14.9287 15.8098 18.3953 16.3812 21.6807 17.9318L22.2324 16.7628ZM37.5664 14.9972C34.0399 14.4928 30.3196 15.1038 26.8057 16.7628L27.3574 17.9318C30.6426 16.3809 34.1088 15.8108 37.3838 16.2775L37.5664 14.9972Z" fill="white"/>
</svg>
