<svg width="48" height="48" viewBox="0 0 48 48" fill="none" xmlns="http://www.w3.org/2000/svg">
<rect width="48" height="48" rx="8" fill="#DA5541"/>
<path d="M19.874 33.2754C21.1481 32.8304 22.5361 33.4103 23.168 34.6729C23.6029 35.5524 23.6032 36.2562 23.1475 37.1357C22.1427 39.0398 19.491 39.1329 18.3516 37.291C18.0926 36.8667 18.0305 36.6491 18.0098 35.9971C17.9787 35.2934 17.9993 35.1481 18.2686 34.6514C18.6207 33.9789 19.1388 33.5444 19.874 33.2754ZM30.1963 33.1729C30.6524 33.0589 31.4813 33.1627 31.9785 33.4014C32.8282 33.8167 33.5635 34.959 33.5635 35.8828C33.5633 36.8274 32.8276 37.9479 31.9365 38.3838C31.004 38.8405 29.647 38.6127 28.8594 37.876C27.8438 36.921 27.8023 34.9997 28.7764 33.9824C29.0874 33.6503 29.7094 33.2974 30.1963 33.1729ZM11.6494 9.07812C11.9685 8.93278 13.1878 9.00136 13.7627 9.19531C14.9682 9.60417 15.9867 10.6235 16.3262 11.7598C16.4303 12.0939 16.8103 14.2665 16.8105 14.5029C16.8105 14.5168 20.8779 14.5312 25.8525 14.5312C32.1964 14.5312 34.9963 14.552 35.2549 14.6074C36.0933 14.7806 36.9464 15.4593 37.2998 16.2354C37.3968 16.4502 37.5073 16.8519 37.542 17.1221C37.6113 17.5863 37.5692 17.8912 36.8486 22.291C36.426 24.8616 36.0589 27.1204 36.0381 27.3145C35.9688 27.8341 35.8098 28.3678 35.5742 28.832C35.304 29.3654 34.5836 30.0857 34.0225 30.3838C33.1841 30.8203 33.3912 30.8135 26.0605 30.8135C22.0351 30.8135 19.2426 30.7857 18.9932 30.7441C18.0649 30.5916 17.2124 29.9545 16.8105 29.1094C16.5958 28.6729 16.5478 28.3399 15.4531 20.7461C14.8295 16.3948 14.3031 12.7359 14.2754 12.625C14.1506 12.05 13.658 11.5094 13.083 11.3154C12.9097 11.2531 12.5705 11.2051 12.3281 11.2051C11.8015 11.2051 11.4965 11.0938 11.2471 10.7959C10.79 10.2554 10.9913 9.38295 11.6494 9.07812ZM29.2061 19.7275C28.8875 19.5615 28.4929 19.554 28.209 19.6992C28.0981 19.7616 27.2667 20.538 26.373 21.4316L24.7441 23.0527L24.1211 22.4229C23.3936 21.6953 23.2405 21.5986 22.7832 21.5986C21.9866 21.5989 21.4532 22.4713 21.8203 23.1641C21.8827 23.2749 22.4513 23.8851 23.0957 24.5156C24.1416 25.5546 24.2875 25.6791 24.5508 25.7207C25.1324 25.8107 25.2159 25.7547 27.4326 23.5449C28.5682 22.4162 29.5584 21.3913 29.6426 21.2656C29.9613 20.7529 29.7465 19.9978 29.2061 19.7275Z" fill="white"/>
</svg>
