<svg width="48" height="48" viewBox="0 0 48 48" fill="none" xmlns="http://www.w3.org/2000/svg">
<rect width="48" height="48" rx="8" fill="#379F79"/>
<path d="M9.34108 11L9 12.1799L15.4665 14.0559L15.8362 14.1611L19.3376 32.4885C19.5747 32.4061 19.8189 32.3374 20.0769 32.2892C20.1955 32.2686 20.3071 32.2549 20.4257 32.2411L16.7638 13.0843L9.34108 11ZM28.4957 15.0682L18.7656 16.8755L20.1885 24.2903L29.9186 22.4967L28.4957 15.0682ZM34.536 22.8953L31.3833 23.4794V23.4863L22.4205 25.1424L20.4187 25.5135L21.7021 32.248C23.1878 32.4542 24.513 33.2994 25.3151 34.5364L36.3704 32.4885L34.536 22.8953ZM38.7977 33.2926L25.8662 35.6909C25.9289 35.8901 25.9777 36.0894 26.0196 36.2956C26.0475 36.4536 26.0754 36.6117 26.0893 36.7698L39 34.3783L38.7977 33.2926ZM21.0813 33.4369C20.8302 33.4369 20.5722 33.4575 20.3071 33.5056C18.2216 33.8904 16.8545 35.8627 17.2521 37.9174C17.6427 39.9789 19.6375 41.319 21.73 40.9341C23.8225 40.5493 25.1826 38.5839 24.792 36.5224C24.4433 34.715 22.8739 33.4643 21.0813 33.4369ZM20.9697 34.9006C22.0369 34.9212 22.9925 35.6771 23.2017 36.7491C23.4319 37.9655 22.6019 39.1612 21.3603 39.3948C20.1188 39.6216 18.9121 38.8107 18.675 37.5875C18.4448 36.3643 19.2678 35.1686 20.5094 34.9349C20.6628 34.9075 20.8163 34.8937 20.9697 34.9006ZM20.9558 36.1307C20.886 36.1307 20.8163 36.1375 20.7465 36.1513C20.1676 36.2612 19.7979 36.7904 19.9095 37.3539C20.0142 37.9242 20.5582 38.2884 21.1302 38.1785C21.7091 38.0685 22.0718 37.5394 21.9671 36.9759C21.8695 36.4743 21.444 36.1375 20.9558 36.1307Z" fill="white"/>
</svg>
