<svg width="48" height="48" viewBox="0 0 48 48" fill="none" xmlns="http://www.w3.org/2000/svg">
<rect width="48" height="48" rx="8" fill="#2AA7A0"/>
<path d="M30.4854 33.478C31.71 32.4929 33.3815 32.4174 34.6553 33.3687C35.4192 34.0229 35.7923 34.8029 35.8926 35.7944C35.9296 36.6641 35.6019 37.4584 35.0518 38.1147C34.5283 38.6605 33.7782 39.0986 33.0068 39.1187C31.9483 39.1403 31.1162 38.9335 30.3154 38.2007C29.7332 37.5676 29.4222 36.7766 29.4141 35.9224C29.4542 34.9659 29.7814 34.1426 30.4854 33.478ZM12.6602 33.5581C13.88 32.4446 15.6295 32.4366 16.9453 33.3706C17.5722 33.8844 17.9981 34.6167 18.1191 35.4204C18.1775 36.4461 18.0032 37.2934 17.3193 38.0933C16.8086 38.6314 16.1476 39.0545 15.3896 39.1157C14.2611 39.1449 13.4222 38.9837 12.5732 38.1802C11.9299 37.4989 11.6773 36.7102 11.6875 35.7847C11.7194 34.9209 12.0735 34.186 12.6602 33.5581ZM15.46 34.6938C14.7938 34.4188 14.2355 34.6642 13.7705 35.1782C13.5704 35.5097 13.538 35.8276 13.5889 36.2056C13.6972 36.6066 13.9017 36.889 14.2529 37.1118C14.5904 37.2728 14.913 37.2831 15.2803 37.2319C15.6711 37.0851 15.9314 36.8655 16.1357 36.5034C16.2735 36.1869 16.3015 35.8547 16.208 35.522C16.0548 35.1339 15.8322 34.8839 15.46 34.6938ZM32.8594 34.5747C32.3493 34.5275 31.9477 34.6922 31.5908 35.0571C31.3846 35.3701 31.2555 35.7037 31.3037 36.0845C31.4002 36.5424 31.6434 36.8387 32.0137 37.1108C32.3652 37.2773 32.743 37.3002 33.1182 37.1929C33.5221 37.0118 33.7851 36.7102 33.9424 36.2993C34.0585 35.8913 33.9874 35.5413 33.7871 35.1714C33.5649 34.8634 33.2289 34.6534 32.8594 34.5747ZM31.6758 23.1177C32.0247 23.1237 32.2572 23.2474 32.5312 23.4595C32.6448 23.5803 32.6446 23.5808 32.7207 23.6997C32.7505 23.7451 32.7799 23.7907 32.8105 23.8374C32.8412 23.8863 32.8727 23.9354 32.9043 23.9858C32.9545 24.0635 32.9546 24.0638 33.0059 24.1431C33.0783 24.2552 33.15 24.3683 33.2217 24.481C33.3363 24.6595 33.4542 24.836 33.5723 25.0122C33.9287 25.5474 34.2717 26.0786 34.5586 26.6548C35.1029 27.8388 35.1035 27.8395 36.0957 28.5962C36.9329 28.7796 37.8192 28.7235 38.665 28.6265C39.0374 28.5862 39.333 28.5726 39.6582 28.7759C39.8711 28.9813 39.9783 29.1854 39.999 29.481C40.0006 29.5893 40.0004 29.6978 39.999 29.8062C39.9997 29.8955 39.9993 29.8957 40 29.9868C40.001 30.1828 40.0003 30.3788 39.999 30.5747C39.9991 30.7113 39.9988 30.8482 39.999 30.9849C39.9992 31.2707 39.9987 31.5565 39.9971 31.8423C39.995 32.2087 39.995 32.5755 39.9961 32.9419C39.9967 33.2238 39.996 33.5057 39.9951 33.7876C39.9948 33.9226 39.9947 34.0579 39.9951 34.1929C39.9954 34.3816 39.9948 34.5705 39.9932 34.7593C39.9938 34.8427 39.9935 34.8431 39.9941 34.9282C39.9892 35.2618 39.946 35.4606 39.7188 35.7222C39.3978 35.9804 39.0428 35.9964 38.6465 35.9868C38.5923 35.9865 38.5382 35.9862 38.4824 35.9858C38.3107 35.9845 38.1385 35.9821 37.9668 35.979C37.8499 35.9778 37.7331 35.9761 37.6162 35.9751C37.3306 35.9724 37.0444 35.9684 36.7588 35.9634C36.7473 35.8899 36.7364 35.8164 36.7246 35.7407C36.7089 35.6426 36.6925 35.5439 36.6768 35.4458C36.6693 35.3976 36.662 35.349 36.6543 35.2993C36.5403 34.597 36.2708 34.0041 35.8535 33.4263C35.8227 33.3836 35.7915 33.3413 35.7598 33.2974C35.1262 32.5023 34.1206 32.0531 33.1348 31.9165C32.0073 31.8179 30.958 32.1481 30.0615 32.8374C29.101 33.671 28.7917 34.7465 28.6045 35.9634H19C18.9601 35.6645 18.92 35.3651 18.8789 35.0571C18.6342 34.0349 18.0576 33.1372 17.1709 32.5562C16.1717 31.9713 15.1034 31.7414 13.9717 32.0151C13.3099 32.1912 12.7482 32.4936 12.2344 32.9438C12.1974 32.9759 12.1602 33.0076 12.1221 33.0405C11.2949 33.809 10.9827 34.8738 10.9053 35.9634C10.7242 35.9699 10.5434 35.9752 10.3623 35.979C10.3116 35.981 10.2602 35.9828 10.208 35.9849C9.85692 35.9903 9.55419 35.9493 9.27441 35.7222C9.0304 35.4223 8.99812 35.2116 9.00195 34.8413C9.00153 34.7907 9.00141 34.7401 9.00098 34.688C8.99992 34.5211 9.00016 34.3539 9.00098 34.187C9.00081 34.0708 9.0003 33.9546 9 33.8384C8.99964 33.5947 9.00082 33.3506 9.00195 33.1069C9.00333 32.7951 9.00242 32.4832 9.00098 32.1714C9.0001 31.931 9.00035 31.6901 9.00098 31.4497C9.00114 31.3348 9.00056 31.2199 9 31.105C8.99939 30.9442 9.00061 30.7833 9.00195 30.6226C9.00146 30.5753 9.0005 30.5277 9 30.479C9.00482 30.1666 9.07112 29.9912 9.27441 29.7417C9.5459 29.512 9.88679 29.4958 10.2275 29.4468C10.2933 29.4368 10.359 29.4268 10.4268 29.4165C10.6466 29.3834 10.8669 29.3509 11.0869 29.3188C11.2046 29.3014 11.3228 29.2846 11.4404 29.2671C11.8946 29.1997 12.3492 29.1339 12.8037 29.0688C13.0183 29.0381 13.2327 29.0063 13.4473 28.9751C13.6152 28.9508 13.7832 28.9268 13.9512 28.9028C14.0683 28.886 14.1856 28.8691 14.3027 28.8521C14.6431 28.8038 14.9716 28.7611 15.3154 28.7759C15.3349 28.7283 15.3346 28.7277 15.3545 28.6792C15.4678 28.4765 15.6198 28.3107 15.7725 28.1372C15.8385 28.0612 15.9048 27.9848 15.9707 27.9087C16.0031 27.8713 16.0359 27.834 16.0693 27.7954C16.1944 27.6498 16.3155 27.5011 16.4365 27.3521C16.6337 27.1092 16.8345 26.8697 17.0371 26.6313C17.2408 26.3916 17.442 26.1498 17.6406 25.9058C17.867 25.6277 18.0979 25.3538 18.3301 25.0806C18.5051 24.8743 18.6778 24.6664 18.8486 24.4565C18.892 24.4037 18.9358 24.3509 18.9805 24.2964C19.0549 24.2053 19.1294 24.1136 19.2031 24.022C19.2895 23.9148 19.3765 23.8081 19.4639 23.7017C19.4904 23.6683 19.5176 23.6345 19.5449 23.6001C19.857 23.2231 20.163 23.1309 20.6396 23.1343C20.7125 23.1337 20.7128 23.1329 20.7871 23.1323C20.9492 23.1313 21.1113 23.132 21.2734 23.1323C21.3899 23.1319 21.5065 23.131 21.623 23.1304C21.9391 23.129 22.2552 23.1293 22.5713 23.1294C22.8352 23.1294 23.0993 23.1289 23.3633 23.1284C23.9862 23.1273 24.6095 23.127 25.2324 23.1274C25.8748 23.1278 26.5178 23.1268 27.1602 23.1245C27.7119 23.1227 28.2637 23.1213 28.8154 23.1216C29.1449 23.1217 29.4743 23.1221 29.8037 23.1206C30.1136 23.1193 30.4235 23.1194 30.7334 23.1206C30.8469 23.1208 30.9607 23.1205 31.0742 23.1196C31.2295 23.1185 31.3847 23.1194 31.54 23.1206C31.5847 23.1198 31.6298 23.1185 31.6758 23.1177ZM21.7441 24.9458C21.0319 24.9333 20.6927 25.092 20.2686 25.6948C20.1799 25.8036 20.0901 25.9115 20 26.019C19.9558 26.0737 19.9117 26.1287 19.8662 26.1851C19.7107 26.376 19.5521 26.5639 19.3926 26.7515C19.1431 27.045 18.8973 27.3422 18.6543 27.6411C18.5532 27.7645 18.4513 27.8872 18.3486 28.0093C18.3207 28.0425 18.2925 28.0756 18.2637 28.1099C18.1844 28.2041 18.1049 28.299 18.0254 28.3931C17.9064 28.5115 17.9068 28.5116 17.9131 28.5942H33.6182C33.3831 28.1661 33.3831 28.166 33.126 27.7573C33.0919 27.7068 33.0575 27.6561 33.0225 27.604C32.9867 27.5513 32.951 27.4981 32.9141 27.4438C32.8576 27.3602 32.8574 27.3602 32.7998 27.2749C32.6803 27.098 32.5603 26.9213 32.4404 26.7446C32.36 26.6257 32.2796 26.5062 32.1992 26.3872C32.1218 26.2727 32.0442 26.1579 31.9668 26.0435C31.931 25.9905 31.8943 25.9378 31.8574 25.8833C31.8064 25.8081 31.8069 25.8076 31.7549 25.731C31.7254 25.6874 31.6954 25.644 31.665 25.5991C31.6319 25.5511 31.5986 25.503 31.5645 25.4536C31.5424 25.3996 31.5419 25.3991 31.5195 25.3442C31.4486 25.2005 31.3927 25.1261 31.2627 25.0308C30.9384 24.9633 30.6138 24.9704 30.2842 24.9722C30.1828 24.9712 30.0809 24.9696 29.9795 24.9683C29.7042 24.9653 29.4287 24.9649 29.1533 24.9653C28.9233 24.9655 28.6929 24.9645 28.4629 24.9634C27.9199 24.9609 27.377 24.9603 26.834 24.9614C26.2745 24.9626 25.7148 24.9604 25.1553 24.9556C24.6743 24.9516 24.1929 24.9501 23.7119 24.9507C23.4251 24.951 23.1384 24.9499 22.8516 24.9468C22.5814 24.9439 22.3112 24.945 22.041 24.9478C21.9422 24.9482 21.8429 24.9477 21.7441 24.9458ZM19.835 10.0327C22.2684 7.67889 26.0111 7.57492 28.6387 9.6626C29.5653 10.4763 30.2286 11.4757 30.6318 12.6421C30.6566 12.7119 30.6815 12.7821 30.707 12.854C31.0687 14.0994 31.0061 15.6239 30.5547 16.8325C30.5275 16.9121 30.4996 16.9917 30.4717 17.0737C29.8609 18.7148 28.5636 19.8767 27.0225 20.6206C25.4434 21.3059 23.6699 21.2688 22.0674 20.6929C21.1341 20.3096 20.422 19.7893 19.7158 19.0825C19.6641 19.0316 19.6119 18.9807 19.5586 18.9282C18.4997 17.8066 17.9789 16.1997 17.9883 14.6792C17.9887 14.6045 17.9888 14.5296 17.9893 14.4526C18.0179 12.7608 18.6814 11.2639 19.835 10.0327ZM22.9541 11.7437C22.5787 11.8216 22.3782 12.0644 22.1162 12.3315C22.0634 12.3845 22.0104 12.4381 21.9561 12.4927C21.6749 12.7764 21.6741 12.7762 21.5391 13.1411C21.5861 13.4126 21.7046 13.5263 21.8936 13.7241C21.9566 13.7909 22.02 13.8574 22.085 13.9263C22.1463 13.989 22.2073 14.0521 22.2705 14.1167C22.3198 14.1673 22.3691 14.2179 22.4199 14.27C22.5238 14.3751 22.6297 14.4793 22.7354 14.5825C22.5929 14.9587 22.2724 15.1991 21.9805 15.4604C21.7576 15.6719 21.6585 15.7996 21.5635 16.1001C21.5761 16.4366 21.66 16.5333 21.8936 16.77C21.9543 16.8334 22.0155 16.8971 22.0781 16.9624C22.3291 17.1978 22.5567 17.4106 22.875 17.5454C23.2732 17.5219 23.4702 17.2625 23.7412 16.9878C23.7997 16.9302 23.8587 16.8724 23.9189 16.813C24.0676 16.6656 24.2152 16.5166 24.3613 16.3667C24.672 16.4904 24.875 16.7115 25.1016 16.9487C25.3095 17.1647 25.5039 17.3631 25.7549 17.5308C26.095 17.5303 26.3024 17.4755 26.5498 17.2476C26.6311 17.1638 26.7112 17.0788 26.79 16.9927C26.8518 16.9286 26.852 16.9282 26.915 16.8628C27.1343 16.6327 27.2805 16.4766 27.3438 16.1626C27.2798 15.7565 27.0138 15.5628 26.7217 15.2905C26.6664 15.2372 26.6116 15.1833 26.5547 15.1284C26.4181 14.997 26.2801 14.8671 26.1416 14.7378C26.3095 14.3655 26.5964 14.1276 26.8955 13.8599C27.1225 13.6445 27.2172 13.5226 27.3066 13.2134C27.3019 12.922 27.2753 12.8457 27.0752 12.6421C27.0251 12.591 26.9745 12.5404 26.9229 12.4878C26.8425 12.4108 26.8427 12.4101 26.7607 12.3315C26.7096 12.2779 26.6581 12.2247 26.6055 12.1694C26.5545 12.1192 26.5036 12.0689 26.4512 12.0171C26.4049 11.9714 26.3583 11.9255 26.3105 11.8784C26.04 11.7356 25.8894 11.7787 25.5996 11.8667C25.3846 12.0285 25.2055 12.217 25.0234 12.4146C24.9498 12.4915 24.9503 12.4921 24.875 12.5708C24.7543 12.6973 24.6342 12.8242 24.5156 12.9526C24.289 12.851 24.1383 12.7458 23.9717 12.562C23.9294 12.517 23.8873 12.4717 23.8438 12.4253C23.7563 12.3308 23.6692 12.2358 23.583 12.1401C23.3171 11.8592 23.3169 11.8591 22.9541 11.7437Z" fill="white"/>
</svg>
