<svg width="48" height="48" viewBox="0 0 48 48" fill="none" xmlns="http://www.w3.org/2000/svg">
<rect width="48" height="48" rx="8" fill="#E26937"/>
<path d="M15.9268 21.8027C21.2853 21.8027 21.5816 21.8099 21.5322 21.9229C21.3558 22.3322 21.3845 22.4171 22.5635 24.4502C23.1919 25.5375 23.771 26.4983 23.8486 26.583C23.9264 26.6746 24.0675 26.7451 24.1592 26.7451C24.2446 26.7447 24.6819 26.54 25.1191 26.2861L25.9238 25.8203L26.5879 26.2646C26.9549 26.5117 27.4701 26.801 27.7314 26.9141L28.2041 27.1123V28.0791C28.2041 29.3782 28.1765 29.3438 29.4756 29.3721L30.4287 29.3926V37.4912L30.2305 37.6602C30.0611 37.8013 29.9555 37.8301 29.5391 37.8301H29.0518V34.625C29.0518 31.5762 29.0449 31.4121 28.918 31.2568L28.7832 31.0869L24.8018 31.0518L20.8262 31.0166L20.791 28.3193C20.7487 25.2624 20.7766 25.3822 20.1553 25.0645C19.8449 24.9093 19.8366 24.9092 16.2725 24.9092C14.1563 24.9092 12.6107 24.9372 12.46 24.9795C12.1706 25.0571 11.7965 25.4105 11.6904 25.707C11.6339 25.8412 11.6123 27.8395 11.6123 31.8711V37.8301H11.125C10.7086 37.8301 10.603 37.8013 10.4336 37.6602L10.2354 37.4912L10.2148 29.7314C10.2078 25.4702 10.2142 21.9421 10.2354 21.8945C10.2565 21.8239 11.4504 21.8027 15.9268 21.8027ZM13.54 32.0547L14.4717 32.0762L14.5068 32.8662C14.5563 34.0453 14.7119 34.1584 16.2158 34.1514C17.7621 34.1514 17.9178 34.024 17.9531 32.8096L17.9805 32.04H19.8027V37.8301H12.6006V32.0332L13.54 32.0547ZM28.0635 37.8301L24.4482 37.8164L20.8262 37.7949L20.8047 35.0059C20.7976 33.4737 20.805 32.1742 20.8262 32.1318C20.848 32.0615 21.1028 32.04 21.7725 32.04H22.6836L22.7119 32.8096C22.7472 34.0239 22.9021 34.1514 24.4482 34.1514C25.9521 34.1584 26.1078 34.0453 26.1572 32.8662L26.1924 32.0762L27.1318 32.0547L28.0635 32.0332V37.8301ZM16.9639 32.584L16.9434 33.1348L16.2227 33.1562L15.4961 33.1768V32.04H16.9854L16.9639 32.584ZM25.1689 32.04V33.1768L24.4482 33.1562L23.7207 33.1348L23.7002 32.584L23.6787 32.04H25.1689ZM18.8701 25.9121L19.7676 25.9326L19.7881 28.4893L19.8027 31.0518H12.6006V28.5176C12.6006 26.5576 12.622 25.9703 12.6924 25.9404C12.7347 25.9263 13.159 25.9119 13.625 25.9189L14.4717 25.9326L14.5068 26.7236C14.5421 27.5073 14.5424 27.5221 14.7754 27.748L15.001 27.9805L16.0889 28.002C17.3242 28.0302 17.5852 27.9663 17.8252 27.5781C17.9452 27.3875 17.9668 27.2252 17.9668 26.6182V25.8906L18.8701 25.9121ZM30.9795 11.0146L32.7588 11.0352L32.7939 11.9746C32.8363 13.0336 32.7869 12.9493 33.5 13.2246C34.093 13.4506 34.8063 13.8736 35.3711 14.3184C35.6182 14.509 35.8728 14.6719 35.9434 14.6719C36.0083 14.6709 36.4096 14.4735 36.832 14.2412C37.253 14.0027 37.6047 13.8195 37.623 13.8311C37.6725 13.8946 39.2967 16.7266 39.332 16.8184C39.3523 16.8822 39.1263 17.0517 38.626 17.3477C38.2165 17.5877 37.849 17.8493 37.8066 17.9199C37.7504 18.0188 37.75 18.1886 37.8135 18.5059C37.9123 19.0779 37.9123 20.3064 37.8135 20.8711C37.7006 21.4638 37.7508 21.5347 38.6543 22.043C39.2048 22.3535 39.3605 22.4807 39.3252 22.5654C39.2403 22.7845 37.6328 25.5408 37.5811 25.5449C37.5599 25.5449 37.2064 25.3541 36.7969 25.1211C36.3946 24.8882 36.0136 24.6973 35.957 24.6973C35.8935 24.6973 35.5686 24.909 35.2227 25.1631C34.6013 25.6291 33.9802 25.9758 33.3447 26.2158C32.8222 26.4065 32.8005 26.4556 32.7793 27.4512L32.7588 28.334L30.9795 28.3545L29.1934 28.3691V27.501C29.1934 26.5196 29.1435 26.3853 28.7129 26.2441C28.1834 26.0747 27.3077 25.5942 26.7217 25.1494C26.3969 24.9023 26.0792 24.6973 26.0156 24.6973C25.9585 24.6977 25.5779 24.8884 25.1689 25.1211C24.7601 25.3537 24.4073 25.5443 24.3779 25.5449C24.3003 25.5449 22.6131 22.572 22.6484 22.4873C22.6712 22.4371 22.988 22.2259 23.3682 22.0146C23.7424 21.8028 24.0817 21.5699 24.124 21.4922C24.1734 21.4073 24.1661 21.0891 24.1025 20.5244C24.032 19.8469 24.032 19.5221 24.1025 18.8516C24.1519 18.3999 24.1657 17.9693 24.1445 17.8984C24.1163 17.8349 23.7778 17.5948 23.3896 17.376C23.0015 17.1572 22.6699 16.938 22.6484 16.8955C22.6276 16.8173 24.143 14.0749 24.3281 13.8672C24.3564 13.8319 24.7165 14.0012 25.126 14.2412C25.5284 14.4742 25.9245 14.6719 25.9951 14.6719C26.0736 14.6711 26.3834 14.4805 26.6934 14.248C27.2653 13.8174 28.0493 13.3793 28.6494 13.1533C29.1577 12.9627 29.1934 12.8707 29.1934 11.8682V11L30.9795 11.0146ZM16.9785 27.0273H15.4961V25.8975H16.9785V27.0273ZM31.9746 15.2715C30.5979 14.9821 29.1299 15.3359 28.0215 16.2324C25.9951 17.8775 25.8181 20.9273 27.6396 22.7842C29.0941 24.2598 31.2337 24.6202 33.0977 23.6953C33.9167 23.2858 34.7077 22.4872 35.1172 21.6611C35.6183 20.6446 35.7169 19.6349 35.4346 18.5195C35.0392 16.9874 33.5703 15.6104 31.9746 15.2715ZM31.9326 19.3809C34.0224 17.291 34.0932 17.2416 34.418 17.5664C34.7497 17.8982 34.7137 17.9477 32.3486 20.3057C30.4501 22.2042 30.1182 22.5086 29.9346 22.5088C29.7581 22.5088 29.5464 22.3247 28.5791 21.3574C27.5701 20.3485 27.4279 20.179 27.4277 19.9814C27.4277 19.7061 27.6401 19.4727 27.9014 19.4727C28.0426 19.473 28.297 19.6781 29.0303 20.4043L29.9697 21.3369L31.9326 19.3809ZM20.2119 14.043C20.2613 14.0218 22.415 15.0883 22.415 15.1377C22.4145 15.1597 22.1959 15.5763 21.9209 16.0488C21.4268 16.91 21.3279 17.2558 21.5186 17.4111C21.5617 17.4539 21.9357 17.6724 22.3447 17.9121L23.0859 18.3359V20.8145H9V20.2285C9 19.8548 9.03544 19.5937 9.0918 19.5156C9.14122 19.445 11.6615 18.1873 14.6904 16.7188C17.7068 15.2529 20.1888 14.0474 20.2119 14.043Z" fill="white"/>
</svg>
