<svg width="48" height="48" viewBox="0 0 48 48" fill="none" xmlns="http://www.w3.org/2000/svg">
<rect width="48" height="48" rx="8" fill="#D94775"/>
<path d="M36.2288 10C36.5016 10.0037 36.6563 10.0672 36.8665 10.2393C37.0802 10.5146 37.0655 10.8012 37.0247 11.1357C36.9102 11.3773 36.7907 11.4984 36.5501 11.6104C36.3847 11.633 36.2208 11.6305 36.054 11.6289C36.0038 11.629 35.9534 11.6297 35.9017 11.6299C35.7335 11.6301 35.565 11.6288 35.3968 11.6279C35.2764 11.6279 35.1559 11.6278 35.0355 11.6279C34.708 11.628 34.3805 11.6271 34.0531 11.626C33.711 11.625 33.3687 11.6252 33.0267 11.625C32.4523 11.6246 31.8775 11.6235 31.3031 11.6221C30.7116 11.6206 30.1201 11.6198 29.5286 11.6191C29.4922 11.6191 29.4549 11.6182 29.4173 11.6182C29.2345 11.618 29.0513 11.6184 28.8685 11.6182C27.3509 11.6165 25.8333 11.6138 24.3157 11.6104L24.3685 13.3506L24.8958 13.6143C25.4156 13.9849 25.7426 14.4744 25.8978 15.0908C25.9206 15.2627 25.9254 15.4312 25.9241 15.6045C25.9239 15.6731 25.9235 15.6733 25.9232 15.7432C25.9096 16.2756 25.758 16.6776 25.4232 17.0947V17.2002C26.0461 17.6126 26.6849 17.994 27.3382 18.3564C27.3878 18.384 27.4375 18.4121 27.4886 18.4404C29.7713 19.6923 32.0934 19.7744 34.5716 19.6592L35.8226 19.5908C35.9319 19.5847 36.0415 19.5775 36.1507 19.5693C36.456 19.5527 36.6262 19.5729 36.8665 19.7842C37.0802 20.0595 37.0655 20.3461 37.0247 20.6807C36.8984 20.9473 36.8118 20.9983 36.5501 21.1553H35.4427V35.4463H36.5501C36.9261 35.697 36.9264 35.6971 37.0247 35.9209C37.0684 36.2133 37.063 36.4729 36.9359 36.7412C36.7508 36.9363 36.623 37.0207 36.3509 37.0479C36.2712 37.0487 36.1913 37.0485 36.1116 37.0479C36.0675 37.0481 36.0233 37.0486 35.9779 37.0488H35.2093C34.9135 37.0496 34.6174 37.0502 34.3216 37.0498C34.0029 37.0496 33.6842 37.0502 33.3656 37.0508H29.9681C29.8953 37.0508 29.8222 37.0517 29.7493 37.0518H25.3001C24.0798 37.0512 22.8593 37.0515 21.639 37.0527C20.2684 37.0541 18.8973 37.0551 17.5267 37.0547C17.3806 37.0546 17.2342 37.0537 17.0882 37.0537C17.0524 37.0537 17.0167 37.0537 16.9798 37.0537C16.4363 37.0536 15.8924 37.054 15.349 37.0547C14.7311 37.0555 14.1133 37.0556 13.4954 37.0547C13.18 37.0542 12.8646 37.0549 12.5491 37.0557C12.2607 37.0564 11.9723 37.0557 11.6839 37.0547C11.5793 37.0545 11.474 37.0551 11.3695 37.0557C11.2278 37.0564 11.0863 37.0556 10.9447 37.0547C10.9038 37.0552 10.8627 37.0551 10.8206 37.0557C10.5479 37.052 10.3931 36.9893 10.1829 36.8174C9.96911 36.5421 9.98395 36.2554 10.0247 35.9209C10.1512 35.654 10.2377 35.6033 10.4993 35.4463H11.6068V21.1553H10.4993C10.1233 20.9046 10.123 20.9041 10.0247 20.6807C9.98102 20.3881 9.98643 20.1279 10.1136 19.8594C10.266 19.6987 10.3831 19.5812 10.6136 19.5645C10.7599 19.5677 10.9051 19.5766 11.0511 19.5869C11.1672 19.5934 11.2836 19.6001 11.3997 19.6064C11.4616 19.61 11.5235 19.6135 11.5872 19.6172C14.5047 19.775 17.0822 19.816 19.7113 18.3564C19.7612 18.3287 19.8112 18.301 19.8626 18.2725C20.4642 17.9362 21.0517 17.5806 21.6263 17.2002C21.5703 17.088 21.5138 16.9757 21.4564 16.8643C21.4341 16.8206 21.412 16.7764 21.389 16.7314C21.3668 16.6882 21.3445 16.6451 21.3216 16.6006C21.1853 16.3062 21.1328 16.0472 21.1322 15.7236C21.1309 15.6875 21.1296 15.6505 21.1282 15.6133C21.1268 15.3425 21.1881 15.1903 21.3626 14.9854C21.638 14.7714 21.9244 14.7863 22.2591 14.8271C22.5039 14.9432 22.6108 15.065 22.7337 15.3018C22.7615 15.4151 22.7853 15.5297 22.806 15.6445C22.8674 15.9319 22.9166 16.0794 23.1556 16.251C23.3501 16.3481 23.5757 16.3222 23.7884 16.3037C23.9556 16.2361 24.03 16.1702 24.1478 16.0361C24.2592 15.7604 24.2592 15.4749 24.1478 15.1992C23.9499 14.9741 23.734 14.9112 23.4456 14.8594C23.0623 14.7771 22.9483 14.6744 22.7337 14.3525C22.721 14.2294 22.7213 14.2286 22.722 14.082C22.722 14.0001 22.722 13.9999 22.722 13.916C22.7225 13.857 22.7224 13.7981 22.723 13.7373C22.7231 13.6767 22.7238 13.6152 22.724 13.5527C22.7245 13.3589 22.7255 13.1646 22.7269 12.9707C22.7274 12.8395 22.7284 12.7083 22.7288 12.5771C22.73 12.2549 22.7315 11.9326 22.7337 11.6104C22.671 11.6105 22.6079 11.6102 22.5433 11.6104C21.0537 11.6149 19.5641 11.619 18.0745 11.6211C17.8912 11.6214 17.7071 11.6208 17.5238 11.6211C17.4692 11.6212 17.4691 11.622 17.4134 11.6221C16.8223 11.623 16.2311 11.624 15.64 11.626C15.0335 11.6279 14.4271 11.6294 13.8206 11.6299C13.48 11.6302 13.1388 11.6303 12.7982 11.6318C12.4779 11.6333 12.1576 11.6341 11.8372 11.6338C11.7195 11.6338 11.6014 11.634 11.4837 11.6348C11.3232 11.6358 11.1627 11.6363 11.0023 11.6357C10.9557 11.6364 10.9086 11.6361 10.8607 11.6367C10.5742 11.6339 10.4101 11.5903 10.1829 11.3994C9.96911 11.1241 9.98395 10.8375 10.0247 10.5029C10.2222 10.0861 10.5007 10.004 10.9378 10.0078C10.982 10.0076 11.0261 10.0071 11.0716 10.0068C11.2204 10.0062 11.3691 10.0073 11.5179 10.0078C11.6253 10.0076 11.7327 10.0072 11.8402 10.0068C12.136 10.0061 12.432 10.0064 12.7279 10.0068C13.0465 10.0071 13.3652 10.0064 13.6839 10.0059C14.2726 10.005 14.8619 10.0046 15.4505 10.0049H17.6302C18.6516 10.0043 19.6733 10.0035 20.6947 10.0039C20.733 10.0039 20.7714 10.0039 20.8109 10.0039C21.1236 10.004 21.4366 10.0047 21.7493 10.0049C22.9697 10.0054 24.1902 10.0042 25.4105 10.0029C26.7811 10.0016 28.1521 10.0016 29.5228 10.002H30.0697C30.6131 10.0021 31.157 10.0017 31.7005 10.001H35.68C35.8216 10.0003 35.9632 10.001 36.1048 10.002C36.1457 10.0014 36.1867 10.0005 36.2288 10ZM23.8704 22.7432C22.165 22.6685 20.6538 23.3248 19.4642 24.5303C18.3881 25.6846 17.9805 27.1095 18.0198 28.6572C18.0545 29.4355 18.2706 30.1138 18.6204 30.8057C18.6486 30.8614 18.6764 30.9172 18.7054 30.9746C19.4069 32.2581 20.6612 33.2028 22.055 33.6162C23.5598 33.979 25.0229 33.778 26.3724 33.0205C26.5981 32.8806 26.8031 32.7179 27.0052 32.5459C27.0503 32.5086 27.0954 32.471 27.1419 32.4326C28.1416 31.5751 28.858 30.3305 29.0091 29.0127C29.1275 27.4572 28.8243 26.0016 27.7962 24.7939C27.7589 24.7487 27.7214 24.7028 27.6829 24.6562C26.7101 23.5223 25.3489 22.8818 23.8704 22.7432ZM14.6917 22.7734C14.4969 22.7981 14.388 22.8706 14.2435 23.001C14.0298 23.2885 14.0262 23.5684 14.0257 23.918C14.0256 23.9565 14.0249 23.9954 14.0247 24.0352V24.7021C14.0243 24.9544 14.0238 25.2067 14.0238 25.459C14.0237 25.6167 14.0239 25.7749 14.0238 25.9326C14.0233 26.4827 14.0227 27.0329 14.0228 27.583C14.0228 28.0957 14.0226 28.6084 14.0218 29.1211C14.0211 29.5615 14.0208 30.002 14.0208 30.4424C14.0208 30.7053 14.0204 30.9685 14.0198 31.2314C14.0193 31.4787 14.0195 31.7264 14.0198 31.9736C14.0199 32.0641 14.0192 32.1546 14.0189 32.2451C14.0185 32.3691 14.0194 32.4932 14.0198 32.6172C14.0198 32.6865 14.0199 32.7558 14.0198 32.8271C14.0391 33.1102 14.0793 33.3206 14.2669 33.5371C14.5102 33.7448 14.6442 33.7822 14.9554 33.7754C15.1502 33.7507 15.2592 33.6782 15.4036 33.5479C15.6174 33.2603 15.621 32.9803 15.6214 32.6309C15.6215 32.5923 15.6223 32.5534 15.6224 32.5137V31.8457C15.6229 31.5934 15.6233 31.3411 15.6234 31.0889C15.6234 30.9313 15.6232 30.7737 15.6234 30.6162C15.6239 30.066 15.6244 29.5151 15.6243 28.9648C15.6243 28.4522 15.6245 27.9394 15.6253 27.4268C15.626 26.9864 15.6263 26.5458 15.6263 26.1055C15.6263 25.8426 15.6267 25.5793 15.6273 25.3164C15.6278 25.0693 15.6277 24.8223 15.6273 24.5752C15.6272 24.4845 15.6279 24.3934 15.6282 24.3027C15.6287 24.1788 15.6277 24.0546 15.6273 23.9307C15.6273 23.8269 15.6272 23.8267 15.6273 23.7207C15.608 23.4377 15.5678 23.2272 15.3802 23.0107C15.1369 22.8031 15.0029 22.7666 14.6917 22.7734ZM32.0941 22.7734C31.8992 22.7981 31.7903 22.8706 31.6458 23.001C31.4321 23.2885 31.4285 23.5684 31.4281 23.918C31.4279 23.9565 31.4272 23.9954 31.4271 24.0352V24.7021C31.4266 24.9544 31.4261 25.2067 31.4261 25.459C31.4261 25.6167 31.4262 25.7749 31.4261 25.9326C31.4256 26.4827 31.4251 27.0329 31.4251 27.583C31.4252 28.0957 31.425 28.6084 31.4241 29.1211C31.4235 29.5615 31.4231 30.002 31.4232 30.4424C31.4232 30.7053 31.4228 30.9685 31.4222 31.2314C31.4217 31.4787 31.4218 31.7264 31.4222 31.9736C31.4222 32.0641 31.4215 32.1546 31.4212 32.2451C31.4208 32.3691 31.4218 32.4932 31.4222 32.6172C31.4222 32.6865 31.4222 32.7558 31.4222 32.8271C31.4415 33.1102 31.4817 33.3206 31.6693 33.5371C31.9125 33.7448 32.0465 33.7822 32.3577 33.7754C32.5525 33.7507 32.6616 33.6782 32.806 33.5479C33.0198 33.2603 33.0233 32.9803 33.0238 32.6309C33.0239 32.5923 33.0246 32.5534 33.0247 32.5137V31.8457C33.0252 31.5934 33.0257 31.3411 33.0257 31.0889C33.0257 30.9313 33.0256 30.7737 33.0257 30.6162C33.0262 30.066 33.0267 29.5151 33.0267 28.9648C33.0267 28.4522 33.0268 27.9394 33.0277 27.4268C33.0284 26.9864 33.0287 26.5458 33.0286 26.1055C33.0286 25.8426 33.0291 25.5793 33.0296 25.3164C33.0301 25.0693 33.03 24.8223 33.0296 24.5752C33.0296 24.4845 33.0303 24.3934 33.0306 24.3027C33.031 24.1788 33.03 24.0546 33.0296 23.9307C33.0297 23.8269 33.0296 23.8267 33.0296 23.7207C33.0103 23.4377 32.9702 23.2272 32.7825 23.0107C32.5393 22.8031 32.4053 22.7666 32.0941 22.7734ZM20.8939 25.2568C22.1697 24.0005 24.4776 23.9752 25.8822 25.0205C26.0755 25.1787 26.2498 25.3526 26.4232 25.5322C26.4621 25.5695 26.5013 25.6071 26.5413 25.6455C27.2238 26.3386 27.4948 27.3273 27.5042 28.2744C27.4938 29.3248 27.1603 30.2896 26.4075 31.0371C26.3605 31.0825 26.3134 31.1281 26.265 31.1748C26.2278 31.2136 26.191 31.253 26.1527 31.293C25.4595 31.9755 24.47 32.2465 23.5228 32.2559C22.4726 32.2454 21.5075 31.9119 20.7601 31.1592C20.7148 31.1122 20.6691 31.065 20.6224 31.0166C20.5837 30.9795 20.545 30.9425 20.5052 30.9043C20.1654 30.5593 19.9672 30.1385 19.7786 29.6982C19.7545 29.6422 19.7303 29.5861 19.7054 29.5283C19.4204 28.7204 19.4415 27.6376 19.7786 26.8506C19.7925 26.8171 19.8073 26.7836 19.8216 26.749C20.0539 26.1992 20.3529 25.7869 20.7806 25.374C20.8178 25.3352 20.8556 25.2968 20.8939 25.2568ZM25.5208 26.8047C24.8941 26.5594 24.5286 26.9362 24.1136 27.3574C24.0755 27.3957 24.0376 27.4342 23.9984 27.4736C23.8772 27.5953 23.7558 27.7178 23.6351 27.8398C23.5528 27.9226 23.4703 28.0052 23.388 28.0879C23.1867 28.2904 22.9853 28.4933 22.7845 28.6963C22.531 28.5788 22.3757 28.3925 22.1859 28.1904C21.989 28.0102 21.8141 27.9166 21.5491 27.8828C21.286 27.9151 21.0954 27.9936 20.9222 28.1992C20.7834 28.4161 20.7397 28.5955 20.7806 28.8545C20.9794 29.2363 21.2679 29.5215 21.5716 29.8203C21.6552 29.9027 21.7378 29.9862 21.8206 30.0693C22.2049 30.4787 22.2053 30.4786 22.7259 30.6143C22.7691 30.6157 22.8123 30.6176 22.8568 30.6191C23.1497 30.5678 23.3653 30.3446 23.5697 30.1406C23.6177 30.0929 23.6657 30.0452 23.7152 29.9961C23.7668 29.9443 23.8188 29.8917 23.8704 29.8398C23.924 29.7863 23.978 29.7332 24.0316 29.6797C24.1436 29.5678 24.2548 29.455 24.3665 29.3428C24.5095 29.1992 24.6536 29.0561 24.7972 28.9131L25.2874 28.4229C25.3613 28.3493 25.4347 28.2752 25.5081 28.2012C25.55 28.1592 25.592 28.1174 25.6351 28.0742C25.8412 27.8412 25.8674 27.6544 25.8607 27.3506C25.829 27.1032 25.7019 26.9644 25.5208 26.8047ZM23.7503 18.1963C23.5114 18.1028 23.3595 18.1656 23.1439 18.2744C23.089 18.3019 23.0334 18.3301 22.9769 18.3584C22.9182 18.3883 22.8596 18.4184 22.7991 18.4492C22.7387 18.4796 22.6778 18.5097 22.6156 18.541C22.4548 18.6218 22.2936 18.7028 22.1331 18.7842C21.9694 18.8671 21.8059 18.9507 21.6419 19.0332C21.3202 19.1952 20.9984 19.3576 20.6771 19.5205V19.5732H26.3724C26.2138 19.4543 26.0822 19.3679 25.9085 19.2803C25.8586 19.255 25.8085 19.2301 25.7572 19.2041C25.7035 19.1772 25.6493 19.1498 25.5941 19.1221C25.539 19.0943 25.4838 19.0666 25.4271 19.0381C25.3101 18.9793 25.1926 18.9208 25.0755 18.8623C24.8961 18.7725 24.7174 18.6813 24.5384 18.5908C24.4247 18.5338 24.3103 18.4768 24.1966 18.4199C24.1432 18.3928 24.0896 18.3658 24.0345 18.3379C23.9596 18.3007 23.9596 18.3007 23.8831 18.2627C23.8393 18.2407 23.7954 18.2189 23.7503 18.1963Z" fill="white"/>
</svg>
