<svg width="48" height="48" viewBox="0 0 48 48" fill="none" xmlns="http://www.w3.org/2000/svg">
<rect width="48" height="48" rx="8" fill="#ACC658"/>
<path d="M35.5283 39H13V36.7471H33.2754V12.3789H35.5283V39ZM32.1484 35.6211H13.002V9H32.1484V35.6211ZM19.4512 33.5742H21.499V27.9424H19.4512V33.5742ZM15.2559 33.5732H17.3037V29.5801H15.2559V33.5732ZM23.6504 33.5732H25.6982V25.9971H23.6504V33.5732ZM27.8496 33.5732H29.8975V24.3584H27.8496V33.5732ZM14.7441 23.2314H30.7168V22.208H14.7441V23.2314ZM14.7441 20.4668H30.7168V19.4434H14.7441V20.4668ZM14.7441 17.7031H30.7168V16.6797H14.7441V17.7031ZM14.7441 14.9385H30.7168V13.915H14.7441V14.9385ZM14.7441 12.1738H30.7168V11.1504H14.7441V12.1738Z" fill="white"/>
</svg>
