<svg width="48" height="48" viewBox="0 0 48 48" fill="none" xmlns="http://www.w3.org/2000/svg">
<rect width="48" height="48" rx="8" fill="#11A4BB"/>
<path d="M24 24C27.7875 24 30.8571 20.8664 30.8571 17C30.8571 13.1336 27.7875 10 24 10C20.2125 10 17.1429 13.1336 17.1429 17C17.1429 20.8664 20.2125 24 24 24ZM29.1321 25.7828L26.5714 36.25L24.8571 28.8125L26.5714 25.75H21.4286L23.1429 28.8125L21.4286 36.25L18.8679 25.7828C15.0482 25.9687 12 29.157 12 33.1V35.375C12 36.8242 13.1518 38 14.5714 38H33.4286C34.8482 38 36 36.8242 36 35.375V33.1C36 29.157 32.9518 25.9687 29.1321 25.7828Z" fill="white"/>
</svg>
