<svg width="48" height="48" viewBox="0 0 48 48" fill="none" xmlns="http://www.w3.org/2000/svg">
<rect width="48" height="48" rx="8" fill="#77AD58"/>
<path d="M32.5449 19.0762C32.6367 19.0763 32.7286 19.0763 32.8203 19.0762C33.0124 19.0763 33.2044 19.0774 33.3965 19.0791C33.6427 19.0812 33.8895 19.0815 34.1357 19.0811C34.3251 19.0809 34.5148 19.0821 34.7041 19.083C34.7948 19.0834 34.8859 19.0831 34.9766 19.083C35.1032 19.0831 35.2298 19.0845 35.3564 19.0859C35.3938 19.0858 35.4313 19.0851 35.4697 19.085C35.6906 19.0888 35.8136 19.1123 35.9707 19.2695C35.9975 19.404 35.9981 19.4042 35.998 19.5684C35.9985 19.6308 35.9985 19.6935 35.999 19.7578C35.9985 19.8267 35.9986 19.8958 35.998 19.9668V21.4541C35.9986 21.8832 35.9981 22.313 35.9971 22.7422C35.996 23.2415 35.996 23.7409 35.9961 24.2402C35.9961 25.131 35.9947 26.0223 35.9932 26.9131C35.9917 27.778 35.9911 28.6429 35.9912 29.5078V29.8301C35.9913 30.814 35.9902 31.7983 35.9893 32.7822C35.9889 33.1305 35.9893 33.4788 35.9893 33.8271C35.9892 34.2515 35.9883 34.6762 35.9873 35.1006C35.9868 35.3171 35.9872 35.5335 35.9873 35.75C35.9874 35.9481 35.9861 36.1466 35.9854 36.3447C35.9851 36.4508 35.9861 36.557 35.9863 36.6631C35.9858 36.7568 35.9859 36.7569 35.9854 36.8525C35.9853 36.9067 35.9845 36.9608 35.9844 37.0166C35.9708 37.151 35.9707 37.1514 35.8633 37.3125C35.7231 37.329 35.5954 37.3348 35.4551 37.334C35.3919 37.3345 35.3916 37.3344 35.3271 37.335C35.1873 37.3359 35.0471 37.3362 34.9072 37.3359H34.0059C33.7451 37.3353 33.4844 37.3363 33.2236 37.3379C33.0233 37.3389 32.8224 37.3392 32.6221 37.3389C32.5259 37.3389 32.4292 37.3392 32.333 37.3398C32.1987 37.3406 32.064 37.3398 31.9297 37.3389C31.8899 37.3394 31.8496 37.3403 31.8086 37.3408C31.539 37.3369 31.5392 37.3364 31.4238 37.2217C31.3373 37.0683 31.3323 36.9707 31.332 36.7949C31.3315 36.733 31.3316 36.6712 31.3311 36.6074C31.3313 36.5393 31.3317 36.4706 31.332 36.4004C31.3318 36.3275 31.3314 36.2546 31.3311 36.1816C31.3302 35.9806 31.3298 35.7792 31.3301 35.5781C31.3302 35.3614 31.3298 35.1444 31.3291 34.9277C31.328 34.5033 31.328 34.0788 31.3281 33.6543C31.3282 33.3094 31.3275 32.9641 31.3271 32.6191V32.1709C31.3261 31.2357 31.3258 30.3005 31.3262 29.3652C31.3265 28.5092 31.325 27.6529 31.3232 26.7969C31.3214 25.9184 31.321 25.0396 31.3213 24.1611C31.3214 23.6678 31.3207 23.174 31.3193 22.6807V20.1885C31.3197 20.0838 31.3184 19.9787 31.3174 19.874C31.3225 19.3677 31.323 19.3676 31.4775 19.2012C31.6624 19.0825 31.8152 19.0711 32.0283 19.0752C32.0882 19.0747 32.0883 19.0747 32.1494 19.0742C32.2812 19.0736 32.4131 19.0748 32.5449 19.0762ZM16.1289 29.7119C16.3011 29.7145 16.4029 29.7244 16.541 29.8311C16.6608 29.9836 16.665 30.0588 16.665 30.251C16.6656 30.3109 16.6664 30.3709 16.667 30.4326C16.6665 30.4982 16.6656 30.5643 16.665 30.6318C16.6655 30.7357 16.6656 30.7361 16.666 30.8418C16.6668 31.0318 16.6659 31.2221 16.665 31.4121C16.6643 31.6109 16.6648 31.81 16.665 32.0088C16.6652 32.3428 16.6643 32.6777 16.6631 33.0117C16.6617 33.3977 16.6615 33.7839 16.6621 34.1699V35.7588C16.6624 35.9795 16.6613 36.2002 16.6602 36.4209C16.6604 36.4866 16.6609 36.5525 16.6611 36.6201C16.6606 36.6801 16.6597 36.74 16.6592 36.8018C16.659 36.8539 16.6593 36.9062 16.6592 36.96C16.635 37.1225 16.5933 37.1969 16.4775 37.3125C16.3318 37.3338 16.2073 37.3408 16.0615 37.3389C16.0194 37.3392 15.977 37.3395 15.9336 37.3398C15.7938 37.3405 15.6535 37.3398 15.5137 37.3389C15.4167 37.3389 15.3196 37.3387 15.2227 37.3389C15.0193 37.3389 14.8157 37.3381 14.6123 37.3369C14.3513 37.3354 14.0901 37.3362 13.8291 37.3369C13.6289 37.3373 13.4287 37.3366 13.2285 37.3359C13.1322 37.3357 13.0357 37.3357 12.9395 37.3359C12.8051 37.3361 12.6704 37.3352 12.5361 37.334C12.4962 37.3342 12.4561 37.3347 12.415 37.335C12.3047 37.3334 12.3045 37.3333 12.1279 37.3125C12.007 37.1311 12.0063 37.0698 12.0059 36.8574C12.0055 36.7965 12.0053 36.7356 12.0049 36.6729C12.005 36.6059 12.0057 36.5387 12.0059 36.4697C12.0056 36.3995 12.0052 36.3292 12.0049 36.2568C12.0042 36.0635 12.0038 35.8692 12.0039 35.6758C12.004 35.5146 12.0042 35.3535 12.0039 35.1924C12.0033 34.8119 12.0026 34.4313 12.0029 34.0508C12.0033 33.6579 12.0031 33.2649 12.002 32.8721C12.001 32.535 12.0008 32.1975 12.001 31.8604C12.0011 31.6592 12.0007 31.458 12 31.2568C11.9992 31.0323 11.9994 30.8075 12 30.583C11.9996 30.5161 11.9994 30.4489 11.999 30.3799C11.9994 30.319 11.9996 30.2581 12 30.1953C12 30.1422 12 30.0889 12 30.0342C12.0201 29.9019 12.0205 29.9019 12.0908 29.8047C12.2409 29.6993 12.4091 29.7176 12.5859 29.7188C12.6269 29.7184 12.6678 29.7182 12.71 29.7178C12.8457 29.7168 12.9815 29.7175 13.1172 29.7178C13.2115 29.7175 13.3061 29.7171 13.4004 29.7168C13.5982 29.7163 13.7963 29.7163 13.9941 29.7168C14.2477 29.7174 14.5013 29.7164 14.7549 29.7148C14.9498 29.7139 15.1449 29.7136 15.3398 29.7139C15.4333 29.7139 15.5267 29.7136 15.6201 29.7129C15.7509 29.7121 15.882 29.7129 16.0127 29.7139C16.0701 29.7131 16.0704 29.7127 16.1289 29.7119ZM22.5781 26.5439C22.7439 26.5464 22.8486 26.5585 22.9854 26.6553C23.1179 26.8345 23.1122 26.9906 23.1094 27.2051C23.1098 27.2687 23.1099 27.2691 23.1104 27.334C23.1111 27.4759 23.1102 27.6178 23.1094 27.7598C23.1096 27.8615 23.11 27.9637 23.1104 28.0654C23.1111 28.3422 23.1103 28.6197 23.1094 28.8965C23.1086 29.1858 23.1092 29.4753 23.1094 29.7646C23.1095 30.2505 23.1087 30.7368 23.1074 31.2227C23.106 31.7848 23.1058 32.347 23.1064 32.9092V35.2207C23.1067 35.4916 23.1057 35.7632 23.1045 36.0342C23.1042 36.1337 23.1042 36.2335 23.1045 36.333C23.1048 36.4684 23.1044 36.6038 23.1035 36.7393C23.1038 36.7788 23.1042 36.8186 23.1045 36.8594C23.1025 37.015 23.0999 37.1246 23.0117 37.2559C22.8575 37.3512 22.6875 37.3345 22.5117 37.333C22.4702 37.3333 22.4285 37.3337 22.3857 37.334C22.2479 37.3347 22.1095 37.3336 21.9717 37.333C21.876 37.3331 21.7802 37.3338 21.6846 37.334C21.484 37.3342 21.2835 37.3338 21.083 37.333H19.7178C19.623 37.3329 19.5283 37.3336 19.4336 37.334C19.3012 37.3344 19.1686 37.3339 19.0361 37.333C18.9969 37.3333 18.9574 37.3336 18.917 37.334C18.6561 37.3307 18.6558 37.3304 18.5352 37.2559C18.4263 37.0935 18.4418 36.9262 18.4434 36.7373V36.1787C18.4431 36.0765 18.4418 35.9743 18.4414 35.8721C18.4404 35.5936 18.4411 35.3146 18.4414 35.0361C18.4416 34.804 18.4408 34.5719 18.4404 34.3398C18.4397 33.7922 18.4398 33.2439 18.4404 32.6963C18.441 32.1309 18.4409 31.5654 18.4395 31C18.4383 30.515 18.4372 30.0299 18.4375 29.5449C18.4377 29.255 18.4374 28.9647 18.4365 28.6748C18.4357 28.4024 18.4365 28.1298 18.4375 27.8574C18.4377 27.7573 18.4371 27.6568 18.4365 27.5566C18.4358 27.4203 18.4365 27.2838 18.4375 27.1475C18.437 27.1076 18.4371 27.0674 18.4365 27.0264C18.439 26.8528 18.4419 26.7578 18.5625 26.6279C18.7339 26.5462 18.8989 26.5496 19.085 26.5508C19.1255 26.5504 19.1663 26.5502 19.208 26.5498C19.3417 26.5488 19.4757 26.5485 19.6094 26.5488C19.7024 26.5486 19.7957 26.5482 19.8887 26.5479C20.0836 26.5474 20.2787 26.5473 20.4736 26.5479C20.7233 26.5485 20.973 26.5475 21.2227 26.5459C21.4148 26.5449 21.6076 26.5456 21.7998 26.5459C21.8919 26.5459 21.9841 26.5456 22.0762 26.5449C22.205 26.5441 22.3341 26.544 22.4629 26.5449C22.5008 26.5444 22.5391 26.5445 22.5781 26.5439ZM26.9062 23.1152C27.1634 23.1162 27.4206 23.1152 27.6777 23.1143H28.5557C28.6882 23.1138 28.8206 23.1143 28.9531 23.1152C28.9924 23.1149 29.0318 23.1146 29.0723 23.1143C29.3382 23.1176 29.3385 23.1175 29.4541 23.2031C29.5426 23.3213 29.5448 23.3855 29.5449 23.5322C29.5453 23.5807 29.5455 23.6297 29.5459 23.6797C29.5455 23.7329 29.5453 23.786 29.5449 23.8408C29.5452 23.8974 29.5456 23.9544 29.5459 24.0127C29.5465 24.2031 29.5454 24.3935 29.5449 24.584C29.5451 24.7202 29.5455 24.8569 29.5459 24.9932V27.1504C29.5464 27.8818 29.5458 28.6133 29.5449 29.3447C29.5442 29.9727 29.5442 30.6006 29.5449 31.2285C29.5458 31.9573 29.5464 32.6862 29.5459 33.415V36.0625C29.5463 36.2438 29.5457 36.4251 29.5449 36.6064C29.5453 36.6598 29.5455 36.7136 29.5459 36.7686C29.5453 36.8411 29.5456 36.8412 29.5449 36.915C29.5449 36.9779 29.545 36.9788 29.5449 37.043C29.5191 37.1816 29.4759 37.2291 29.3633 37.3125C29.2224 37.3284 29.0941 37.3342 28.9531 37.333C28.9116 37.3333 28.87 37.3337 28.8271 37.334H28.126C27.9255 37.3342 27.7249 37.3338 27.5244 37.333C27.2672 37.3321 27.0101 37.333 26.7529 37.334H25.875C25.7425 37.3344 25.61 37.3339 25.4775 37.333C25.4382 37.3333 25.3989 37.3336 25.3584 37.334C25.0925 37.3306 25.0922 37.3307 24.9766 37.2451C24.8878 37.1267 24.8858 37.0622 24.8857 36.915C24.8853 36.8667 24.8852 36.8184 24.8848 36.7686C24.8851 36.7152 24.8854 36.6614 24.8857 36.6064C24.8855 36.55 24.885 36.4936 24.8848 36.4355C24.8841 36.245 24.8852 36.0539 24.8857 35.8633C24.8855 35.7272 24.8851 35.5911 24.8848 35.4551V33.2979C24.8843 32.5664 24.8849 31.835 24.8857 31.1035C24.8865 30.4756 24.8865 29.8477 24.8857 29.2197C24.8849 28.491 24.8843 27.7619 24.8848 27.0332V24.3857C24.8843 24.2042 24.8849 24.0224 24.8857 23.8408C24.8854 23.7876 24.8851 23.7345 24.8848 23.6797C24.8852 23.6312 24.8853 23.5822 24.8857 23.5322C24.8858 23.4904 24.8857 23.4483 24.8857 23.4053C24.9448 23.0883 25.2106 23.113 25.4775 23.1152C25.5191 23.115 25.5607 23.1145 25.6035 23.1143H26.3047C26.5052 23.114 26.7058 23.1145 26.9062 23.1152ZM35.1172 10.6455C35.594 10.6468 35.5943 10.647 35.792 10.8066C35.9588 10.9952 35.9761 11.0804 35.9795 11.3262C35.9808 11.4116 35.9811 11.412 35.9824 11.499C35.9848 11.76 35.987 12.0212 35.9883 12.2822C35.9892 12.4198 35.9901 12.5577 35.9922 12.6953C35.9951 12.8938 35.9963 13.0926 35.9971 13.291C35.9983 13.3524 35.9997 13.4143 36.001 13.4775C35.9997 13.9539 35.9996 13.9541 35.8398 14.1514C35.6541 14.3164 35.519 14.3768 35.2715 14.3828C35.056 14.3416 34.893 14.2729 34.7373 14.1172C34.6194 13.8882 34.6132 13.6571 34.5967 13.4023C34.5899 13.3009 34.5899 13.3007 34.583 13.1973C34.5798 13.1455 34.5766 13.0934 34.5732 13.04C34.5498 13.0637 34.5261 13.0879 34.502 13.1123C33.9319 13.6894 33.361 14.2656 32.7891 14.8408C32.5125 15.1191 32.2356 15.3975 31.96 15.6768C31.7197 15.9202 31.4788 16.1631 31.2373 16.4053C31.1095 16.5335 30.9823 16.6628 30.8555 16.792C30.7137 16.9361 30.5707 17.0788 30.4277 17.2217C30.3862 17.2644 30.3446 17.3076 30.3018 17.3516C30.0514 17.5991 29.8773 17.7187 29.5254 17.7656C29.2179 17.7367 29.0163 17.5479 28.8145 17.3301C28.7193 17.2288 28.6209 17.1376 28.5156 17.0469C28.3493 16.9034 28.1845 16.7586 28.0215 16.6113C27.9765 16.5709 27.932 16.53 27.8857 16.4883C27.8009 16.4119 27.7155 16.3354 27.6309 16.2588C27.5938 16.2256 27.5568 16.1924 27.5186 16.1582C27.4861 16.129 27.4534 16.0995 27.4199 16.0693C27.3209 15.9913 27.2225 15.9404 27.1094 15.8857C27.0791 15.9161 27.0488 15.9472 27.0176 15.9785C26.2812 16.7173 25.5437 17.4552 24.8066 18.1934C24.4502 18.5504 24.0944 18.9083 23.7383 19.2656C23.428 19.577 23.1174 19.8883 22.8066 20.1992C22.6422 20.3638 22.4776 20.5284 22.3135 20.6934C22.159 20.8486 22.0036 21.0034 21.8486 21.1582C21.7918 21.215 21.7353 21.2721 21.6787 21.3291C21.6014 21.4069 21.523 21.4851 21.4453 21.5625C21.402 21.6059 21.3591 21.6496 21.3145 21.6943C21.1707 21.8211 21.0615 21.8437 20.873 21.8701C20.4162 21.8185 20.0669 21.4341 19.749 21.125C19.4698 20.8568 19.1862 20.5953 18.8926 20.3428C18.8386 20.2963 18.8386 20.2957 18.7832 20.248C18.6947 20.1721 18.6062 20.0962 18.5176 20.0205C18.338 20.0985 18.2211 20.1971 18.084 20.3359C18.041 20.3792 17.9975 20.4222 17.9531 20.4668C17.9064 20.5144 17.8597 20.5623 17.8115 20.6113C17.7354 20.6881 17.6592 20.765 17.583 20.8418C17.5013 20.9243 17.4194 21.0072 17.3379 21.0898C17.1678 21.2622 16.9969 21.4337 16.8262 21.6055C16.3403 22.0944 15.8546 22.584 15.3701 23.0742C15.1024 23.3451 14.8341 23.6159 14.5654 23.8857C14.3957 24.0563 14.2263 24.2279 14.0576 24.3994C13.9276 24.5313 13.7968 24.6628 13.666 24.7939C13.6197 24.8414 13.5731 24.8886 13.5254 24.9375C13.2695 25.1921 13.0713 25.3571 12.7178 25.4443C12.4634 25.4303 12.3241 25.3674 12.127 25.2031C11.9962 25.0195 11.9731 24.8414 11.9893 24.6191C12.0235 24.4605 12.0654 24.3989 12.1748 24.2812C12.209 24.2442 12.244 24.2071 12.2793 24.1689C12.5022 23.9381 12.727 23.709 12.9541 23.4824L14.0391 22.3975C14.3015 22.1349 14.5645 21.8728 14.8271 21.6104C15.1311 21.3067 15.4346 21.0022 15.7383 20.6982L17.5898 18.8467C17.6629 18.7735 17.7364 18.7009 17.8096 18.6279C17.8506 18.587 17.8914 18.5451 17.9336 18.5029C18.0877 18.3592 18.19 18.3458 18.3965 18.3398C18.4416 18.3378 18.4868 18.3351 18.5332 18.333C18.8766 18.3871 19.1264 18.6786 19.3691 18.9102C19.4358 18.9729 19.5026 19.036 19.5693 19.0986C19.601 19.1284 19.6334 19.1578 19.666 19.1885C19.8003 19.3137 19.9386 19.4343 20.0781 19.5537C20.1601 19.6256 20.2401 19.6996 20.3193 19.7744C20.367 19.8191 20.4148 19.8642 20.4639 19.9102C20.5073 19.9516 20.5509 19.9934 20.5957 20.0361C20.7217 20.1498 20.7219 20.1494 20.9336 20.1279C21.0564 20.0367 21.0567 20.0368 21.1777 19.9092C21.2265 19.8605 21.2759 19.8118 21.3262 19.7617C21.3798 19.7071 21.4337 19.6523 21.4873 19.5977C21.544 19.5407 21.6004 19.4836 21.6572 19.4268C21.7796 19.3041 21.9017 19.1809 22.0234 19.0576C22.216 18.8626 22.4101 18.6687 22.6035 18.4746C22.9094 18.1675 23.2144 17.8595 23.5195 17.5518C24.066 17.0005 24.6135 16.4495 25.1611 15.8994C25.3533 15.7063 25.5457 15.513 25.7373 15.3193C25.8566 15.1989 25.9761 15.0782 26.0957 14.958C26.1511 14.9022 26.2065 14.846 26.2617 14.79C26.337 14.7137 26.4126 14.6375 26.4883 14.5615C26.5305 14.519 26.5727 14.4765 26.6162 14.4326C26.7815 14.2852 26.9007 14.2286 27.1191 14.1943C27.5282 14.248 27.8138 14.5349 28.0898 14.8242C28.2182 14.9558 28.357 15.0744 28.4961 15.1943C28.6282 15.3091 28.758 15.4265 28.8877 15.5439C29.0788 15.7164 29.2722 15.8842 29.4717 16.0469C29.6285 15.976 29.74 15.9 29.8613 15.7783C29.8946 15.7452 29.9276 15.7119 29.9619 15.6777C29.9978 15.6415 30.0333 15.6048 30.0703 15.5674C30.1276 15.5101 30.1282 15.5105 30.1865 15.4521C30.3127 15.3259 30.4386 15.1989 30.5645 15.0723C30.652 14.9845 30.7405 14.8963 30.8281 14.8086C31.0585 14.5778 31.2886 14.3464 31.5186 14.1152C31.7534 13.8793 31.9886 13.6438 32.2236 13.4082C32.6849 12.9458 33.1457 12.4825 33.6064 12.0195C33.5437 12.0175 33.4807 12.0157 33.416 12.0137C33.333 12.0102 33.25 12.0065 33.167 12.0029C33.1258 12.0017 33.0844 12.0003 33.042 11.999C32.7958 11.9874 32.6239 11.9643 32.4248 11.8047C32.2828 11.5632 32.2352 11.3718 32.2822 11.0996C32.3975 10.7704 32.6513 10.6713 32.9668 10.667C33.0523 10.6657 33.0524 10.6654 33.1396 10.6641C33.4007 10.6617 33.6618 10.6594 33.9229 10.6582C34.0605 10.6573 34.1983 10.6563 34.3359 10.6543C34.5344 10.6514 34.7332 10.6502 34.9316 10.6494C34.9929 10.6482 35.0541 10.6468 35.1172 10.6455Z" fill="white"/>
</svg>
