<svg width="48" height="48" viewBox="0 0 48 48" fill="none" xmlns="http://www.w3.org/2000/svg">
<rect width="48" height="48" rx="8" fill="#2AA7A0"/>
<path d="M15 12V18H21V12H15ZM28.8 18V26.4H9.6C9.2682 26.4 9 26.6688 9 27V30.6C9 31.9236 10.0764 33 11.4 33H13.8539C14.1407 34.6998 15.6192 36 17.4 36C19.1808 36 20.6587 34.6998 20.9461 33H28.8C29.088 34.6992 30.6186 36 32.4 36C34.1814 36 35.6582 34.6992 35.9438 33H37.2C38.142 33 39 32.142 39 31.2V25.425C39 24.2178 38.1306 22.9851 38.025 22.8375L35.5313 19.5C34.9595 18.8112 34.062 18 33 18H28.8ZM11.4 19.2V25.2H17.4V19.2H11.4ZM18.6 19.2V25.2H24.6V19.2H18.6ZM31.8 21H35.1563L37.0688 23.55C37.2722 23.838 37.8 24.7218 37.8 25.425V25.8H31.8C31.2 25.8 30.6 25.2 30.6 24.6V22.2C30.6 21.537 31.2 21 31.8 21ZM17.4 30C18.7236 30 19.8 31.0764 19.8 32.4C19.8 33.7236 18.7236 34.8 17.4 34.8C16.0764 34.8 15 33.7236 15 32.4C15 31.0764 16.0764 30 17.4 30ZM32.4 30C33.7242 30 34.8 31.0758 34.8 32.4C34.8 33.7242 33.7242 34.8 32.4 34.8C31.0758 34.8 30 33.7242 30 32.4C30 31.0758 31.0758 30 32.4 30Z" fill="white"/>
</svg>
