<svg width="48" height="48" viewBox="0 0 48 48" fill="none" xmlns="http://www.w3.org/2000/svg">
<rect width="48" height="48" rx="8" fill="#77AD58"/>
<path d="M17.3545 9.10303C17.903 8.92037 18.5098 9.03662 19.0879 9.03662V20.6382C17.5548 20.6382 17.554 20.6381 17.1543 20.3716C17.0601 20.1831 17.0779 20.0248 17.0771 19.814C17.0769 19.7701 17.0774 19.7263 17.0771 19.6812C17.0764 19.5332 17.0754 19.3848 17.0752 19.2368C17.0748 19.1309 17.0747 19.0243 17.0742 18.9185C17.0731 18.6304 17.0728 18.3423 17.0723 18.0542C17.0719 17.8742 17.0707 17.6941 17.0703 17.5142C17.069 16.9514 17.0689 16.3885 17.0684 15.8257C17.0677 15.1756 17.0652 14.5256 17.0625 13.8755C17.0605 13.3733 17.0598 12.8709 17.0596 12.3687C17.0594 12.0686 17.0593 11.7684 17.0576 11.4683C17.0561 11.186 17.055 10.9038 17.0557 10.6216C17.0557 10.518 17.0556 10.4137 17.0547 10.3101V9.646C17.0946 9.3927 17.1739 9.28226 17.3545 9.10303ZM21.959 9.71924C21.9623 10.4618 21.9667 11.2043 21.9717 11.9468C21.9747 12.3971 21.9777 12.848 21.9795 13.2983C21.9812 13.7328 21.983 14.1676 21.9863 14.6021C21.9874 14.7681 21.9888 14.9341 21.9893 15.1001C21.9899 15.3321 21.992 15.5644 21.9941 15.7964C21.994 15.8654 21.9933 15.9343 21.9932 16.0054C21.994 16.0685 21.9952 16.1318 21.9961 16.1968C21.9964 16.2516 21.9968 16.3064 21.9971 16.3628C22.0287 16.5371 22.0825 16.5991 22.2227 16.7046C22.4287 16.6872 22.5698 16.5966 22.7373 16.481C22.7831 16.4505 22.8288 16.4196 22.876 16.3882C22.9712 16.3238 23.0658 16.2585 23.1602 16.1929C23.5085 15.9634 23.5091 15.963 23.7246 15.9976C23.8061 16.0502 23.8065 16.0503 23.8896 16.104C23.9463 16.1383 23.9464 16.1385 24.0039 16.1733C24.1801 16.2801 24.3546 16.3911 24.5273 16.5034C24.762 16.6614 24.762 16.6619 25.0332 16.687C25.1693 16.6484 25.1693 16.648 25.2227 16.5044C25.2296 16.4047 25.2326 16.3045 25.2334 16.2046C25.234 16.1417 25.2347 16.0789 25.2354 16.0142C25.2357 15.9448 25.2359 15.8747 25.2363 15.8032C25.237 15.7305 25.2376 15.6575 25.2383 15.5825C25.2404 15.341 25.2425 15.0994 25.2441 14.8579C25.2455 14.6907 25.2466 14.5232 25.248 14.356C25.2514 13.9602 25.2549 13.5642 25.2578 13.1685C25.2614 12.674 25.2655 12.1795 25.2695 11.6851C25.2767 10.8024 25.2835 9.91927 25.29 9.03662H27.5566V20.6382H19.7559V9.03662H21.9561C21.957 9.26179 21.958 9.48725 21.959 9.71924ZM28.1553 9.03662C29.7553 9.03662 29.7555 9.03653 30.0889 9.30322C30.217 9.58431 30.2387 9.83163 30.2393 10.1382C30.2397 10.2245 30.2407 10.311 30.2412 10.3999C30.2411 10.4946 30.2404 10.5894 30.2402 10.6841C30.2405 10.7845 30.2408 10.8854 30.2412 10.9858C30.2421 11.2579 30.2424 11.5302 30.2422 11.8022C30.2421 12.0297 30.2428 12.2575 30.2432 12.4849C30.2439 13.0215 30.2436 13.5585 30.2432 14.0952C30.2428 14.6483 30.2437 15.2013 30.2451 15.7544C30.2463 16.2299 30.2463 16.7056 30.2461 17.1812C30.246 17.4649 30.2461 17.7489 30.2471 18.0327C30.2479 18.2996 30.2479 18.5666 30.2471 18.8335C30.2469 18.9312 30.2475 19.0288 30.248 19.1265C30.253 20.0819 30.253 20.0823 30.0225 20.438C29.6891 20.638 29.6887 20.6382 28.1553 20.6382V9.03662ZM24.6191 15.8374C24.0193 15.5041 24.0192 15.5038 23.8193 15.3706C23.4232 15.3706 23.1954 15.5216 22.8799 15.7524C22.7523 15.8374 22.7521 15.8374 22.6191 15.8374V9.03662H24.6191V15.8374Z" fill="white"/>
<path d="M31.2064 21.9731H15.8747C15.1123 21.9731 14.3811 22.2721 13.842 22.8043C13.3029 23.3365 13 24.0583 13 24.811V36.1623C13 36.915 13.3029 37.6368 13.842 38.169C14.3811 38.7012 15.1123 39.0002 15.8747 39.0002H31.2064C31.9688 39.0002 32.7 38.7012 33.2391 38.169C33.7782 37.6368 34.0811 36.915 34.0811 36.1623V24.811C34.0811 24.0583 33.7782 23.3365 33.2391 22.8043C32.7 22.2721 31.9688 21.9731 31.2064 21.9731ZM32.1646 36.1623C32.1646 36.4132 32.0637 36.6538 31.884 36.8312C31.7043 37.0086 31.4605 37.1083 31.2064 37.1083H15.8747C15.6206 37.1083 15.3768 37.0086 15.1971 36.8312C15.0174 36.6538 14.9165 36.4132 14.9165 36.1623V24.811C14.9165 24.5601 15.0174 24.3195 15.1971 24.1421C15.3768 23.9647 15.6206 23.865 15.8747 23.865H31.2064C31.4605 23.865 31.7043 23.9647 31.884 24.1421C32.0637 24.3195 32.1646 24.5601 32.1646 24.811V36.1623ZM18.7494 26.7029V34.2704C18.7494 34.5213 18.6484 34.7619 18.4687 34.9393C18.289 35.1167 18.0453 35.2164 17.7912 35.2164C17.537 35.2164 17.2933 35.1167 17.1136 34.9393C16.9339 34.7619 16.8329 34.5213 16.8329 34.2704V26.7029C16.8329 26.452 16.9339 26.2114 17.1136 26.034C17.2933 25.8566 17.537 25.7569 17.7912 25.7569C18.0453 25.7569 18.289 25.8566 18.4687 26.034C18.6484 26.2114 18.7494 26.452 18.7494 26.7029ZM21.6241 26.7029V30.4867C21.6241 30.7375 21.5231 30.9781 21.3434 31.1555C21.1637 31.3329 20.92 31.4326 20.6658 31.4326C20.4117 31.4326 20.168 31.3329 19.9883 31.1555C19.8086 30.9781 19.7076 30.7375 19.7076 30.4867V26.7029C19.7076 26.452 19.8086 26.2114 19.9883 26.034C20.168 25.8566 20.4117 25.7569 20.6658 25.7569C20.92 25.7569 21.1637 25.8566 21.3434 26.034C21.5231 26.2114 21.6241 26.452 21.6241 26.7029ZM24.4988 26.7029V34.2704C24.4988 34.5213 24.3978 34.7619 24.2181 34.9393C24.0384 35.1167 23.7947 35.2164 23.5405 35.2164C23.2864 35.2164 23.0427 35.1167 22.863 34.9393C22.6833 34.7619 22.5823 34.5213 22.5823 34.2704V26.7029C22.5823 26.452 22.6833 26.2114 22.863 26.034C23.0427 25.8566 23.2864 25.7569 23.5405 25.7569C23.7947 25.7569 24.0384 25.8566 24.2181 26.034C24.3978 26.2114 24.4988 26.452 24.4988 26.7029ZM27.3735 26.7029V30.4867C27.3735 30.7375 27.2725 30.9781 27.0928 31.1555C26.9131 31.3329 26.6694 31.4326 26.4152 31.4326C26.1611 31.4326 25.9174 31.3329 25.7377 31.1555C25.558 30.9781 25.457 30.7375 25.457 30.4867V26.7029C25.457 26.452 25.558 26.2114 25.7377 26.034C25.9174 25.8566 26.1611 25.7569 26.4152 25.7569C26.6694 25.7569 26.9131 25.8566 27.0928 26.034C27.2725 26.2114 27.3735 26.452 27.3735 26.7029ZM30.2482 26.7029V34.2704C30.2482 34.5213 30.1472 34.7619 29.9675 34.9393C29.7878 35.1167 29.5441 35.2164 29.2899 35.2164C29.0358 35.2164 28.7921 35.1167 28.6124 34.9393C28.4327 34.7619 28.3317 34.5213 28.3317 34.2704V26.7029C28.3317 26.452 28.4327 26.2114 28.6124 26.034C28.7921 25.8566 29.0358 25.7569 29.2899 25.7569C29.5441 25.7569 29.7878 25.8566 29.9675 26.034C30.1472 26.2114 30.2482 26.452 30.2482 26.7029ZM21.6241 33.3245V34.2704C21.6241 34.5213 21.5231 34.7619 21.3434 34.9393C21.1637 35.1167 20.92 35.2164 20.6658 35.2164C20.4117 35.2164 20.168 35.1167 19.9883 34.9393C19.8086 34.7619 19.7076 34.5213 19.7076 34.2704V33.3245C19.7076 33.0736 19.8086 32.833 19.9883 32.6556C20.168 32.4782 20.4117 32.3786 20.6658 32.3786C20.92 32.3786 21.1637 32.4782 21.3434 32.6556C21.5231 32.833 21.6241 33.0736 21.6241 33.3245ZM27.3735 33.3245V34.2704C27.3735 34.5213 27.2725 34.7619 27.0928 34.9393C26.9131 35.1167 26.6694 35.2164 26.4152 35.2164C26.1611 35.2164 25.9174 35.1167 25.7377 34.9393C25.558 34.7619 25.457 34.5213 25.457 34.2704V33.3245C25.457 33.0736 25.558 32.833 25.7377 32.6556C25.9174 32.4782 26.1611 32.3786 26.4152 32.3786C26.6694 32.3786 26.9131 32.4782 27.0928 32.6556C27.2725 32.833 27.3735 33.0736 27.3735 33.3245Z" fill="white"/>
</svg>
