<svg width="48" height="48" viewBox="0 0 48 48" fill="none" xmlns="http://www.w3.org/2000/svg">
<rect width="48" height="48" rx="8" fill="#379F79"/>
<path d="M31.7178 13.998C31.9982 13.998 32.2675 14.109 32.4658 14.3057C32.6642 14.5026 32.7764 14.7703 32.7764 15.0488V16.0986H34.9346C35.4099 16.0991 35.8793 16.2056 36.3076 16.4102C36.736 16.6148 37.1122 16.9127 37.4092 17.2812L40.543 21.166C40.9937 21.7249 41.2395 22.4198 41.2393 23.1357V27.6494C41.2392 28.4848 40.9047 29.2862 40.3096 29.877C39.7144 30.4677 38.9071 30.7998 38.0654 30.7998H37.0078C37.0077 31.9136 36.5619 32.9819 35.7686 33.7695C34.9751 34.5571 33.8985 34.9999 32.7764 35C31.6542 35 30.5777 34.5571 29.7842 33.7695C28.9907 32.9819 28.544 31.9136 28.5439 30.7998H17.9658C17.9657 31.9136 17.5191 32.9819 16.7256 33.7695C15.932 34.5571 14.8556 35 13.7334 35C12.6113 34.9999 11.5347 34.5571 10.7412 33.7695C9.94785 32.9819 9.50205 31.9135 9.50195 30.7998C8.94093 30.7997 8.40257 30.5783 8.00586 30.1846C7.6091 29.7907 7.38672 29.2562 7.38672 28.6992V26.5996H30.6602V15.0488C30.6602 14.7703 30.7713 14.5026 30.9697 14.3057C31.168 14.1088 31.4373 13.9981 31.7178 13.998ZM13.7334 28.6992C13.1724 28.6993 12.634 28.9207 12.2373 29.3145C11.8407 29.7083 11.6182 30.2429 11.6182 30.7998C11.6183 31.3565 11.8408 31.8905 12.2373 32.2842C12.634 32.6779 13.1724 32.8993 13.7334 32.8994C14.2945 32.8994 14.8327 32.678 15.2295 32.2842C15.6262 31.8904 15.8495 31.3567 15.8496 30.7998C15.8496 30.2428 15.6263 29.7083 15.2295 29.3145C14.8327 28.9207 14.2944 28.6992 13.7334 28.6992ZM32.7764 28.6992C32.2153 28.6992 31.677 28.9207 31.2803 29.3145C30.8835 29.7083 30.6602 30.2428 30.6602 30.7998C30.6603 31.3567 30.8836 31.8904 31.2803 32.2842C31.6771 32.678 32.2153 32.8994 32.7764 32.8994C33.3374 32.8993 33.8758 32.6779 34.2725 32.2842C34.669 31.8905 34.8915 31.3565 34.8916 30.7998C34.8916 30.2429 34.6691 29.7083 34.2725 29.3145C33.8758 28.9207 33.3374 28.6993 32.7764 28.6992ZM32.7764 23.8721H39.123V23.1338C39.1226 22.8956 39.0408 22.6643 38.8906 22.4785L35.7588 18.5938C35.6599 18.4708 35.5344 18.3711 35.3916 18.3027C35.249 18.2346 35.0928 18.1985 34.9346 18.1982H32.7764V23.8721Z" fill="white"/>
</svg>
