<svg width="48" height="48" viewBox="0 0 48 48" fill="none" xmlns="http://www.w3.org/2000/svg">
<rect width="48" height="48" rx="8" fill="#5562A3"/>
<path d="M25.3242 24.4932C25.3837 24.4933 25.4434 24.493 25.5029 24.4932C25.6481 24.4935 25.7933 24.4945 25.9385 24.4951C25.9385 24.517 25.9385 24.539 25.9385 24.5615C25.939 25.097 25.941 25.6325 25.9434 26.168C25.9445 26.427 25.9452 26.6863 25.9453 26.9453C25.9454 27.1712 25.9459 27.3971 25.9473 27.623C25.9479 27.7425 25.9485 27.862 25.9482 27.9814C25.948 28.1152 25.9491 28.249 25.9502 28.3828C25.9499 28.4218 25.9495 28.4608 25.9492 28.501C25.9532 28.8018 26.0237 29.079 26.207 29.3232C26.4277 29.534 26.6594 29.6401 26.9668 29.6406H27.249C27.3007 29.6408 27.3526 29.6414 27.4043 29.6416C27.5156 29.642 27.627 29.6416 27.7383 29.6416C27.9147 29.6417 28.0912 29.6429 28.2676 29.6436C28.7057 29.6451 29.1439 29.6458 29.582 29.6465C29.9224 29.647 30.2631 29.648 30.6035 29.6494C30.7786 29.6501 30.9539 29.6505 31.1289 29.6504C31.2383 29.6504 31.3477 29.6508 31.457 29.6514C31.5074 29.6515 31.5581 29.6515 31.6084 29.6514C32.0854 29.65 32.4926 29.7075 32.8604 30.0342C32.8843 30.0615 32.909 30.0881 32.9336 30.1162C32.949 30.132 32.9645 30.1478 32.9805 30.1641C33.2409 30.4416 33.3373 30.7782 33.332 31.1514C33.3222 31.3343 33.2819 31.5076 33.2402 31.6855C33.2224 31.7639 33.2043 31.8426 33.1865 31.9209C33.1768 31.9635 33.167 32.0062 33.1572 32.0488C33.1073 32.2676 33.0591 32.487 33.0107 32.7061C32.9804 32.8436 32.9504 32.9816 32.9199 33.1191C32.9072 33.1767 32.8946 33.2344 32.8818 33.292C32.7998 33.6625 32.7169 34.0328 32.6348 34.4033C32.5629 34.7278 32.4908 35.0525 32.4189 35.377C32.3557 35.6624 32.2928 35.9479 32.2295 36.2334C32.1961 36.3838 32.1632 36.5351 32.1299 36.6855C32.0987 36.8264 32.0674 36.9676 32.0361 37.1084C32.0247 37.1598 32.0133 37.2113 32.002 37.2627C31.9864 37.333 31.9707 37.4033 31.9551 37.4736C31.942 37.5327 31.9421 37.5335 31.9287 37.5938C31.8176 38.0783 31.6526 38.475 31.2354 38.7676C30.8481 38.984 30.4667 38.9871 30.0361 38.9844C29.9727 38.9844 29.9092 38.9852 29.8457 38.9854C29.6736 38.9857 29.5012 38.985 29.3291 38.9844C29.1481 38.9838 28.9671 38.9834 28.7861 38.9834C28.4819 38.9833 28.1773 38.9833 27.873 38.9824C27.5231 38.9814 27.1732 38.9814 26.8232 38.9814C26.4486 38.9815 26.0738 38.9811 25.6992 38.9805C25.5922 38.9803 25.4849 38.9795 25.3779 38.9795C25.2087 38.9794 25.0394 38.9792 24.8701 38.9785C24.8086 38.9783 24.7471 38.9785 24.6855 38.9785C24.3687 38.9786 24.0549 38.9694 23.7393 38.9404C23.712 38.938 23.6843 38.9361 23.6562 38.9336C22.7857 38.8455 22.0404 38.3737 21.3867 37.8213C21.3101 37.7567 21.232 37.6932 21.1543 37.6299C21.0481 37.5427 20.9418 37.4557 20.8359 37.3682C20.8114 37.3479 20.787 37.3275 20.7617 37.3066C20.713 37.2663 20.6639 37.2259 20.6152 37.1855C20.5928 37.1669 20.57 37.1481 20.5469 37.1289C20.5269 37.1123 20.5069 37.0952 20.4863 37.0781C19.8919 36.5983 18.9663 36.9131 18.2031 36.9014V28.6309C18.8838 28.6202 19.5644 28.6086 20.2656 28.5977C20.3081 28.4591 20.3507 28.3204 20.3945 28.1777C20.4484 28.0609 20.5033 27.9496 20.5645 27.8369C20.5801 27.8077 20.5952 27.7782 20.6113 27.748C21.0692 26.9017 21.7322 26.1194 22.4902 25.5283C22.5225 25.5022 22.5547 25.4761 22.5879 25.4492C23.2771 24.8968 24.0794 24.4866 24.9785 24.4922C25.0199 24.4923 25.0203 24.4921 25.0625 24.4922C25.1497 24.4924 25.237 24.4928 25.3242 24.4932ZM16.001 27.584C16.2049 27.5851 16.3613 27.597 16.5176 27.7432C16.6198 27.8771 16.6619 27.9423 16.6621 28.1094C16.6622 28.1427 16.663 28.1766 16.6631 28.2109V28.7676C16.6631 28.8849 16.6638 29.0028 16.6641 29.1201C16.6645 29.3766 16.6649 29.6331 16.665 29.8896C16.6651 30.0498 16.6649 30.21 16.665 30.3701C16.6654 30.8134 16.6659 31.2569 16.666 31.7002V32.1328C16.6661 32.5963 16.6662 33.06 16.667 33.5234C16.6678 33.999 16.6689 34.4746 16.6689 34.9502C16.669 35.2174 16.6693 35.4848 16.6699 35.752V37.1602C16.6703 37.2152 16.6705 37.2154 16.6709 37.2715C16.6696 37.4779 16.6589 37.6354 16.5137 37.7949C16.3763 37.9021 16.2853 37.9386 16.1133 37.9395C16.0806 37.9397 16.0473 37.9402 16.0137 37.9404C15.978 37.9405 15.942 37.9403 15.9053 37.9404C15.8676 37.9406 15.8298 37.9412 15.791 37.9414C15.666 37.942 15.541 37.943 15.416 37.9434C15.3729 37.9435 15.3293 37.9432 15.2861 37.9434C15.0837 37.944 14.8812 37.9441 14.6787 37.9443C14.4451 37.9447 14.2112 37.946 13.9775 37.9473C13.7968 37.9482 13.6154 37.9481 13.4346 37.9482C13.3268 37.9483 13.2191 37.9494 13.1113 37.9502C12.9909 37.951 12.8704 37.9504 12.75 37.9502C12.7144 37.9506 12.6783 37.9507 12.6416 37.9512C12.4442 37.9498 12.3277 37.9385 12.1777 37.8057C12.0534 37.6675 12.0131 37.5702 12.0127 37.3857C12.0125 37.3361 12.0119 37.3358 12.0117 37.2852V37.0547C12.0114 36.9459 12.0108 36.8364 12.0107 36.7275C12.0106 36.6104 12.011 36.4932 12.0107 36.376C12.0101 36.0928 12.0091 35.8096 12.0088 35.5264C12.0086 35.393 12.009 35.2593 12.0088 35.126C12.0082 34.6827 12.008 34.2391 12.0078 33.7959C12.0078 33.681 12.0069 33.5661 12.0068 33.4512C12.0068 33.4226 12.0069 33.3937 12.0068 33.3643C12.0066 32.901 12.0059 32.4378 12.0049 31.9746C12.0038 31.4991 12.003 31.0234 12.0029 30.5479C12.0029 30.2808 12.0028 30.0132 12.002 29.7461C12.0013 29.5189 12.0016 29.2917 12.002 29.0645C12.0021 28.9484 12.0016 28.8319 12.001 28.7158C12.0003 28.5902 12.0006 28.4645 12.001 28.3389C12.0006 28.3022 12.0004 28.2654 12 28.2275C12.0016 28.0283 12.0114 27.9088 12.1455 27.7578C12.2772 27.6415 12.3514 27.5925 12.5254 27.5918C12.5743 27.5915 12.5751 27.5921 12.625 27.5918C12.6608 27.5918 12.6965 27.5909 12.7334 27.5908C12.771 27.5907 12.8089 27.591 12.8477 27.5908C12.9514 27.5904 13.0555 27.59 13.1592 27.5898C13.2239 27.5897 13.2888 27.59 13.3535 27.5898C13.5563 27.5894 13.7591 27.589 13.9619 27.5889C14.1959 27.5887 14.4301 27.5879 14.6641 27.5869C14.8449 27.5862 15.0262 27.586 15.207 27.5859C15.3148 27.5859 15.4225 27.5855 15.5303 27.585C15.6509 27.5844 15.772 27.5848 15.8926 27.585C15.9282 27.5847 15.9642 27.5843 16.001 27.584ZM30.583 28.1133H27.4883V21.9102H30.583V28.1133ZM35.4424 10C35.8339 9.99693 36.1991 10.0389 36.4971 10.3223C36.7257 10.584 36.7791 10.8386 36.7783 11.1787C36.7785 11.2141 36.7791 11.2497 36.7793 11.2861C36.7798 11.4046 36.7793 11.5232 36.7793 11.6416C36.7795 11.7266 36.78 11.8124 36.7803 11.8975C36.781 12.1283 36.7811 12.359 36.7812 12.5898C36.7814 12.7342 36.782 12.8791 36.7822 13.0234C36.7829 13.4235 36.7831 13.8236 36.7832 14.2236V14.6133C36.7833 15.0306 36.784 15.4479 36.7852 15.8652C36.7864 16.2942 36.7871 16.7234 36.7871 17.1523C36.7871 17.3931 36.7881 17.6343 36.7891 17.875C36.7899 18.0799 36.7895 18.2853 36.7891 18.4902C36.7888 18.5946 36.7894 18.6994 36.79 18.8037C36.7955 19.7439 36.7949 19.7442 36.4775 20.084C36.2494 20.2639 35.9922 20.3628 35.7051 20.3633C35.67 20.3634 35.6696 20.3641 35.6338 20.3643H35.2266C35.0697 20.3646 34.9127 20.3651 34.7559 20.3652C34.587 20.3654 34.4179 20.3659 34.249 20.3662C33.8406 20.3668 33.4318 20.3669 33.0234 20.3672C32.8312 20.3673 32.6385 20.367 32.4463 20.3672C31.8076 20.3677 31.1689 20.3689 30.5303 20.3691H29.9072C29.2394 20.3694 28.5711 20.37 27.9033 20.3711C27.2181 20.3722 26.5329 20.3729 25.8477 20.373C25.4627 20.3731 25.0774 20.3732 24.6924 20.374C24.3646 20.3747 24.0368 20.3753 23.709 20.375H22.748C22.6927 20.3749 22.6364 20.3756 22.5811 20.376C22.0534 20.3794 22.0529 20.3794 21.8135 20.2305C21.7879 20.2161 21.7627 20.2013 21.7363 20.1865C21.5082 20.022 21.37 19.7903 21.2979 19.5195C21.2884 19.4024 21.2897 19.2854 21.29 19.168C21.2899 19.1325 21.2892 19.097 21.2891 19.0605C21.2887 18.9418 21.289 18.8229 21.2891 18.7041C21.2889 18.6189 21.2883 18.5334 21.2881 18.4482C21.2876 18.241 21.2871 18.0334 21.2871 17.8262C21.2871 17.6576 21.2873 17.4888 21.2871 17.3203C21.2865 16.8421 21.2861 16.3639 21.2861 15.8857V15.7295C21.2862 15.3113 21.2861 14.8928 21.2852 14.4746C21.2842 14.0451 21.2831 13.6151 21.2832 13.1855C21.2832 12.9447 21.2829 12.7038 21.2822 12.4629V11.1924C21.2819 11.1596 21.2816 11.1265 21.2812 11.0928C21.2843 10.7754 21.4012 10.5095 21.6201 10.2793C21.8457 10.0962 22.05 10.0131 22.3428 10.0127C22.3662 10.0126 22.3899 10.0118 22.4141 10.0117H22.8203C22.9768 10.0113 23.1336 10.0107 23.29 10.0107C23.4587 10.0107 23.6273 10.0101 23.7959 10.0098C24.1649 10.009 24.5343 10.009 24.9033 10.0088C25.1337 10.0087 25.3644 10.008 25.5947 10.0078C26.2327 10.0072 26.8708 10.0069 27.5088 10.0068H28.1299C28.7965 10.0067 29.4633 10.0061 30.1299 10.0049C30.8141 10.0037 31.4984 10.0029 32.1826 10.0029C32.5669 10.0029 32.9517 10.0029 33.3359 10.002C33.6631 10.0012 33.9902 10.0005 34.3174 10.001H35.2773C35.3324 10.0011 35.3874 10.0005 35.4424 10ZM31.8711 12.209C31.3845 11.9723 31.3842 11.9717 30.666 12.7969C30.6026 12.8699 30.5385 12.9429 30.4736 13.0146C30.3529 13.1473 30.2319 13.2796 30.1143 13.415C30.0544 13.4841 29.9945 13.553 29.9336 13.6211C29.8409 13.724 29.7475 13.8264 29.6562 13.9307C29.5479 14.0556 29.4384 14.1794 29.3271 14.3018C29.2542 14.3819 29.1806 14.4613 29.1094 14.543C29.0375 14.6265 28.9657 14.7104 28.8906 14.791C28.8719 14.811 28.8532 14.8302 28.835 14.8496C28.7968 14.8903 28.7589 14.9311 28.7207 14.9717C28.7016 14.9918 28.6826 15.0118 28.6641 15.0312C28.6461 15.0504 28.6288 15.0693 28.6113 15.0879C28.5577 15.1444 28.5202 15.1917 28.4834 15.2607C28.4744 15.2805 28.4648 15.3001 28.4561 15.3193C28.2992 15.224 28.1475 15.1237 27.999 15.0156C27.9635 14.9896 27.9635 14.9894 27.9287 14.9639C27.8252 14.8886 27.7215 14.8128 27.6182 14.7373C27.4689 14.6281 27.3192 14.5188 27.1689 14.4111C27.1254 14.38 27.0816 14.3486 27.0381 14.3174C26.9241 14.2332 26.8129 14.1511 26.6836 14.0918C26.5113 14.0527 26.375 14.0728 26.2207 14.1582C26.0698 14.2681 26.0017 14.3756 25.9541 14.5547C25.9233 14.8093 25.9235 14.8099 26.2236 15.2129C26.2943 15.3061 26.3645 15.4 26.4326 15.4951C26.4848 15.5681 26.5372 15.6412 26.5898 15.7139C26.694 15.8575 26.7968 16.002 26.8984 16.1475C27.0021 16.2959 27.105 16.4457 27.2158 16.5889C27.3552 16.7671 27.4882 16.9458 27.6143 17.1338C27.781 17.3826 27.9414 17.6377 28.166 17.8389C28.337 17.965 28.5046 17.9991 28.7139 17.9688C29.0831 17.8762 29.0841 17.8756 29.543 17.123C29.5984 17.0316 29.6542 16.9399 29.71 16.8486C29.7215 16.8297 29.7329 16.8114 29.7441 16.793C29.8365 16.6417 29.9298 16.4907 30.0244 16.3408C30.1849 16.0872 30.3443 15.8329 30.5029 15.5781C30.6314 15.3718 30.7607 15.1653 30.8906 14.96C31.0572 14.6967 31.2212 14.4317 31.3838 14.166C31.4931 13.986 31.6018 13.8057 31.7178 13.6299C31.7416 13.5942 31.7649 13.559 31.7881 13.5244C31.8325 13.4569 31.8774 13.3897 31.9219 13.3223C32.1055 13.0589 32.1692 12.8649 32.1309 12.541C32.0816 12.3929 32.0023 12.2909 31.8711 12.209Z" fill="white"/>
</svg>
