<svg width="48" height="48" viewBox="0 0 48 48" fill="none" xmlns="http://www.w3.org/2000/svg">
<rect width="48" height="48" rx="8" fill="#379F79"/>
<path d="M26.3574 34.5898C26.3585 34.9596 26.3598 35.3294 26.3623 35.6992C26.3643 35.9978 26.3657 36.2971 26.3662 36.5957C26.3665 36.709 26.3672 36.8223 26.3682 36.9355C26.3762 37.8995 26.2845 38.5937 25.6104 39.3301C25.0682 39.8492 24.4423 39.9159 23.7275 39.9053C23.4003 39.8918 23.1374 39.8096 22.8535 39.6465C22.7902 39.6105 22.7263 39.5752 22.6611 39.5381C22.14 39.1328 21.75 38.6317 21.6475 37.96C21.6422 37.7894 21.6398 37.6197 21.6406 37.4492C21.6406 37.3987 21.6406 37.3479 21.6406 37.2959C21.6407 37.1294 21.6411 36.9624 21.6416 36.7959C21.6417 36.6803 21.6425 36.5648 21.6426 36.4492C21.6428 36.1449 21.6429 35.8404 21.6436 35.5361C21.6443 35.1709 21.6442 34.8057 21.6445 34.4404C21.6451 33.8859 21.6464 33.3309 21.6475 32.7764H26.3486C26.3559 34.0457 26.3558 34.0462 26.3574 34.5898ZM28.0039 9C28.9839 8.9937 29.6627 9.26654 30.3643 9.94922C30.4895 10.0733 30.6134 10.1988 30.7373 10.3242C30.8044 10.3915 30.8723 10.4582 30.9395 10.5254C31.0794 10.6656 31.219 10.8065 31.3584 10.9473C31.5359 11.1265 31.7134 11.3059 31.8916 11.4844C32.0632 11.6562 32.235 11.8278 32.4062 12C32.4383 12.0322 32.4708 12.0645 32.5039 12.0977C32.8254 12.4206 33.1418 12.7456 33.4385 13.0918C33.5416 13.2107 33.6511 13.3217 33.7646 13.4307C33.8053 13.4703 33.8458 13.51 33.8877 13.5508C33.971 13.6314 34.055 13.7119 34.1387 13.792C34.7169 14.3581 34.9849 14.9124 34.9941 15.7285C34.9946 15.8589 34.9936 15.9897 34.9932 16.1201C34.9935 16.2145 34.9946 16.3089 34.9951 16.4033C34.9962 16.659 34.9955 16.9153 34.9951 17.1709C34.9949 17.3848 34.9957 17.5986 34.9961 17.8125C34.9969 18.3177 34.9968 18.8229 34.9961 19.3281C34.9954 19.848 34.9964 20.3679 34.998 20.8877C34.9994 21.3352 34.9994 21.7829 34.999 22.2305C34.9988 22.4971 34.999 22.7637 35 23.0303V24.0586C35.0077 25.2692 34.5118 25.9562 33.6924 26.7871C33.5618 26.9183 33.4299 27.0489 33.2988 27.1797C33.2066 27.2722 33.1147 27.3654 33.0225 27.458C32.8299 27.6511 32.6365 27.8436 32.4434 28.0361C32.1971 28.2817 31.9521 28.5286 31.707 28.7754C31.5169 28.9666 31.3256 29.1572 31.1348 29.3477C31.0443 29.4381 30.9544 29.5292 30.8643 29.6201C30.0725 30.4176 29.3919 31.039 28.2139 31.0527C28.0862 31.0532 27.9578 31.0532 27.8301 31.0527C27.7376 31.0531 27.6452 31.0532 27.5527 31.0537C27.3026 31.0548 27.0519 31.055 26.8018 31.0547C26.5922 31.0545 26.3824 31.0543 26.1729 31.0547C25.6779 31.0555 25.1825 31.0564 24.6875 31.0557C24.1784 31.055 23.6692 31.055 23.1602 31.0566C22.7217 31.058 22.2832 31.0589 21.8447 31.0586C21.5835 31.0584 21.3218 31.0585 21.0605 31.0596C20.8148 31.0605 20.569 31.0597 20.3232 31.0586C20.2336 31.0584 20.1434 31.0589 20.0537 31.0596C18.8186 31.0675 18.112 30.578 17.2646 29.7422C17.1312 29.6094 16.9982 29.476 16.8652 29.3428C16.7712 29.249 16.6771 29.1553 16.583 29.0615C16.3868 28.8658 16.1908 28.6699 15.9951 28.4736C15.7453 28.2232 15.4942 27.9738 15.2432 27.7246C15.049 27.5315 14.8556 27.3374 14.6621 27.1436C14.5699 27.0513 14.4773 26.959 14.3848 26.8672C13.4164 25.9056 13.416 25.9055 13.2129 25.4238C13.1973 25.3894 13.1811 25.3548 13.165 25.3193C12.9866 24.8722 13.0062 24.4127 13.0078 23.9395C13.0075 23.8449 13.0063 23.7499 13.0059 23.6553C13.0048 23.3997 13.0055 23.1442 13.0059 22.8887C13.006 22.6747 13.0052 22.4601 13.0049 22.2461C13.004 21.7412 13.0042 21.2363 13.0049 20.7314C13.0056 20.2117 13.0045 19.6916 13.0029 19.1719C13.0016 18.7244 13.0016 18.2765 13.002 17.8291C13.0022 17.5623 13.002 17.2951 13.001 17.0283V16.001C12.9945 14.9845 13.2791 14.389 13.9844 13.6729C14.0882 13.5704 14.1924 13.4681 14.2969 13.3662C14.4012 13.264 14.5063 13.1612 14.6104 13.0586C14.6558 13.0142 14.7012 12.9696 14.748 12.9238C14.8671 12.8009 14.9793 12.6765 15.0908 12.5469C15.3593 12.2377 15.6472 11.9479 15.9355 11.6572C15.9642 11.6283 15.9929 11.5991 16.0225 11.5693C16.1745 11.416 16.3271 11.2633 16.4795 11.1104C16.6354 10.9538 16.7903 10.7961 16.9453 10.6387C17.0662 10.5162 17.188 10.3942 17.3096 10.2725C17.3943 10.1873 17.4783 10.1014 17.5625 10.0156C18.3424 9.23828 19.0324 9.00324 20.1152 9.00684C20.2092 9.00649 20.3035 9.00537 20.3975 9.00488C20.6514 9.00381 20.9053 9.00454 21.1592 9.00488C21.3717 9.00507 21.5844 9.00427 21.7969 9.00391C22.2989 9.00306 22.8017 9.00322 23.3037 9.00391C23.82 9.0046 24.3363 9.00357 24.8525 9.00195C25.2973 9.00061 25.7428 9.00062 26.1875 9.00098C26.4525 9.00118 26.7174 9.00104 26.9824 9H28.0039ZM18.2793 16.1201C17.9109 16.1217 17.6637 16.2017 17.4121 16.4736C17.2739 16.6785 17.2425 16.832 17.2412 17.0732C17.2408 17.1282 17.2407 17.1837 17.2402 17.2402C17.2401 17.3002 17.2404 17.3601 17.2402 17.4219C17.2398 17.4853 17.2387 17.5489 17.2383 17.6143C17.2371 17.8245 17.2369 18.0349 17.2363 18.2451C17.2361 18.3169 17.2356 18.389 17.2354 18.4629C17.2341 18.8427 17.233 19.2227 17.2324 19.6025C17.2318 19.9948 17.2299 20.387 17.2275 20.7793C17.226 21.081 17.2258 21.3829 17.2256 21.6846C17.2253 21.8292 17.2238 21.9745 17.2227 22.1191C17.2212 22.3216 17.2213 22.5241 17.2217 22.7266C17.2209 22.7861 17.2205 22.8459 17.2197 22.9072C17.2225 23.2759 17.2723 23.4959 17.4912 23.7959C17.748 24.0371 18.0524 24.0729 18.3945 24.0674C18.4392 24.0675 18.4842 24.0673 18.5303 24.0674C18.6245 24.0673 18.7192 24.0667 18.8135 24.0654C18.9558 24.0637 19.0979 24.0646 19.2402 24.0654C20.0543 24.0643 20.739 23.934 21.3623 23.374C21.8887 22.822 22.0933 22.204 22.085 21.4531C22.0541 21.0046 21.9097 20.6476 21.6436 20.2881C21.5899 20.1803 21.5893 20.1802 21.5996 20.0684C21.6899 19.8345 21.8122 19.6171 21.9287 19.3955C22.1649 18.885 22.1347 18.2598 21.9531 17.7354C21.6484 17.0152 21.1922 16.5637 20.4736 16.2578C20.1789 16.1497 19.9107 16.1317 19.5977 16.1299C19.5507 16.1295 19.5035 16.1293 19.4551 16.1289C19.356 16.1283 19.2564 16.1282 19.1572 16.1279C19.0065 16.1273 18.8558 16.1249 18.7051 16.123C18.6086 16.1227 18.5116 16.1223 18.415 16.1221C18.3703 16.1213 18.3254 16.1209 18.2793 16.1201ZM23.9668 16.1162C23.6574 16.1556 23.471 16.2444 23.2588 16.4736C23.1205 16.6785 23.0892 16.832 23.0879 17.0732C23.0875 17.1282 23.0864 17.1837 23.0859 17.2402C23.0858 17.3002 23.0861 17.3601 23.0859 17.4219C23.0855 17.4853 23.0854 17.5489 23.085 17.6143C23.0838 17.8245 23.0826 18.0349 23.082 18.2451C23.0818 18.3169 23.0813 18.389 23.0811 18.4629C23.0798 18.8427 23.0787 19.2227 23.0781 19.6025C23.0775 19.9948 23.0756 20.387 23.0732 20.7793C23.0717 21.081 23.0715 21.3829 23.0713 21.6846C23.071 21.8292 23.0705 21.9745 23.0693 22.1191C23.0679 22.3216 23.0679 22.5241 23.0684 22.7266C23.0676 22.7861 23.0662 22.8459 23.0654 22.9072C23.0682 23.2764 23.1231 23.4931 23.3379 23.7959C23.5255 23.9704 23.7194 24.0315 23.9707 24.0674C24.2218 24.0315 24.416 23.9703 24.6035 23.7959C24.8561 23.4387 24.8785 23.1615 24.875 22.7305C24.8754 22.6671 24.8765 22.6034 24.877 22.5381C24.878 22.3292 24.8768 22.1201 24.876 21.9111C24.8761 21.7655 24.8767 21.6193 24.877 21.4736C24.8773 21.1688 24.8771 20.8634 24.876 20.5586V18.4854C24.8758 18.3415 24.8764 18.1976 24.877 18.0537C24.8776 17.8523 24.8763 17.6506 24.875 17.4492C24.8755 17.39 24.8765 17.3305 24.877 17.2695C24.8724 16.9023 24.8166 16.6851 24.6035 16.3838C24.4139 16.2075 24.2214 16.1475 23.9668 16.1162ZM26.9854 16.1201C26.6129 16.1216 26.3529 16.1903 26.0908 16.4736C25.9525 16.6785 25.9212 16.832 25.9199 17.0732C25.9195 17.1282 25.9194 17.1837 25.9189 17.2402C25.9188 17.3002 25.9181 17.3601 25.918 17.4219C25.9176 17.4853 25.9174 17.5489 25.917 17.6143C25.9158 17.8245 25.9156 18.0349 25.915 18.2451C25.9148 18.3169 25.9143 18.389 25.9141 18.4629C25.9128 18.8427 25.9117 19.2227 25.9111 19.6025C25.9105 19.9948 25.9086 20.387 25.9062 20.7793C25.9047 21.081 25.9035 21.3829 25.9033 21.6846C25.903 21.8292 25.9025 21.9745 25.9014 22.1191C25.8999 22.3216 25.9 22.5241 25.9004 22.7266C25.8996 22.7861 25.8992 22.8459 25.8984 22.9072C25.9012 23.276 25.9511 23.4957 26.1699 23.7959C26.4649 24.0377 26.7407 24.0729 27.1133 24.0674C27.1861 24.0675 27.1862 24.0672 27.2607 24.0674C27.3635 24.0673 27.4666 24.0667 27.5693 24.0654C27.7246 24.0637 27.8798 24.0646 28.0352 24.0654C28.8624 24.0644 29.5202 23.9704 30.1465 23.3838C30.5889 22.9112 30.7561 22.4031 30.7598 21.7627C30.7601 21.7231 30.7604 21.6834 30.7607 21.6426C30.7616 21.5121 30.7624 21.3815 30.7627 21.251C30.7629 21.2062 30.7625 21.1614 30.7627 21.1152C30.7636 20.8777 30.7644 20.6398 30.7646 20.4023C30.765 20.1586 30.7668 19.9147 30.7686 19.6709C30.7697 19.4822 30.7694 19.2932 30.7695 19.1045C30.7697 19.0147 30.7707 18.9247 30.7715 18.835C30.7782 18.0127 30.6741 17.3625 30.0967 16.7461C29.6026 16.2835 29.0807 16.1333 28.417 16.1299C28.3661 16.1295 28.3151 16.1293 28.2627 16.1289C28.1551 16.1283 28.0471 16.1282 27.9395 16.1279C27.7754 16.1273 27.6113 16.1249 27.4473 16.123C27.3425 16.1227 27.2376 16.1223 27.1328 16.1221C27.0842 16.1213 27.0355 16.1209 26.9854 16.1201ZM19.626 20.9463C19.9023 20.9691 20.0515 21.0603 20.251 21.2461C20.3569 21.4523 20.3694 21.6449 20.3223 21.8682C20.2166 22.0501 20.0914 22.1945 19.9004 22.29C19.7465 22.2944 19.5942 22.2958 19.4404 22.2939C19.2938 22.2927 19.1471 22.2913 18.9961 22.29V20.9639C19.1291 20.9601 19.2624 20.957 19.3994 20.9531C19.5115 20.95 19.5115 20.9495 19.626 20.9463ZM28.7607 17.8906C29.0238 18.1537 29.0322 18.1704 29.0332 18.5146C29.034 18.5922 29.0344 18.6701 29.0352 18.75C29.0347 18.8343 29.0347 18.9186 29.0342 19.0029C29.0343 19.0897 29.0339 19.1769 29.0342 19.2637C29.0345 19.4455 29.0343 19.6277 29.0332 19.8096C29.0318 20.0425 29.0327 20.2758 29.0342 20.5088V21.3047C29.0348 21.4248 29.0344 21.5459 29.0332 21.666C29.0329 21.768 29.0325 21.7686 29.0322 21.873C29.0017 22.0487 29.0016 22.0492 28.7607 22.29H27.6758V17.8906H28.7607ZM18.9961 17.8906C19.916 17.8503 19.9165 17.8498 20.1338 18.0332C20.3326 18.2788 20.3437 18.4178 20.3223 18.7344C20.2125 18.9886 20.087 19.0966 19.8398 19.2158C19.626 19.2335 19.6259 19.2339 19.3994 19.2275C19.1999 19.2219 19.1996 19.2215 18.9961 19.2158V17.8906Z" fill="white"/>
</svg>
