<svg width="48" height="48" viewBox="0 0 48 48" fill="none" xmlns="http://www.w3.org/2000/svg">
<path d="M0 8C0 3.58172 3.58172 0 8 0H40C44.4183 0 48 3.58172 48 8V40C48 44.4183 44.4183 48 40 48H8C3.58172 48 0 44.4183 0 40V8Z" fill="#7C4991"/>
<path d="M16.1631 25.5566C16.1925 25.5566 16.6929 26.0318 17.2715 26.6104L18.3203 27.6602L18.2373 27.9199C17.8991 29.0035 18.3554 30.1211 19.3311 30.5967C19.8899 30.8712 20.4243 30.9109 21.0371 30.7197L21.2969 30.6357L22.3457 31.6855C22.9243 32.2641 23.4004 32.7645 23.4004 32.7939C23.3986 32.8687 22.944 33.2945 22.6504 33.4951C22.0424 33.9119 21.3998 34.1025 20.6055 34.1074C19.4485 34.1074 18.7619 33.7988 17.7178 32.7891C17.2717 32.3577 17.193 32.2934 17.3105 32.4746C18.0656 33.5975 17.9385 35.0984 17.002 36.0889C16.6588 36.4565 16.3056 36.6868 15.8105 36.873C15.5262 36.9809 15.3983 37.001 14.8936 37.001C14.2562 37.0059 14.0354 36.9562 13.4717 36.6719C13.099 36.4856 12.4813 35.8775 12.2949 35.5098C11.9469 34.8235 11.8482 34.152 11.9951 33.4854C12.3481 31.9016 13.9027 30.8864 15.457 31.2148C15.8297 31.2933 16.291 31.4895 16.5312 31.6709C16.6287 31.7438 16.4668 31.5478 16.168 31.2393C15.158 30.1901 14.8497 29.5183 14.8496 28.3516C14.8496 27.3513 15.168 26.5568 15.8643 25.8115C16.0014 25.6744 16.1334 25.5569 16.1631 25.5566ZM32.7939 25.5566C32.8686 25.5582 33.2944 26.0139 33.4951 26.3076C33.7058 26.6165 33.9117 27.0776 34.0195 27.4746C34.1371 27.9062 34.1371 28.803 34.0244 29.2295C33.8087 30.0336 33.554 30.4508 32.7891 31.2402C32.3527 31.6913 32.2932 31.7691 32.4795 31.6416C33.5974 30.8865 35.0984 31.0195 36.0889 31.9561C36.4564 32.2992 36.6868 32.6524 36.873 33.1475C36.9857 33.4366 37.001 33.5496 37.001 34.0889C37.001 34.628 36.9858 34.741 36.873 35.0303C36.6868 35.5253 36.4565 35.8785 36.084 36.2266C35.7506 36.5452 35.4072 36.7464 34.9219 36.9131C34.711 36.9866 34.5195 37.0059 34.0635 37.001C33.4065 37.001 33.0783 36.9075 32.5391 36.584C31.7252 36.0937 31.1466 35.0547 31.1465 34.0889C31.1465 33.5349 31.3718 32.8289 31.6709 32.4219C31.7444 32.3287 31.5481 32.4949 31.2393 32.7891C30.4498 33.554 30.0375 33.8087 29.2285 34.0244C28.8018 34.1371 27.905 34.1372 27.4736 34.0195C26.8215 33.843 26.2921 33.544 25.7871 33.0635L25.502 32.7939L27.0566 31.2402L28.6162 29.6807L28.2871 29.3379C27.939 28.9702 27.8709 28.7981 27.9346 28.4648C27.9787 28.2296 28.2286 27.9798 28.4639 27.9355C28.7973 27.8718 28.9692 27.94 29.3369 28.2881L29.6797 28.6162L31.21 27.0869C32.0533 26.2436 32.7645 25.5566 32.7939 25.5566ZM24.4795 17.2207C24.4953 17.2219 25.2013 17.9181 26.0488 18.7656L27.5879 20.3047L27.9121 19.9961C28.4219 19.5011 28.8336 19.4525 29.1816 19.8447C29.4952 20.2075 29.4218 20.5948 28.9414 21.0703L28.6475 21.3643L30.2012 22.9189L31.7607 24.4775L30.6719 25.5615L29.5889 26.6504L29.373 26.5615C28.8925 26.3703 28.1272 26.4247 27.6074 26.6895C27.0829 26.9543 26.6118 27.5914 26.4844 28.1943C26.4157 28.5375 26.4507 29.0867 26.5684 29.3711L26.6514 29.5869L25.5635 30.6709L24.4795 31.7588L22.9199 30.2002L21.3662 28.6455L21.0713 28.9395C20.5761 29.4396 20.1792 29.5035 19.8164 29.1406C19.4537 28.7778 19.5175 28.3809 20.0176 27.8857L20.3115 27.5918L18.7578 26.0371L17.1982 24.4775L18.2871 23.3945L19.3701 22.3057L19.5859 22.3936C20.0665 22.5848 20.8318 22.5314 21.3516 22.2666C21.8761 22.0017 22.3462 21.3637 22.4736 20.7607C22.5422 20.4175 22.5083 19.8683 22.3906 19.584L22.3076 19.3691L23.3809 18.2949C23.9692 17.7065 24.4648 17.2207 24.4795 17.2207ZM14.377 11.96C14.9457 11.8619 15.7155 11.994 16.2549 12.2783C16.706 12.5137 17.2598 13.0879 17.4854 13.5439C17.9608 14.5195 17.8977 15.6127 17.3096 16.4805C17.1919 16.6569 17.2894 16.5836 17.75 16.1377C18.5934 15.3238 19.0989 15.0387 19.9766 14.8867C21.1288 14.6857 22.261 15.0347 23.1436 15.8633C23.2808 16.0006 23.3994 16.1327 23.3994 16.1621C23.397 16.1938 22.711 16.9042 21.8691 17.7461L20.3398 19.2754L20.668 19.6191C21.0158 19.9866 21.0842 20.158 21.0205 20.4912C20.9764 20.7266 20.7266 20.9774 20.4912 21.0215C20.158 21.0851 19.9858 21.016 19.6182 20.668L19.2754 20.3398L17.7451 21.8691C16.9041 22.7102 16.1951 23.3958 16.1621 23.3994C16.0886 23.3994 15.662 22.9426 15.4609 22.6484C14.9364 21.8836 14.7249 20.8983 14.8867 19.9766C15.0387 19.0989 15.3336 18.5796 16.1426 17.7412C16.4515 17.4176 16.6274 17.2116 16.5293 17.2852C16.137 17.5792 15.4113 17.8096 14.8672 17.8096C13.1953 17.8095 11.8277 16.3428 11.9404 14.6758C11.9895 13.9258 12.2586 13.3469 12.8027 12.8027C13.2538 12.3517 13.8082 12.0531 14.377 11.96ZM34.2119 11.9453C35.0158 11.9796 35.5798 12.2293 36.1533 12.8027C36.5358 13.1803 36.7317 13.4997 36.9131 14.0342C36.9866 14.2449 37.0068 14.4359 37.002 14.8916C37.002 15.3965 36.9818 15.5243 36.874 15.8086C36.6877 16.3037 36.4575 16.6568 36.0898 17C35.0995 17.9364 33.5994 18.0643 32.4766 17.3096C32.2952 17.1919 32.3587 17.2698 32.79 17.7158C33.8001 18.7651 34.1084 19.4424 34.1084 20.6045C34.1035 21.3985 33.9126 22.0406 33.4961 22.6484C33.2952 22.9425 32.8688 23.399 32.7949 23.3994C32.7655 23.3994 32.2651 22.9233 31.6865 22.3447L30.6377 21.2959L30.7207 21.0361C31.059 19.9525 30.6027 18.834 29.627 18.3584C29.0681 18.084 28.5337 18.0451 27.9209 18.2363L27.6611 18.3193L26.6123 17.2705C26.0349 16.6931 25.5596 16.1934 25.5576 16.1621C25.5576 16.0886 26.0134 15.662 26.3076 15.4609C26.9205 15.0442 27.568 14.8477 28.3525 14.8477C29.5195 14.8477 30.2008 15.1619 31.2402 16.167C31.6913 16.6034 31.7652 16.6619 31.6426 16.4756C30.863 15.3185 31.0252 13.8039 32.0254 12.8086C32.447 12.3919 32.8241 12.1656 33.3633 12.0234C33.6428 11.945 33.8246 11.9306 34.2119 11.9453Z" fill="white"/>
</svg>
