<svg width="48" height="48" viewBox="0 0 48 48" fill="none" xmlns="http://www.w3.org/2000/svg">
<rect width="48" height="48" rx="8" fill="#D95541"/>
<path d="M14.8145 9.01562C15.7185 9.05325 16.5993 9.31324 17.3789 9.77246C18.1585 10.2317 18.813 10.876 19.2842 11.6484C19.7554 12.4209 20.0295 13.2978 20.0811 14.2012L20.1182 14.5723C20.1188 15.2241 20.0029 15.8708 19.7773 16.4824L31.1816 27.917C31.796 27.6837 32.4473 27.5623 33.1045 27.5586H33.4814C34.3937 27.6083 35.2797 27.884 36.0586 28.3613C36.8375 28.8387 37.485 29.5028 37.9434 30.293C38.4017 31.0833 38.6561 31.9755 38.6836 32.8887C38.7111 33.8018 38.5115 34.7079 38.1016 35.5244L34.3906 31.8135C34.2038 31.6246 33.9749 31.4828 33.7227 31.3994C33.5258 31.3201 33.3166 31.2761 33.1045 31.2695C32.8097 31.2733 32.5203 31.3473 32.2598 31.4854C31.9994 31.6233 31.7751 31.8208 31.6064 32.0625C31.4379 32.3042 31.3296 32.583 31.29 32.875C31.2505 33.1671 31.2806 33.4652 31.3789 33.7432C31.4665 33.9816 31.6011 34.2001 31.7744 34.3857L35.4854 38.0967C34.7448 38.462 33.9302 38.6525 33.1045 38.6533C31.7029 38.6477 30.355 38.1133 29.3301 37.1572C28.3052 36.2011 27.6789 34.893 27.5762 33.4951L27.5391 33.124C27.5431 32.4557 27.6689 31.7932 27.9102 31.1699L16.4756 19.7793C15.8611 20.0128 15.2091 20.134 14.5518 20.1377L14.1875 20.0762C13.2827 20.024 12.4039 19.7485 11.6309 19.2754C10.858 18.8024 10.2141 18.1459 9.75586 17.3643C9.29758 16.5823 9.03887 15.6986 9.00391 14.793C8.96903 13.8876 9.15827 12.9876 9.55469 12.1729L13.2656 15.8828C13.4578 16.0649 13.6851 16.2056 13.9336 16.2969C14.1304 16.3762 14.3396 16.4201 14.5518 16.4268C14.8529 16.432 15.151 16.3642 15.4199 16.2285C15.6889 16.0928 15.921 15.8938 16.0957 15.6484C16.2704 15.4031 16.3826 15.1188 16.4229 14.8203C16.4631 14.5218 16.4306 14.2175 16.3271 13.9346C16.2365 13.6844 16.0926 13.4564 15.9062 13.2666L12.1953 9.55664C13.0104 9.16374 13.9104 8.97802 14.8145 9.01562ZM22.8623 28.7402L13.7344 37.8672C13.2068 38.3588 12.509 38.627 11.7881 38.6143C11.0674 38.6014 10.3799 38.3094 9.87012 37.7998C9.36027 37.29 9.06744 36.6018 9.05469 35.8809C9.04197 35.1599 9.31019 34.4621 9.80176 33.9346L18.9297 24.8066L22.8623 28.7402ZM38.6689 10.9414L36.585 14.9619L32.6094 17.0205L27.7725 21.8633L25.8125 19.8965L30.6484 15.0547L32.708 11.084L36.7275 9L38.6689 10.9414Z" fill="white"/>
</svg>
