<svg width="48" height="48" viewBox="0 0 48 48" fill="none" xmlns="http://www.w3.org/2000/svg">
<rect width="48" height="48" rx="8" fill="#E68F40"/>
<path d="M28.1971 27.3824C28.2695 27.1118 28.2323 26.8294 28.0923 26.5869L25.9098 22.8064C25.7231 22.483 25.3748 22.282 25.0008 22.282C24.8179 22.282 24.6371 22.3307 24.4779 22.4226L23.3402 23.0796C22.8778 22.7404 22.3778 22.4497 21.8477 22.2149V20.9042C21.8477 20.3261 21.3773 19.856 20.7994 19.856H16.4339C15.856 19.856 15.3857 20.3261 15.3857 20.9042V22.2148C14.8556 22.4497 14.3556 22.7404 13.8932 23.0796L12.7555 22.4227C12.5963 22.3307 12.4154 22.2821 12.2324 22.2821C11.8585 22.2821 11.5103 22.483 11.3235 22.8065L9.14096 26.5868C9.00095 26.8294 8.96371 27.1118 9.0361 27.3824C9.10866 27.6529 9.28206 27.879 9.5245 28.0188L10.659 28.6738C10.6285 28.9576 10.6123 29.2455 10.6123 29.5373C10.6123 29.829 10.6284 30.117 10.659 30.4008L9.5245 31.0558C9.28197 31.1958 9.10866 31.4218 9.0361 31.6924C8.96371 31.9627 9.00095 32.2454 9.14096 32.4878L11.3234 36.2683C11.5102 36.5917 11.8585 36.7926 12.2323 36.7926C12.4153 36.7926 12.5962 36.7441 12.7554 36.652L13.8932 35.9952C14.3556 36.3343 14.8556 36.625 15.3857 36.8598V38.1705C15.3857 38.4505 15.4947 38.7137 15.6928 38.9117C15.8908 39.1096 16.1541 39.2188 16.4338 39.2188H20.7993C21.3772 39.2188 21.8476 38.7485 21.8476 38.1705V36.8598C22.3777 36.6249 22.8776 36.3343 23.34 35.9951L24.4778 36.652C24.637 36.744 24.8179 36.7926 25.0008 36.7926C25.3748 36.7926 25.723 36.5917 25.9098 36.2682L28.0922 32.4877C28.2322 32.2453 28.2694 31.9627 28.197 31.6923C28.1246 31.4217 27.9511 31.1956 27.7088 31.0557L26.5742 30.4006C26.6048 30.1169 26.6209 29.8288 26.6209 29.5371C26.6209 29.2454 26.6049 28.9573 26.5742 28.6736L27.7088 28.0186C27.9513 27.879 28.1247 27.653 28.1971 27.3824ZM18.6166 34.0897C16.1024 34.0897 14.0644 32.0516 14.0644 29.5374C14.0644 27.0234 16.1025 24.9852 18.6166 24.9852C21.1308 24.9852 23.1689 27.0234 23.1689 29.5374C23.1689 32.0515 21.1308 34.0897 18.6166 34.0897Z" fill="white"/>
<path d="M22.4457 16.6137C22.3979 16.7928 22.4225 16.9798 22.5152 17.1401L23.9593 19.6417C24.0831 19.8558 24.3134 19.9887 24.5608 19.9887C24.6819 19.9887 24.8015 19.9565 24.907 19.8957L25.6604 19.4608C25.9662 19.685 26.2969 19.8769 26.6475 20.0321V20.9005C26.6475 21.0858 26.7195 21.2599 26.8507 21.391C26.9817 21.522 27.1559 21.5941 27.3411 21.5941H30.2297C30.6121 21.5941 30.9234 21.283 30.9234 20.9005V20.0321C31.2739 19.8768 31.6047 19.685 31.9104 19.4607L32.664 19.8957C32.7692 19.9566 32.8889 19.9887 33.01 19.9887C33.2575 19.9887 33.4879 19.8558 33.6115 19.6417L35.0556 17.1401C35.1484 16.9798 35.173 16.7928 35.1251 16.6137C35.0771 16.4347 34.9624 16.2852 34.802 16.1925L34.0509 15.7589C34.0711 15.5712 34.0821 15.3807 34.0821 15.1877C34.0821 14.9947 34.0711 14.8043 34.0509 14.6166L34.802 14.183C34.9624 14.0903 35.0771 13.9407 35.1251 13.7617C35.173 13.5827 35.1483 13.3958 35.0556 13.2353L33.6115 10.7337C33.4879 10.5197 33.2575 10.3867 33.01 10.3867C32.8889 10.3867 32.7692 10.4189 32.664 10.4798L31.9104 10.9148C31.6047 10.6906 31.274 10.4988 30.9234 10.3435V9.47493C30.9234 9.09248 30.6121 8.78125 30.2297 8.78125H27.3411C26.9586 8.78125 26.6475 9.09248 26.6475 9.47493V10.3434C26.297 10.4988 25.9662 10.6906 25.6605 10.9148L24.907 10.4798C24.8015 10.4187 24.682 10.3866 24.5608 10.3866C24.3134 10.3866 24.0831 10.5197 23.9593 10.7337L22.5152 13.2352C22.4225 13.3957 22.3979 13.5826 22.4457 13.7616C22.4938 13.9407 22.6085 14.0903 22.7688 14.1829L23.5199 14.6165C23.4998 14.8042 23.4887 14.9947 23.4887 15.1876C23.4887 15.3807 23.4998 15.5711 23.5199 15.7588L22.7688 16.1925C22.6085 16.2852 22.4938 16.4347 22.4457 16.6137ZM28.7853 12.1754C30.4491 12.1754 31.7977 13.5241 31.7977 15.1877C31.7977 16.8513 30.4491 18.2 28.7853 18.2C27.1216 18.2 25.773 16.8513 25.773 15.1877C25.773 13.5241 27.1216 12.1754 28.7853 12.1754Z" fill="white"/>
<path d="M38.0532 26.3109L37.5361 26.0123C37.5501 25.8831 37.5577 25.752 37.5577 25.6191C37.5577 25.4862 37.5501 25.3552 37.5361 25.2259L38.0532 24.9274C38.1636 24.8636 38.2426 24.7606 38.2756 24.6374C38.3086 24.5141 38.2916 24.3855 38.2279 24.275L37.2337 22.5531C37.1486 22.4056 36.9901 22.3142 36.8198 22.3142C36.7364 22.3142 36.6541 22.3363 36.5814 22.3783L36.0628 22.6777C35.8523 22.5233 35.6246 22.3912 35.3834 22.2844V21.6865C35.3834 21.4233 35.1691 21.209 34.9059 21.209H32.9176C32.6542 21.209 32.44 21.4233 32.44 21.6865V22.2844C32.1987 22.3912 31.9711 22.5233 31.7606 22.6777L31.2419 22.3783C31.1694 22.3363 31.087 22.3142 31.0036 22.3142C30.8333 22.3142 30.6747 22.4056 30.5897 22.5531L29.5956 24.275C29.5317 24.3855 29.5147 24.5141 29.5477 24.6374C29.5809 24.7606 29.6598 24.8636 29.7702 24.9274L30.2874 25.2259C30.2734 25.3551 30.2658 25.4861 30.2658 25.619C30.2658 25.7519 30.2734 25.883 30.2874 26.0122L29.7702 26.3107C29.6598 26.3744 29.5808 26.4772 29.5477 26.6006C29.5147 26.7239 29.5318 26.8526 29.5956 26.9629L30.5897 28.6849C30.6747 28.8323 30.8333 28.9238 31.0036 28.9238C31.087 28.9238 31.1693 28.9015 31.2419 28.8597L31.7606 28.5603C31.9711 28.7147 32.1987 28.8466 32.44 28.9536V29.5515C32.44 29.6789 32.4897 29.7989 32.5799 29.8891C32.6701 29.9793 32.7901 30.029 32.9176 30.029H34.9059C35.1691 30.029 35.3834 29.8147 35.3834 29.5515V28.9536C35.6246 28.8467 35.8524 28.7147 36.0628 28.5603L36.5814 28.8597C36.654 28.9015 36.7364 28.9238 36.8198 28.9238C36.9901 28.9238 37.1487 28.8323 37.2337 28.6849L38.2279 26.9629C38.2917 26.8526 38.3086 26.7239 38.2756 26.6006C38.2426 26.4774 38.1636 26.3745 38.0532 26.3109ZM33.9118 27.6927C32.7664 27.6927 31.8382 26.7642 31.8382 25.6191C31.8382 24.4739 32.7664 23.5454 33.9118 23.5454C35.057 23.5454 35.9853 24.4739 35.9853 25.6191C35.9853 26.7643 35.0569 27.6927 33.9118 27.6927Z" fill="white"/>
</svg>
