<svg width="48" height="48" viewBox="0 0 48 48" fill="none" xmlns="http://www.w3.org/2000/svg">
<rect width="48" height="48" rx="8" fill="#5562A3"/>
<path d="M36.3574 34.1191C36.529 34.1195 36.7005 34.1188 36.8721 34.1182C37.1061 34.1174 37.3402 34.1188 37.5742 34.1201C37.6424 34.1195 37.711 34.1188 37.7812 34.1182C38.1669 34.1224 38.3962 34.1596 38.7002 34.4209C38.9425 34.676 38.9883 34.8809 39.001 35.2227C38.9845 35.6677 38.8531 35.8715 38.542 36.1826C38.2726 36.3034 38.1099 36.3032 37.8174 36.2988C37.7328 36.2978 37.6477 36.2969 37.5605 36.2959C37.4959 36.2946 37.4309 36.2933 37.3643 36.292C37.3657 36.3503 37.3677 36.4087 37.3691 36.4688C37.3737 36.6876 37.3764 36.9071 37.3789 37.126C37.3802 37.2204 37.3824 37.3148 37.3848 37.4092C37.388 37.5455 37.3895 37.682 37.3906 37.8184C37.392 37.9001 37.3931 37.9822 37.3945 38.0664C37.3466 38.4287 37.188 38.6187 36.915 38.8525C36.653 38.9856 36.4328 39.0022 36.1455 38.999C36.0936 38.9993 36.0417 38.9997 35.9883 39C35.8792 39.0002 35.7702 38.9992 35.6611 38.998C35.4948 38.9966 35.3284 38.9983 35.1621 39C35.0557 38.9998 34.9492 38.9995 34.8428 38.999C34.7935 38.9996 34.7441 39.0004 34.6934 39.001C34.3486 38.9947 34.1518 38.92 33.8906 38.6963C33.6236 38.2958 33.624 38.2952 33.624 36.292H25.0732V38.2959C24.742 38.7927 24.7418 38.793 24.4053 38.9639C24.2127 38.9895 24.0464 39.0011 23.8545 38.999C23.8027 38.9993 23.7506 38.9997 23.6973 39C23.5883 39.0002 23.4791 38.9992 23.3701 38.998C23.2039 38.9966 23.0373 38.9983 22.8711 39C22.7647 38.9998 22.6582 38.9995 22.5518 38.999C22.5025 38.9996 22.4531 39.0004 22.4023 39.001C22.0574 38.9948 21.8608 38.92 21.5996 38.6963C21.3518 38.4007 21.3001 38.2006 21.3066 37.8184C21.307 37.7744 21.3072 37.7298 21.3076 37.6846C21.3091 37.5459 21.312 37.4072 21.3154 37.2686C21.3168 37.1738 21.3182 37.0791 21.3193 36.9844C21.3223 36.7535 21.3265 36.5228 21.332 36.292C21.2355 36.2939 21.2353 36.294 21.1367 36.2959C21.0521 36.2969 20.9671 36.2978 20.8799 36.2988C20.7542 36.3007 20.754 36.2998 20.626 36.3018C20.2424 36.2839 20.0905 36.1234 19.8379 35.8574C19.6777 35.5125 19.6792 35.1962 19.7295 34.8223C20.0218 34.1926 20.4915 34.1146 21.1221 34.1201C21.2317 34.1195 21.2322 34.1198 21.3438 34.1191C21.589 34.1181 21.8348 34.1183 22.0801 34.1191C22.2558 34.1188 22.4317 34.1187 22.6074 34.1182H25.3857C26.3288 34.1174 27.2727 34.1177 28.2158 34.1191C29.0247 34.1203 29.8337 34.1204 30.6426 34.1191C31.5823 34.1177 32.5222 34.1173 33.4619 34.1182H33.9121C34.2594 34.1184 34.6068 34.1178 34.9541 34.1172C35.4217 34.1164 35.8898 34.1176 36.3574 34.1191ZM10.5361 10.6143C10.6156 10.6146 10.6955 10.6148 10.7773 10.6152C11.0303 10.6167 11.2832 10.6196 11.5361 10.623C11.7081 10.6244 11.8808 10.6259 12.0527 10.627C12.4735 10.6299 12.8947 10.634 13.3154 10.6396C13.3196 10.7127 13.3238 10.7861 13.3281 10.8613C13.3339 10.9584 13.339 11.0562 13.3447 11.1533C13.3475 11.2013 13.3507 11.2493 13.3535 11.2988C13.3886 11.8808 13.4422 12.3733 13.877 12.8047C14.3984 13.2658 14.9797 13.2552 15.6406 13.2549C15.7487 13.2552 15.7491 13.2555 15.8594 13.2559C16.0972 13.2565 16.3354 13.2568 16.5732 13.2568C16.7389 13.2571 16.9047 13.2566 17.0703 13.2568C17.4175 13.2572 17.7651 13.2579 18.1123 13.2578C18.5565 13.2578 19.0011 13.2586 19.4453 13.2598C19.7874 13.2605 20.1296 13.2608 20.4717 13.2607C20.6354 13.2608 20.7992 13.2612 20.9629 13.2617C21.1923 13.2624 21.422 13.2621 21.6514 13.2617C21.7184 13.2621 21.7854 13.2623 21.8545 13.2627C22.4749 13.2599 23.038 13.2119 23.4961 12.75C23.9132 12.2783 23.9405 11.7508 23.9736 11.1494C23.978 11.0757 23.978 11.0752 23.9824 11C23.9894 10.88 23.9962 10.7596 24.0029 10.6396C24.5093 10.6329 25.016 10.6282 25.5225 10.625C25.6946 10.6237 25.8669 10.6224 26.0391 10.6201C26.2868 10.6169 26.5345 10.6154 26.7822 10.6143C26.8589 10.6129 26.9356 10.6108 27.0146 10.6094C27.4223 10.6093 27.7006 10.6128 28.0107 10.9072C28.232 11.1931 28.3117 11.3755 28.3105 11.7363C28.3111 11.8636 28.311 11.8643 28.3115 11.9941C28.3106 12.0872 28.3096 12.1804 28.3086 12.2734C28.3085 12.3721 28.3084 12.4707 28.3086 12.5693C28.3087 12.8368 28.3075 13.1046 28.3057 13.3721C28.304 13.6517 28.304 13.9313 28.3037 14.2109C28.3029 14.7404 28.3005 15.2704 28.2979 15.7998C28.2949 16.4027 28.2933 17.0055 28.292 17.6084C28.2892 18.8483 28.2841 20.0882 28.2783 21.3281H26.1406V14.3809H11.1777V33.6191H19.4609C19.3287 33.7734 19.1958 33.9279 19.0596 34.0869C18.8226 34.4671 18.7771 34.8376 18.7861 35.2793C18.7866 35.3253 18.7866 35.3715 18.7871 35.4189C18.7884 35.5316 18.7909 35.6442 18.793 35.7568C17.6154 35.7631 16.4374 35.7676 15.2598 35.7705C14.713 35.7719 14.1659 35.7743 13.6191 35.7773C13.1427 35.78 12.6659 35.7816 12.1895 35.7822C11.9372 35.7826 11.6849 35.7832 11.4326 35.7852C11.195 35.787 10.9573 35.7875 10.7197 35.7871C10.5912 35.7872 10.4625 35.7886 10.334 35.79C9.61427 35.7866 9.61379 35.7872 9.30664 35.4902C8.94148 35.1011 9.00241 34.6477 9.00586 34.1406C9.00555 34.0426 9.00541 33.9447 9.00488 33.8467C9.00377 33.5773 9.00406 33.3075 9.00488 33.0381C9.00549 32.7475 9.00464 32.4566 9.00391 32.166V28.4688C9.00314 27.2145 9.00345 25.9603 9.00488 24.7061C9.00608 23.6296 9.00611 22.553 9.00488 21.4766C9.00345 20.2269 9.00309 18.9772 9.00391 17.7275V14.0527C9.00461 13.7653 9.00577 13.4778 9.00488 13.1904C9.00409 12.9274 9.00444 12.6644 9.00586 12.4014C9.00616 12.3063 9.00553 12.2113 9.00488 12.1162C8.99935 11.2353 8.99921 11.2345 9.30664 10.9072C9.67148 10.5607 10.0619 10.6057 10.5361 10.6143ZM33.3105 22.3604C33.8831 22.3659 34.259 22.4353 34.6797 22.8506C34.8328 23.0768 34.9268 23.2943 35.0068 23.5527C35.0298 23.6229 35.0303 23.6228 35.0537 23.6943C35.0865 23.795 35.1184 23.8962 35.1504 23.9971C35.2011 24.1565 35.2533 24.3157 35.3057 24.4746C35.4672 24.9663 35.6244 25.4595 35.7734 25.9551C35.835 26.1586 35.8984 26.3616 35.9619 26.5645C35.9915 26.6607 36.0202 26.7577 36.0479 26.8545C36.1743 27.3791 36.174 27.3795 36.5078 27.7705C36.6593 27.8186 36.8066 27.8476 36.9629 27.875C37.424 28.191 37.5905 28.6096 37.6973 29.1436C37.7634 30.4441 37.8293 31.745 37.8975 33.085H20.7969C21.0255 28.5894 21.0255 28.589 21.543 28.0498C21.8189 27.8046 22.0391 27.7315 22.4004 27.7412C22.4066 27.7039 22.4125 27.6664 22.4189 27.6279C22.5115 27.1189 22.6646 26.6361 22.8271 26.1455C22.8561 26.0576 22.8851 25.9688 22.9141 25.8809C22.9744 25.6979 23.0348 25.5149 23.0957 25.332C23.1734 25.0986 23.25 24.8648 23.3262 24.6309C23.3854 24.4497 23.4456 24.2688 23.5059 24.0879C23.5482 23.9603 23.5904 23.832 23.6318 23.7041C23.811 23.1721 23.9403 22.8315 24.4258 22.5225C24.8144 22.3351 25.2133 22.3596 25.6367 22.3623C25.7266 22.3619 25.8164 22.3619 25.9062 22.3613C26.1494 22.3601 26.3926 22.3605 26.6357 22.3613C26.8909 22.362 27.1462 22.3608 27.4014 22.3604C27.8299 22.3599 28.2589 22.361 28.6875 22.3623C29.182 22.3638 29.6764 22.3628 30.1709 22.3613C30.5965 22.3601 31.0226 22.3606 31.4482 22.3613C31.7018 22.3617 31.9554 22.3612 32.209 22.3604C32.4476 22.3596 32.6862 22.3598 32.9248 22.3613C33.0534 22.3618 33.182 22.3612 33.3105 22.3604ZM28.2734 30.9229C27.9144 30.924 27.6506 30.9396 27.3428 31.1475C27.2479 31.3372 27.2554 31.4725 27.2764 31.6826C27.4253 31.8726 27.5138 31.9398 27.7441 32.0166C27.8475 32.0234 27.9511 32.0265 28.0547 32.0273C28.1175 32.028 28.1804 32.0286 28.2451 32.0293C28.313 32.0296 28.3813 32.029 28.4512 32.0293C28.5558 32.0299 28.5562 32.0307 28.6631 32.0312C28.8111 32.0319 28.9595 32.032 29.1074 32.0322C29.3334 32.0329 29.5592 32.035 29.7852 32.0371C29.929 32.0375 30.0729 32.0378 30.2168 32.0381C30.3178 32.0393 30.318 32.0398 30.4209 32.041C30.78 32.0399 31.0437 32.0233 31.3516 31.8154C31.4462 31.6259 31.439 31.4912 31.418 31.2812C31.2689 31.0911 31.1806 31.0241 30.9502 30.9473C30.8468 30.9405 30.7432 30.9374 30.6396 30.9365C30.5454 30.9356 30.5453 30.9356 30.4492 30.9346C30.3814 30.9343 30.3131 30.9339 30.2432 30.9336C30.1386 30.933 30.1382 30.9332 30.0312 30.9326C29.8833 30.932 29.7349 30.9319 29.5869 30.9316C29.361 30.931 29.1351 30.9289 28.9092 30.9268C28.7653 30.9263 28.6214 30.926 28.4775 30.9258C28.4102 30.925 28.3428 30.9237 28.2734 30.9229ZM19.2432 30.3965C19.3416 30.3983 19.3422 30.3986 19.4424 30.4004C19.6043 30.4035 19.7669 30.408 19.9287 30.4131V31.4814C19.7004 31.4887 19.4715 31.4939 19.2432 31.498C19.1787 31.5003 19.1143 31.5026 19.0479 31.5049C18.5707 31.5115 18.57 31.5123 18.3486 31.3643C18.2541 31.2089 18.2218 31.1275 18.2246 30.9473C18.2236 30.8812 18.2237 30.8809 18.2227 30.8135C18.3582 30.3037 18.8128 30.3815 19.2432 30.3965ZM24.0576 29.3203C23.5313 29.3161 23.5314 29.3162 23.0684 29.5449C22.9027 29.8128 22.9117 30.1024 22.9131 30.4092C22.912 30.4552 22.9113 30.5015 22.9102 30.5488C22.9099 30.8644 22.9559 31.0872 23.1348 31.3486C23.5003 31.5332 23.8661 31.5041 24.2666 31.5029C24.3381 31.504 24.4098 31.5048 24.4834 31.5059C25.0095 31.5101 25.0095 31.51 25.4727 31.2812C25.6383 31.0134 25.6284 30.7238 25.627 30.417C25.628 30.3709 25.6298 30.3248 25.6309 30.2773C25.6312 29.9617 25.5851 29.739 25.4062 29.4775C25.0406 29.2928 24.675 29.322 24.2744 29.3232C24.2029 29.3222 24.1313 29.3214 24.0576 29.3203ZM34.2109 29.3203C33.6848 29.3161 33.6849 29.3162 33.2217 29.5449C33.0561 29.8127 33.066 30.1024 33.0674 30.4092C33.0663 30.4552 33.0646 30.5015 33.0635 30.5488C33.0632 30.8644 33.1093 31.0872 33.2881 31.3486C33.6537 31.5333 34.0194 31.5041 34.4199 31.5029C34.4915 31.504 34.563 31.5048 34.6367 31.5059C35.163 31.5101 35.163 31.5099 35.626 31.2812C35.7917 31.0134 35.7827 30.7238 35.7812 30.417C35.7823 30.3709 35.7831 30.3248 35.7842 30.2773C35.7845 29.9617 35.7385 29.739 35.5596 29.4775C35.194 29.2929 34.8282 29.322 34.4277 29.3232C34.3563 29.3222 34.2846 29.3214 34.2109 29.3203ZM16.5225 31.4814H13.3164V28.2754H16.5225V31.4814ZM28.2734 28.7852C27.9144 28.7863 27.6506 28.8019 27.3428 29.0098C27.2479 29.1995 27.2554 29.3348 27.2764 29.5449C27.4254 29.735 27.5138 29.8021 27.7441 29.8789C27.8475 29.8857 27.9511 29.8888 28.0547 29.8896C28.1175 29.8903 28.1804 29.8909 28.2451 29.8916C28.313 29.8919 28.3813 29.8923 28.4512 29.8926C28.5557 29.8931 28.5562 29.893 28.6631 29.8936C28.8111 29.8942 28.9595 29.8943 29.1074 29.8945C29.3333 29.8952 29.5592 29.8973 29.7852 29.8994C29.929 29.8999 30.0729 29.9001 30.2168 29.9004C30.3178 29.9016 30.318 29.9021 30.4209 29.9033C30.78 29.9022 31.0437 29.8856 31.3516 29.6777C31.4462 29.4882 31.439 29.3535 31.418 29.1436C31.2689 28.9534 31.1806 28.8864 30.9502 28.8096C30.8468 28.8028 30.7432 28.7997 30.6396 28.7988C30.5454 28.7979 30.5453 28.7979 30.4492 28.7969C30.3814 28.7966 30.3131 28.7962 30.2432 28.7959C30.1386 28.7953 30.1382 28.7955 30.0312 28.7949C29.8833 28.7943 29.7349 28.7942 29.5869 28.7939C29.361 28.7933 29.1351 28.7912 28.9092 28.7891C28.7653 28.7886 28.6214 28.7883 28.4775 28.7881C28.4102 28.7873 28.3428 28.786 28.2734 28.7852ZM19.166 28.252C19.2465 28.2542 19.3273 28.2565 19.4102 28.2588C19.5326 28.2606 19.5333 28.2609 19.6582 28.2627C19.8596 28.2658 20.0613 28.2703 20.2627 28.2754C20.1746 28.628 20.0859 28.9805 19.9951 29.3438C19.7558 29.351 19.5167 29.3571 19.2773 29.3613C19.2095 29.3636 19.1412 29.3649 19.0713 29.3672C18.571 29.3738 18.5707 29.3746 18.3467 29.2266C18.2545 29.0715 18.2218 28.9885 18.2246 28.8096C18.2236 28.7436 18.2237 28.7432 18.2227 28.6758C18.3212 28.3054 18.585 28.2422 18.9316 28.249C19.009 28.2499 19.0863 28.2511 19.166 28.252ZM25.999 23.4395C25.9234 23.439 25.8474 23.4389 25.7695 23.4385C25.665 23.4393 25.6642 23.4396 25.5576 23.4404C25.4674 23.4405 25.4672 23.4403 25.375 23.4404C25.1668 23.4714 25.0407 23.543 24.8711 23.666C24.776 23.8372 24.776 23.8374 24.7168 24.041C24.6787 24.1563 24.6794 24.1568 24.6406 24.2744C24.6146 24.3575 24.5884 24.4408 24.5615 24.5264C24.5337 24.6124 24.5056 24.6983 24.4775 24.7842C24.4191 24.9642 24.3608 25.1447 24.3037 25.3252C24.2306 25.5566 24.156 25.7877 24.0811 26.0186C24.0095 26.2389 23.939 26.4601 23.8682 26.6807C23.8415 26.7637 23.8146 26.8471 23.7871 26.9326C23.7629 27.0093 23.7389 27.0861 23.7139 27.165C23.6923 27.2328 23.6706 27.3013 23.6484 27.3711C23.5939 27.5435 23.5938 27.5438 23.6025 27.7412H35.0918C34.9819 27.2426 34.9825 27.2422 34.8447 26.7559C34.8231 26.687 34.8006 26.6178 34.7783 26.5469C34.7553 26.4747 34.7327 26.4024 34.709 26.3281C34.6727 26.2145 34.6728 26.2144 34.6357 26.0986C34.5847 25.9395 34.5329 25.7801 34.4814 25.6211C34.4291 25.4583 34.3775 25.2949 34.3262 25.1318C34.2519 24.8958 34.1759 24.6603 34.0996 24.4248C34.0769 24.3518 34.0536 24.2784 34.0303 24.2031C34.008 24.1355 33.9858 24.0677 33.9629 23.998C33.9344 23.9091 33.9343 23.909 33.9053 23.8184C33.7976 23.6198 33.6898 23.5665 33.4893 23.4658C33.3182 23.4362 33.3177 23.4362 33.1367 23.4404C33.067 23.4399 32.9966 23.4391 32.9248 23.4385C32.8117 23.4391 32.811 23.4388 32.6953 23.4395C32.6152 23.4391 32.5347 23.4388 32.4521 23.4385H31.1025C30.7161 23.4381 30.3298 23.4385 29.9434 23.4395C29.4969 23.4405 29.05 23.4406 28.6035 23.4395C28.2198 23.4385 27.8358 23.438 27.4521 23.4385C27.2231 23.4388 26.9937 23.4391 26.7646 23.4385C26.5094 23.438 26.2542 23.4383 25.999 23.4395ZM19.3359 24.5059C19.4152 24.5061 19.4945 24.5066 19.5762 24.5068C19.7437 24.5075 19.9116 24.5088 20.0791 24.5107C20.3365 24.5137 20.5942 24.5148 20.8516 24.5156C21.0143 24.5165 21.1772 24.5174 21.3398 24.5186C21.4558 24.5193 21.4561 24.5198 21.5742 24.5205C21.6812 24.5218 21.6818 24.5211 21.791 24.5225C21.8539 24.5231 21.9167 24.5237 21.9814 24.5244C22.1327 24.5342 22.133 24.5348 22.2666 24.6016C22.2334 24.9802 22.1533 25.2517 21.999 25.6035C21.5093 25.6103 21.0191 25.6149 20.5293 25.6182C20.3628 25.6195 20.1958 25.6207 20.0293 25.623C19.79 25.6263 19.5508 25.6287 19.3115 25.6299C19.2369 25.6313 19.1618 25.6324 19.085 25.6338C18.9812 25.6338 18.981 25.6338 18.875 25.6338C18.8139 25.6344 18.7524 25.6351 18.6895 25.6357C18.4742 25.5936 18.3952 25.5035 18.2588 25.3359C18.2234 25.2025 18.2225 25.2025 18.2246 25.0693C18.2236 25.0033 18.2237 25.0028 18.2227 24.9355C18.3139 24.5922 18.5571 24.5009 18.8848 24.5029C18.9924 24.5026 18.9927 24.5032 19.1025 24.5029C19.1796 24.5041 19.2566 24.5047 19.3359 24.5059ZM16.5225 25.6035H13.3164V22.3975H16.5225V25.6035ZM19.5596 22.3711C19.6625 22.3716 19.7662 22.3718 19.8691 22.3721C20.1396 22.3731 20.4102 22.3759 20.6807 22.3789C20.9569 22.3816 21.2335 22.3824 21.5098 22.3838C22.0514 22.3867 22.5931 22.3909 23.1348 22.3965C23.1156 22.4436 23.0968 22.4915 23.0771 22.54C23.0012 22.732 22.9295 22.925 22.8594 23.1191C22.8358 23.1842 22.8123 23.2494 22.7881 23.3164C22.7704 23.3656 22.7526 23.4152 22.7344 23.4658C22.1903 23.472 21.6457 23.4766 21.1016 23.4795C20.8489 23.4809 20.5964 23.4833 20.3438 23.4863C20.1 23.4892 19.8561 23.4905 19.6123 23.4912C19.5193 23.4917 19.426 23.4927 19.333 23.4941C19.2028 23.4961 19.0726 23.4961 18.9424 23.4961C18.8313 23.497 18.8309 23.4971 18.7178 23.498C18.4819 23.4585 18.4044 23.384 18.2588 23.1982C18.2234 23.0649 18.2225 23.0649 18.2246 22.9316C18.2236 22.8656 18.2237 22.8652 18.2227 22.7979C18.3274 22.4037 18.6157 22.3636 18.9785 22.3662C19.0235 22.3662 19.0689 22.3663 19.1152 22.3662C19.2634 22.3664 19.4115 22.369 19.5596 22.3711ZM21.7754 18.6211C21.8694 18.6214 21.8699 18.6217 21.9658 18.6221C22.1823 18.666 22.263 18.7536 22.4004 18.9229C22.4359 19.0564 22.4357 19.0569 22.4336 19.1904C22.4343 19.2345 22.4348 19.2788 22.4355 19.3242C22.3839 19.5187 22.2864 19.5973 22.1328 19.7246C21.9655 19.7585 21.9653 19.7591 21.7754 19.7598C21.6686 19.761 21.6685 19.7604 21.5596 19.7617C21.483 19.7612 21.4061 19.7613 21.3271 19.7607C21.2086 19.7611 21.2079 19.7604 21.0869 19.7607C20.92 19.7609 20.7529 19.7609 20.5859 19.7598C20.33 19.7583 20.0743 19.76 19.8184 19.7617C19.6561 19.7615 19.4934 19.7613 19.3311 19.7607C19.2163 19.7616 19.2159 19.7609 19.0986 19.7617C19.0274 19.7609 18.9562 19.7606 18.8828 19.7598C18.7888 19.7594 18.7883 19.7591 18.6924 19.7588C18.4761 19.7148 18.396 19.627 18.2588 19.458C18.2233 19.3244 18.2225 19.324 18.2246 19.1904C18.2236 19.1244 18.2237 19.1241 18.2227 19.0566C18.3134 18.7154 18.5567 18.6222 18.8828 18.6211C18.9896 18.6198 18.9898 18.6204 19.0986 18.6191C19.2136 18.62 19.2139 18.6203 19.3311 18.6211C19.4101 18.6208 19.4898 18.6204 19.5713 18.6201C19.7382 18.6199 19.9053 18.62 20.0723 18.6211C20.3282 18.6225 20.5839 18.6208 20.8398 18.6191C21.0021 18.6193 21.1648 18.6206 21.3271 18.6211C21.4038 18.6206 21.4806 18.6197 21.5596 18.6191C21.6308 18.62 21.702 18.6202 21.7754 18.6211ZM16.5225 19.7246H13.3164V16.5186H16.5225V19.7246ZM23.7168 16.4844C23.7951 16.4836 23.7954 16.4832 23.875 16.4824C24.1129 16.4861 24.2451 16.4986 24.4365 16.6455C24.5462 16.797 24.5742 16.868 24.5713 17.0527C24.5723 17.1189 24.5722 17.1191 24.5732 17.1865C24.5196 17.3884 24.4361 17.4598 24.2705 17.5869C24.0775 17.6133 23.9097 17.6241 23.7168 17.6221C23.6612 17.6225 23.6051 17.6226 23.5479 17.623C23.3642 17.6242 23.1807 17.6239 22.9971 17.623C22.8693 17.6232 22.7411 17.6237 22.6133 17.624C22.3457 17.6244 22.0781 17.6233 21.8105 17.6221C21.4673 17.6205 21.1235 17.6214 20.7803 17.623C20.5166 17.624 20.2529 17.6237 19.9893 17.623C19.8627 17.6229 19.7359 17.6234 19.6094 17.624C19.4326 17.6247 19.2559 17.6236 19.0791 17.6221C19.0268 17.6226 18.9738 17.6225 18.9199 17.623C18.6823 17.6193 18.5507 17.6068 18.3594 17.46C18.2497 17.3085 18.2217 17.2376 18.2246 17.0527C18.2236 16.9868 18.2237 16.9864 18.2227 16.9189C18.3383 16.484 18.6938 16.4804 19.0791 16.4844C19.1347 16.4839 19.1908 16.4829 19.248 16.4824C19.4317 16.4813 19.6152 16.4825 19.7988 16.4834C19.9266 16.4832 20.0548 16.4828 20.1826 16.4824C20.4502 16.482 20.7178 16.4822 20.9854 16.4834C21.3284 16.4849 21.6716 16.484 22.0146 16.4824H23.1865C23.3633 16.4817 23.54 16.4829 23.7168 16.4844ZM22.333 9.00293C22.3915 9.00303 22.4504 9.00283 22.5107 9.00293C22.7201 9.04767 22.8016 9.14071 22.9355 9.30371C22.9695 9.43548 22.9691 9.43561 22.9697 9.5752C22.9706 9.62772 22.9718 9.68026 22.9727 9.73438C22.9721 9.7906 22.9713 9.84734 22.9707 9.90527C22.971 9.96349 22.9714 10.0221 22.9717 10.082C22.9719 10.205 22.9708 10.3282 22.9697 10.4512C22.9683 10.6394 22.97 10.8274 22.9717 11.0156C22.9715 11.1353 22.9712 11.2553 22.9707 11.375C22.9712 11.4311 22.9721 11.4871 22.9727 11.5449C22.9714 11.6237 22.971 11.624 22.9697 11.7041C22.9695 11.7501 22.969 11.7964 22.9688 11.8438C22.919 12.037 22.8195 12.1164 22.668 12.2432C22.5107 12.2768 22.5103 12.277 22.333 12.2773C22.2657 12.2781 22.1983 12.2785 22.1289 12.2793C22.0554 12.2788 21.982 12.2779 21.9062 12.2773C21.8285 12.2778 21.7501 12.2788 21.6699 12.2793C21.4125 12.2805 21.1548 12.2792 20.8975 12.2783C20.7189 12.2785 20.5399 12.279 20.3613 12.2793C19.9868 12.2798 19.6118 12.2796 19.2373 12.2783C18.8044 12.2769 18.3714 12.2768 17.9385 12.2783C17.5667 12.2795 17.195 12.28 16.8232 12.2793C16.6012 12.2789 16.3783 12.2785 16.1562 12.2793C15.9088 12.28 15.6615 12.2788 15.4141 12.2773C15.3406 12.2779 15.2671 12.2787 15.1914 12.2793C15.124 12.2785 15.0558 12.2781 14.9863 12.2773C14.928 12.2772 14.8697 12.2765 14.8096 12.2764C14.6002 12.2316 14.5187 12.1386 14.3848 11.9756C14.3509 11.8441 14.3512 11.8436 14.3506 11.7041C14.3497 11.6516 14.3485 11.599 14.3477 11.5449C14.3482 11.4888 14.3491 11.4328 14.3496 11.375C14.3494 11.3168 14.3489 11.2582 14.3486 11.1982C14.3485 11.0753 14.3485 10.9521 14.3496 10.8291C14.351 10.6408 14.3503 10.4519 14.3486 10.2637C14.3488 10.1442 14.3491 10.0247 14.3496 9.90527C14.3491 9.84904 14.3482 9.79231 14.3477 9.73438C14.3485 9.68185 14.3497 9.62931 14.3506 9.5752C14.3508 9.52913 14.3504 9.48301 14.3506 9.43555C14.435 9.10786 14.6718 9.00354 14.9863 9.00293C15.0538 9.00218 15.1219 9.00078 15.1914 9C15.2648 9.00054 15.3384 9.0014 15.4141 9.00195C15.4917 9.00149 15.5694 9.00146 15.6494 9.00098C15.9068 8.9998 16.1645 9.00007 16.4219 9.00098C16.6005 9.0008 16.7794 9.00034 16.958 9C17.3326 8.99951 17.7074 9.00068 18.082 9.00195C18.5151 9.00341 18.9488 9.00245 19.3818 9.00098C19.7536 8.99977 20.1253 9.00028 20.4971 9.00098C20.719 9.00139 20.9411 9.00078 21.1631 9C21.4107 8.99932 21.6587 9.00046 21.9062 9.00195C21.9797 9.00141 22.0532 9.00056 22.1289 9C22.2299 9.00113 22.2302 9.00178 22.333 9.00293Z" fill="white"/>
</svg>
