<svg width="48" height="48" viewBox="0 0 48 48" fill="none" xmlns="http://www.w3.org/2000/svg">
<rect width="48" height="48" rx="8" fill="#E3424A"/>
<path d="M17.6094 7.04199C17.9995 6.98686 30.1026 6.98686 30.5059 7.04199C32.1937 7.27523 33.6358 8.56814 34.043 10.2178C34.2338 10.9896 34.2422 10.8753 33.4746 18.2754C33.0887 21.9947 32.7413 25.1845 32.7031 25.3584C32.5462 26.0961 32.1725 26.787 31.6172 27.3721C31.0616 27.9615 30.3998 28.3517 29.5898 28.5723L29.1875 28.6826L26.9521 28.7002L24.7129 28.7129V26.0918C24.7129 23.683 24.7088 23.458 24.6367 23.3223C24.4119 22.8685 23.7414 22.8685 23.5166 23.3223C23.4445 23.458 23.4404 23.6831 23.4404 26.0918V28.7129L21.2061 28.7002L18.9668 28.6826L18.5635 28.5723C17.762 28.356 17.177 28.0126 16.5918 27.4189C16.0024 26.8253 15.6166 26.1258 15.4512 25.3584C15.413 25.1845 15.0646 21.9947 14.6787 18.2754C13.9069 10.8669 13.9153 10.9684 14.1104 10.2178C14.2206 9.77677 14.5089 9.15766 14.7676 8.79297C15.0262 8.43253 15.5054 7.96569 15.8574 7.73242C16.3706 7.38891 17.0496 7.12257 17.6094 7.04199ZM23.25 9.73438C23.1821 9.74286 22.9698 9.77241 22.7832 9.79785C20.79 10.0565 18.7035 11.1678 17.1895 12.7666C16.5788 13.4155 16.5575 13.6065 17.0537 14.1748C19.5089 17.0074 20.442 18.055 20.5312 18.0977C20.6966 18.1697 27.4551 18.1697 27.6221 18.0977C27.7069 18.0595 30.3196 15.1082 31.2314 14.0225C31.418 13.8019 31.4855 13.5721 31.4219 13.3643C31.3574 13.1559 30.6919 12.448 30.0986 11.9521C28.7332 10.82 27.2658 10.1289 25.6035 9.83203C25.243 9.76418 24.8907 9.73895 24.2461 9.73047C23.7676 9.722 23.3229 9.72592 23.25 9.73438ZM23.4404 11.4902C23.4659 12.0584 23.5295 12.2074 23.8008 12.3389C24.0213 12.4449 24.1317 12.4442 24.3564 12.334C24.6321 12.2025 24.7129 12.0035 24.7129 11.4395C24.7129 11.0027 24.713 10.9941 24.8105 11.0068C25.6034 11.1128 26.1334 11.2318 26.6338 11.4014C27.0069 11.5328 27.6813 11.8338 27.6816 11.8721C27.6816 11.8933 27.5755 12.0378 27.4482 12.1904C27.1684 12.5339 27.0959 12.7332 27.168 12.9707C27.2274 13.1742 27.4567 13.3856 27.6602 13.4238C27.9273 13.4747 28.1478 13.352 28.4531 12.9873C28.5972 12.8094 28.7412 12.6358 28.7627 12.6016C28.8009 12.5549 28.8566 12.5846 29.0645 12.75C29.5263 13.1229 29.933 13.5001 29.9209 13.5557C29.9124 13.5853 29.2675 14.3442 28.4873 15.2432L27.0664 16.876H25.3613L24.8359 15.7441C24.3782 14.7608 24.2931 14.6034 24.1914 14.5693C24.1193 14.5439 24.034 14.5439 23.9619 14.5693C23.8602 14.6034 23.775 14.7611 23.3174 15.7441L22.792 16.876H21.0869L19.666 15.2432C18.8858 14.3442 18.2409 13.5853 18.2324 13.5557C18.2204 13.5001 18.6104 13.1353 19.085 12.7539L19.335 12.5508L19.6572 12.9326C20.0135 13.3567 20.2133 13.4747 20.4932 13.4238C20.6967 13.3856 20.9259 13.1742 20.9854 12.9707C21.0574 12.7332 20.9849 12.5339 20.7051 12.1904C20.5779 12.0378 20.4717 11.8929 20.4717 11.876C20.4743 11.8327 20.957 11.6125 21.418 11.4434C21.9523 11.2441 22.7072 11.075 23.3135 11.0156L23.4189 11.0029L23.4404 11.4902Z" fill="white"/>
<path d="M20.1 36.7544C20.1 39.1844 22.0699 41.1544 24.5 41.1544C26.9301 41.1544 28.9 39.1844 28.9 36.7544C28.9 34.3243 26.9301 32.3544 24.5 32.3544C22.0699 32.3544 20.1 34.3243 20.1 36.7544ZM25.05 34.5544L25.05 37.6266L25.7611 36.9155C25.9759 36.7007 26.3241 36.7007 26.5389 36.9155C26.7537 37.1303 26.7537 37.4785 26.5389 37.6933L24.8889 39.3433L24.8787 39.3532C24.6633 39.558 24.3225 39.5547 24.1111 39.3433L22.4611 37.6933C22.2463 37.4785 22.2463 37.1303 22.4611 36.9155C22.6759 36.7007 23.0241 36.7007 23.2389 36.9155L23.95 37.6266L23.95 34.5544C23.95 34.2506 24.1962 34.0044 24.5 34.0044C24.8038 34.0044 25.05 34.2506 25.05 34.5544ZM19 36.7544C19 33.7168 21.4624 31.2544 24.5 31.2544C27.5376 31.2544 30 33.7168 30 36.7544C30 39.792 27.5376 42.2544 24.5 42.2544C21.4624 42.2544 19 39.792 19 36.7544Z" fill="white"/>
</svg>
