<svg width="48" height="48" viewBox="0 0 48 48" fill="none" xmlns="http://www.w3.org/2000/svg">
<rect width="48" height="48" rx="8" fill="#2AA7A0"/>
<path d="M14.8633 9.80078C15.389 9.7265 31.6974 9.7265 32.2402 9.80078C34.5144 10.1151 36.4573 11.8583 37.0059 14.0811C37.263 15.121 37.2744 14.9669 36.2402 24.9375C35.7203 29.9487 35.2516 34.2462 35.2002 34.4805C34.9888 35.4746 34.4858 36.4059 33.7373 37.1943C32.9888 37.9886 32.0972 38.5144 31.0059 38.8115L30.4629 38.96L27.4521 38.9834L24.4346 39V35.4688C24.4346 32.2232 24.4292 31.9202 24.332 31.7373C24.0291 31.1261 23.1261 31.1261 22.8232 31.7373C22.7261 31.9202 22.7207 32.2232 22.7207 35.4688V39L19.709 38.9834L16.6924 38.96L16.1494 38.8115C15.0695 38.5201 14.2807 38.0568 13.4922 37.2568C12.6981 36.457 12.1779 35.5145 11.9551 34.4805C11.9037 34.2462 11.435 29.9487 10.915 24.9375C9.87513 14.9555 9.88658 15.0924 10.1494 14.0811C10.298 13.4868 10.6866 12.6526 11.0352 12.1611C11.3837 11.6754 12.0296 11.0467 12.5039 10.7324C13.1952 10.2697 14.1092 9.9094 14.8633 9.80078ZM22.4639 13.4297C22.3725 13.4411 22.0864 13.4813 21.835 13.5156C19.1493 13.8642 16.3378 15.3614 14.2979 17.5156C13.4753 18.3896 13.4468 18.6465 14.1152 19.4121C17.4237 23.2291 18.6808 24.6411 18.8008 24.6982C19.03 24.7952 28.1251 24.7952 28.3545 24.6982C28.4688 24.6468 31.9879 20.6702 33.2168 19.207C33.4681 18.91 33.5601 18.6012 33.4746 18.3213C33.3889 18.0413 32.4914 17.0865 31.6914 16.418C29.8516 14.8924 27.8745 13.9615 25.6348 13.5615C25.1492 13.4701 24.6749 13.4353 23.8066 13.4238C23.162 13.4124 22.5624 13.4183 22.4639 13.4297ZM22.7207 15.7949C22.755 16.5606 22.8404 16.7613 23.2061 16.9385C23.5032 17.0813 23.6522 17.0812 23.9551 16.9326C24.3264 16.7555 24.4346 16.4864 24.4346 15.7266C24.4346 15.1382 24.435 15.1264 24.5664 15.1436C25.6348 15.2864 26.3492 15.4463 27.0234 15.6748C27.5263 15.8519 28.4346 16.2581 28.4346 16.3096C28.4345 16.3382 28.2915 16.5326 28.1201 16.7383C27.7433 17.2008 27.6462 17.4693 27.7432 17.7891C27.8232 18.0633 28.132 18.3499 28.4062 18.4014C28.7661 18.4698 29.0633 18.3037 29.4746 17.8125C29.6689 17.5725 29.863 17.3377 29.8916 17.292C29.943 17.2294 30.0181 17.2696 30.2979 17.4922C30.9206 17.995 31.4683 18.5038 31.4512 18.5781C31.4368 18.6214 30.5701 19.6432 29.5205 20.8525L27.6064 23.0518H25.3086L24.6006 21.5264C23.9835 20.2008 23.8686 19.9891 23.7314 19.9434C23.6346 19.9093 23.5207 19.9093 23.4238 19.9434C23.2867 19.9891 23.1718 20.2008 22.5547 21.5264L21.8467 23.0518H19.5488L17.6348 20.8525C16.5852 19.6433 15.7185 18.6215 15.7041 18.5781C15.687 18.5038 16.2126 18.0123 16.8525 17.498L17.1895 17.2236L17.624 17.7383C18.1037 18.3093 18.3721 18.4698 18.749 18.4014C19.0233 18.3499 19.3321 18.0633 19.4121 17.7891C19.509 17.4693 19.412 17.2008 19.0352 16.7383C18.8641 16.5331 18.7214 16.339 18.7207 16.3154C18.7207 16.2583 19.3723 15.961 19.9951 15.7324C20.715 15.4639 21.7318 15.2353 22.5488 15.1553L22.6924 15.1377L22.7207 15.7949Z" fill="white"/>
</svg>
