<svg width="48" height="48" viewBox="0 0 48 48" fill="none" xmlns="http://www.w3.org/2000/svg">
<rect width="48" height="48" rx="8" fill="#3CB085"/>
<path d="M17.6098 7.04134C18.0017 6.98622 30.1033 6.98622 30.5063 7.04134C32.1942 7.27459 33.6363 8.56838 34.0434 10.2181C34.2342 10.9894 34.2425 10.8768 33.4751 18.2757C33.0892 21.9945 32.7418 25.1833 32.7036 25.3577C32.5467 26.0957 32.1732 26.7872 31.6177 27.3724C31.0621 27.9619 30.4003 28.3521 29.5903 28.5726L29.187 28.6829L26.9526 28.6995L24.7134 28.7122V26.0911C24.7134 23.6825 24.7093 23.4573 24.6372 23.3216C24.4123 22.8682 23.7419 22.8682 23.5171 23.3216C23.445 23.4573 23.4409 23.6825 23.4409 26.0911V28.7122L21.2056 28.6995L18.9673 28.6829L18.564 28.5726C17.7626 28.3564 17.1774 28.0127 16.5923 27.4193C16.0028 26.8255 15.6161 26.1254 15.4507 25.3577C15.4124 25.1833 15.0651 21.9945 14.6792 18.2757C13.9075 10.8684 13.9159 10.9682 14.1108 10.2181C14.2211 9.77705 14.5094 9.15704 14.7681 8.79232C15.0267 8.43198 15.506 7.96605 15.8579 7.73275C16.371 7.38923 17.05 7.12192 17.6098 7.04134ZM23.2505 9.73373C23.1826 9.74221 22.9703 9.77273 22.7837 9.79818C20.7906 10.0569 18.7039 11.1673 17.1899 12.766C16.5793 13.4148 16.5581 13.606 17.0542 14.1742C19.5087 17.006 20.442 18.0538 20.5317 18.097C20.6971 18.1691 27.4571 18.1691 27.6225 18.097C27.7094 18.0565 30.3205 15.107 31.2319 14.0218C31.4184 13.8014 31.4859 13.5723 31.4223 13.3646C31.3587 13.1568 30.6928 12.4487 30.0991 11.9525C28.7336 10.8202 27.2664 10.1283 25.604 9.83138C25.2435 9.76353 24.8912 9.7383 24.2466 9.72982C23.7682 9.72136 23.3237 9.72527 23.2505 9.73373ZM23.4409 11.4906C23.4664 12.0583 23.5301 12.2068 23.8013 12.3382C24.0217 12.4442 24.1323 12.4445 24.3569 12.3343C24.6326 12.2028 24.7134 12.0028 24.7134 11.4388C24.7134 11.0024 24.7135 10.9935 24.811 11.0062C25.6039 11.1122 26.1339 11.2311 26.6343 11.4007C27.0064 11.5318 27.6784 11.8319 27.6821 11.8714C27.6821 11.8926 27.5759 12.0371 27.4487 12.1898C27.1689 12.5332 27.0964 12.7326 27.1684 12.9701C27.2278 13.1736 27.4571 13.386 27.6606 13.4242C27.9278 13.475 28.1483 13.3514 28.4536 12.9867C28.5977 12.8086 28.742 12.6348 28.7632 12.6009C28.8013 12.5544 28.8566 12.5844 29.064 12.7494C29.525 13.1216 29.9319 13.4984 29.9214 13.555C29.9129 13.5847 29.2681 14.3444 28.4878 15.2435L27.0669 16.8763H25.3618L24.8364 15.7435C24.3787 14.7602 24.2936 14.6027 24.1919 14.5687C24.1198 14.5432 24.0345 14.5432 23.9624 14.5687C23.8607 14.6027 23.7756 14.7601 23.3179 15.7435L22.7925 16.8763H21.0874L19.6665 15.2435C18.8862 14.3444 18.2414 13.5847 18.2329 13.555C18.2222 13.4985 18.6118 13.1349 19.0854 12.7542L19.3354 12.5501L19.6577 12.932C20.0139 13.3561 20.2137 13.475 20.4936 13.4242C20.6972 13.386 20.9265 13.1736 20.9858 12.9701C21.0578 12.7326 20.9854 12.5332 20.7056 12.1898C20.579 12.0379 20.4733 11.8945 20.4722 11.8763C20.4722 11.8339 20.9562 11.6133 21.4184 11.4437C21.9528 11.2444 22.7076 11.0743 23.314 11.015L23.4194 11.0023L23.4409 11.4906Z" fill="white"/>
<path d="M28.9 36.7544C28.9 34.3243 26.9301 32.3544 24.5 32.3544C22.0699 32.3544 20.1 34.3243 20.1 36.7544C20.1 39.1845 22.0699 41.1544 24.5 41.1544C26.9301 41.1544 28.9 39.1845 28.9 36.7544ZM23.95 38.9544V35.8822L23.2389 36.5933C23.0241 36.8081 22.6759 36.8081 22.4611 36.5933C22.2463 36.3785 22.2463 36.0303 22.4611 35.8155L24.1111 34.1655L24.1213 34.1556C24.3367 33.9508 24.6775 33.9541 24.8889 34.1655L26.5389 35.8155C26.7537 36.0303 26.7537 36.3785 26.5389 36.5933C26.3241 36.8081 25.9759 36.8081 25.7611 36.5933L25.05 35.8822V38.9544C25.05 39.2581 24.8038 39.5044 24.5 39.5044C24.1962 39.5044 23.95 39.2581 23.95 38.9544ZM30 36.7544C30 39.792 27.5376 42.2544 24.5 42.2544C21.4624 42.2544 19 39.792 19 36.7544C19 33.7168 21.4624 31.2544 24.5 31.2544C27.5376 31.2544 30 33.7168 30 36.7544Z" fill="white"/>
</svg>
