<svg width="48" height="48" viewBox="0 0 48 48" fill="none" xmlns="http://www.w3.org/2000/svg">
<rect width="48" height="48" rx="8" fill="#7C4991"/>
<path d="M30.5215 9.0127L31.0918 9.14355C32.905 9.55415 34.365 10.3416 35.5967 11.5732C37.1419 13.1243 38.0368 15.1144 38.168 17.2812C38.2022 17.8686 38.1971 17.9374 38.083 18.1826C37.8607 18.633 37.6888 18.695 36.6396 18.7178L35.7393 18.7412V27.9844C35.7393 36.8592 35.7334 37.2452 35.6309 37.4619C35.5739 37.5873 35.4535 37.7582 35.3623 37.8438C35.0202 38.1631 34.9463 38.1748 32.8311 38.1748H30.8916V31.2461C30.8916 23.5829 30.9147 24.0726 30.5156 23.7705L30.3047 23.6055H16.8809L16.6816 23.7588C16.2654 24.0781 16.2939 23.5201 16.2939 31.2412V38.1748H14.3545C12.7298 38.1748 12.376 38.1581 12.1992 38.084C11.9312 37.9757 11.6973 37.7531 11.5547 37.4795C11.452 37.2742 11.4463 37.0059 11.4463 28.002V18.7412L10.5459 18.7178C9.71905 18.7007 9.63302 18.6899 9.42773 18.5645C9.28521 18.4732 9.17163 18.3361 9.0918 18.165C8.99486 17.9369 8.98336 17.8342 9.01758 17.2754C9.14876 15.1143 10.0494 13.1128 11.5889 11.5732C12.9917 10.1761 14.8398 9.26911 16.7559 9.04102C16.9927 9.01253 20.1849 8.99528 23.8496 9.00098L30.5215 9.0127ZM29.0654 35.1523V38.1748H18.1172V35.1523H29.0654ZM29.0654 33.3281H18.1172V30.249H29.0654V33.3281ZM29.0654 28.4238H18.1172V25.4014H29.0654V28.4238ZM23.5811 13.2549C19.8462 13.2549 19.3783 13.267 19.2129 13.3525C18.9338 13.4894 18.7854 13.74 18.7568 14.1045C18.7283 14.5037 18.8824 14.7612 19.2588 14.9551L19.5156 15.0801L23.6494 15.0684C27.7035 15.0513 27.7896 15.0514 27.9834 14.9316C28.3141 14.7378 28.4515 14.4809 28.4287 14.1045C28.4001 13.7342 28.2458 13.4835 27.9609 13.3467C27.7899 13.2668 27.3275 13.2549 23.5811 13.2549Z" fill="white"/>
</svg>
